<?xml version="1.0" encoding="us-ascii" standalone="no"?><svg xmlns="http://www.w3.org/2000/svg" xmlns:xlink="http://www.w3.org/1999/xlink" contentStyleType="text/css" height="1873.9583px" preserveAspectRatio="none" style="width:1188px;height:1873px;" version="1.1" viewBox="0 0 1188 1873" width="1188.5417px" zoomAndPan="magnify"><defs><linearGradient id="g1rf2huw3uot5z0" x1="50%" x2="50%" y1="0%" y2="100%"><stop offset="0%" stop-color="#59B6EC"/><stop offset="100%" stop-color="#2FA4E7"/></linearGradient></defs><g><!--cluster MAC--><g id="cluster_MAC"><path d="M20.8333,16.6667 L69.7917,16.6667 A6.25,6.25 0 0 1 73.9583,20.8333 L81.25,53.3223 L535.4167,53.3223 A4.1667,4.1667 0 0 1 539.5833,57.489 L539.5833,1552.0833 A4.1667,4.1667 0 0 1 535.4167,1556.25 L20.8333,1556.25 A4.1667,4.1667 0 0 1 16.6667,1552.0833 L16.6667,20.8333 A4.1667,4.1667 0 0 1 20.8333,16.6667 " fill="none" style="stroke:#59B6EC;stroke-width:2.0833333333333335;"/><line style="stroke:#59B6EC;stroke-width:2.0833333333333335;" x1="16.6667" x2="81.25" y1="53.3223" y2="53.3223"/><text fill="#2FA4E7" font-family="Gotham Black" font-size="16.6667" font-weight="bold" lengthAdjust="spacing" textLength="40.625" x="26.0417" y="39.9495">MAC</text></g><!--entity harq--><g id="elem_harq"><ellipse cx="311.4583" cy="566.6667" fill="url(#g1rf2huw3uot5z0)" rx="16.6667" ry="16.6667" style="stroke:#2FA4E7;stroke-width:1.0416666666666667;"/><path d="M311.4583,587.5 C315.625,587.5 318.75,587.5 322.9167,583.3333 C331.25,583.3333 339.5833,591.6667 339.5833,600 L339.5833,604.1667 C339.5833,608.3333 335.4167,612.5 331.25,612.5 L291.6667,612.5 C287.5,612.5 283.3333,608.3333 283.3333,604.1667 L283.3333,600 C283.3333,591.6667 291.6667,583.3333 300,583.3333 C304.1667,587.5 307.2917,587.5 311.4583,587.5 " fill="url(#g1rf2huw3uot5z0)" style="stroke:#2FA4E7;stroke-width:1.0416666666666667;"/><text fill="#343A40" font-family="Gotham Black" font-size="16.6667" font-weight="bold" lengthAdjust="spacing" textLength="53.125" x="284.8958" y="634.7412">HARQ</text></g><g id="elem_queue"><ellipse cx="278.3825" cy="934.7894" fill="url(#g1rf2huw3uot5z0)" rx="244.5284" ry="196.2477" style="stroke:#2FA4E7;stroke-width:2.0833333333333335;"/><text fill="#FFFFFF" font-family="Gotham Black" font-size="16.6667" lengthAdjust="spacing" textLength="4.1667" x="276.2992" y="845.4024">&#160;</text><text fill="#FFFFFF" font-family="Gotham Black" font-size="16.6667" lengthAdjust="spacing" textLength="291.6667" x="138.7992" y="875.808">The user can push operation in the</text><text fill="#FFFFFF" font-family="Gotham Black" font-size="16.6667" lengthAdjust="spacing" textLength="280.2083" x="144.5284" y="906.2137">queue that will be scheduled and</text><text fill="#FFFFFF" font-family="Gotham Black" font-size="16.6667" lengthAdjust="spacing" textLength="207.2917" x="183.07" y="936.6194">executed by the handler</text><text fill="#FFFFFF" font-family="Gotham Black" font-size="16.6667" lengthAdjust="spacing" textLength="4.1667" x="276.2992" y="967.0251">&#160;</text><text fill="#FFFFFF" font-family="Gotham Black" font-size="16.6667" lengthAdjust="spacing" textLength="289.5833" x="141.9242" y="997.4308">This is (mostly) the entry point for</text><text fill="#FFFFFF" font-family="Gotham Black" font-size="16.6667" lengthAdjust="spacing" textLength="77.0833" x="239.8409" y="1027.8364">the users</text><text fill="#FFFFFF" font-family="Gotham Black" font-size="16.6667" lengthAdjust="spacing" textLength="4.1667" x="276.2992" y="1058.2421">&#160;</text><line style="stroke:#2FA4E7;stroke-width:1.0416666666666667;" x1="91.7331" x2="139.32" y1="809" y2="809"/><text fill="#FFFFFF" font-family="Gotham Black" font-size="16.6667" font-weight="bold" lengthAdjust="spacing" textLength="267.7083" x="144.5284" y="814.4758">dect_mac_phy_handler_queue</text><line style="stroke:#2FA4E7;stroke-width:1.0416666666666667;" x1="417.445" x2="465.032" y1="809" y2="809"/></g><g id="elem_handler"><ellipse cx="276.2379" cy="1382.6134" fill="url(#g1rf2huw3uot5z0)" rx="240.3004" ry="156.5717" style="stroke:#2FA4E7;stroke-width:2.0833333333333335;"/><text fill="#FFFFFF" font-family="Gotham Black" font-size="16.6667" lengthAdjust="spacing" textLength="4.1667" x="274.1546" y="1323.6321">&#160;</text><text fill="#FFFFFF" font-family="Gotham Black" font-size="16.6667" lengthAdjust="spacing" textLength="265.625" x="151.7587" y="1354.0377">The handler is an interface that</text><text fill="#FFFFFF" font-family="Gotham Black" font-size="16.6667" lengthAdjust="spacing" textLength="295.8333" x="136.6546" y="1384.4434">simplify the usage of the PHY layer</text><text fill="#FFFFFF" font-family="Gotham Black" font-size="16.6667" lengthAdjust="spacing" textLength="4.1667" x="274.1546" y="1414.8491">&#160;</text><text fill="#FFFFFF" font-family="Gotham Black" font-size="16.6667" lengthAdjust="spacing" textLength="309.375" x="121.5504" y="1445.2548">This is the entry point of the PHY API</text><text fill="#FFFFFF" font-family="Gotham Black" font-size="16.6667" lengthAdjust="spacing" textLength="4.1667" x="274.1546" y="1475.6605">&#160;</text><line style="stroke:#2FA4E7;stroke-width:1.0416666666666667;" x1="86.7176" x2="168.9462" y1="1287.2297" y2="1287.2297"/><text fill="#FFFFFF" font-family="Gotham Black" font-size="16.6667" font-weight="bold" lengthAdjust="spacing" textLength="204.1667" x="174.1546" y="1292.7055">dect_mac_phy_handler</text><line style="stroke:#2FA4E7;stroke-width:1.0416666666666667;" x1="383.5296" x2="465.7582" y1="1287.2297" y2="1287.2297"/></g><g id="elem_callback"><ellipse cx="334.5739" cy="180.2383" fill="url(#g1rf2huw3uot5z0)" rx="188.7405" ry="113.5716" style="stroke:#2FA4E7;stroke-width:2.0833333333333335;"/><text fill="#FFFFFF" font-family="Gotham Black" font-size="16.6667" lengthAdjust="spacing" textLength="4.1667" x="332.4905" y="151.6626">&#160;</text><text fill="#FFFFFF" font-family="Gotham Black" font-size="16.6667" lengthAdjust="spacing" textLength="222.9167" x="231.4489" y="182.0683">The callback functions are</text><text fill="#FFFFFF" font-family="Gotham Black" font-size="16.6667" lengthAdjust="spacing" textLength="238.5417" x="215.303" y="212.474">the exit point of the PHY API</text><text fill="#FFFFFF" font-family="Gotham Black" font-size="16.6667" lengthAdjust="spacing" textLength="4.1667" x="332.4905" y="242.8797">&#160;</text><line style="stroke:#2FA4E7;stroke-width:1.0416666666666667;" x1="180.8179" x2="211.6572" y1="115.2602" y2="115.2602"/><text fill="#FFFFFF" font-family="Gotham Black" font-size="16.6667" font-weight="bold" lengthAdjust="spacing" textLength="235.4167" x="216.8655" y="120.7361">dect_mac_phy_handler_cb</text><line style="stroke:#2FA4E7;stroke-width:1.0416666666666667;" x1="457.4905" x2="488.3298" y1="115.2602" y2="115.2602"/></g><!--entity user--><g id="elem_user"><ellipse cx="585.4167" cy="566.6667" fill="url(#g1rf2huw3uot5z0)" rx="16.6667" ry="16.6667" style="stroke:#2FA4E7;stroke-width:1.0416666666666667;"/><path d="M585.4167,587.5 C589.5833,587.5 592.7083,587.5 596.875,583.3333 C605.2083,583.3333 613.5417,591.6667 613.5417,600 L613.5417,604.1667 C613.5417,608.3333 609.375,612.5 605.2083,612.5 L565.625,612.5 C561.4583,612.5 557.2917,608.3333 557.2917,604.1667 L557.2917,600 C557.2917,591.6667 565.625,583.3333 573.9583,583.3333 C578.125,587.5 581.25,587.5 585.4167,587.5 " fill="url(#g1rf2huw3uot5z0)" style="stroke:#2FA4E7;stroke-width:1.0416666666666667;"/><text fill="#343A40" font-family="Gotham Black" font-size="16.6667" font-weight="bold" lengthAdjust="spacing" textLength="47.9167" x="561.4583" y="634.7412">USER</text></g><g id="elem_phy"><ellipse cx="872.9611" cy="1382.6965" fill="url(#g1rf2huw3uot5z0)" rx="152.6486" ry="92.0715" style="stroke:#2FA4E7;stroke-width:2.0833333333333335;"/><text fill="#FFFFFF" font-family="Gotham Black" font-size="16.6667" lengthAdjust="spacing" textLength="4.1667" x="855.2528" y="1369.3237">&#160;</text><text fill="#FFFFFF" font-family="Gotham Black" font-size="16.6667" lengthAdjust="spacing" textLength="157.2917" x="778.6903" y="1399.7294">This is the PHY API</text><text fill="#FFFFFF" font-family="Gotham Black" font-size="16.6667" lengthAdjust="spacing" textLength="4.1667" x="855.2528" y="1430.1351">&#160;</text><line style="stroke:#2FA4E7;stroke-width:1.0416666666666667;" x1="745.584" x2="771.3986" y1="1332.9213" y2="1332.9213"/><text fill="#FFFFFF" font-family="Gotham Black" font-size="16.6667" font-weight="bold" lengthAdjust="spacing" textLength="192.7083" x="776.607" y="1338.3972">nrf_modem_dect_phy</text><line style="stroke:#2FA4E7;stroke-width:1.0416666666666667;" x1="974.5236" x2="1000.3382" y1="1332.9213" y2="1332.9213"/></g><g id="elem_modem"><ellipse cx="871.9061" cy="1749.6082" fill="url(#g1rf2huw3uot5z0)" rx="140.6561" ry="113.1499" style="stroke:#2FA4E7;stroke-width:2.0833333333333335;"/><text fill="#FFFFFF" font-family="Gotham Black" font-size="16.6667" lengthAdjust="spacing" textLength="4.1667" x="869.8228" y="1721.0326">&#160;</text><text fill="#FFFFFF" font-family="Gotham Black" font-size="16.6667" lengthAdjust="spacing" textLength="166.6667" x="786.4894" y="1751.4383">This is where all the</text><text fill="#FFFFFF" font-family="Gotham Black" font-size="16.6667" lengthAdjust="spacing" textLength="130.2083" x="806.8019" y="1781.8439">RF stuff is done</text><text fill="#FFFFFF" font-family="Gotham Black" font-size="16.6667" lengthAdjust="spacing" textLength="4.1667" x="869.8228" y="1812.2496">&#160;</text><line style="stroke:#2FA4E7;stroke-width:1.0416666666666667;" x1="757.7969" x2="811.4894" y1="1684.6302" y2="1684.6302"/><text fill="#FFFFFF" font-family="Gotham Black" font-size="16.6667" font-weight="bold" lengthAdjust="spacing" textLength="110.4167" x="816.6978" y="1690.1061">modem core</text><line style="stroke:#2FA4E7;stroke-width:1.0416666666666667;" x1="932.3228" x2="986.0153" y1="1684.6302" y2="1684.6302"/></g><!--link user to queue--><g id="link_user_queue"><path d="M556.0104,630.7188 C536.6458,652.5833 510.6875,681.7396 487.5,707.2917 C466.9896,729.8958 449.4607,749.0671 428.0232,772.3691 " fill="none" id="user-to-queue" style="stroke:#2FA4E7;stroke-width:3.125;"/><polygon fill="#2FA4E7" points="423.7917,776.9688,433.2054,772.8904,427.318,773.1357,427.0726,767.2483,423.7917,776.9688" style="stroke:#2FA4E7;stroke-width:3.125;"/><text fill="#343A40" font-family="Gotham Black" font-size="16.6667" lengthAdjust="spacing" textLength="163.5417" x="519.7917" y="697.2412">schedule operation</text></g><!--link harq to queue--><g id="link_harq_queue"><path d="M306.8542,643.8229 C304.3125,669.5104 301.5737,697.1554 298.0633,732.6345 " fill="none" id="harq-to-queue" style="stroke:#2FA4E7;stroke-width:3.125;"/><polygon fill="#2FA4E7" points="297.4479,738.8542,302.5174,729.935,297.9607,733.6711,294.2246,729.1145,297.4479,738.8542" style="stroke:#2FA4E7;stroke-width:3.125;"/><text fill="#343A40" font-family="Gotham Black" font-size="16.6667" lengthAdjust="spacing" textLength="163.5417" x="309.375" y="697.2412">schedule operation</text></g><!--link queue to handler--><g id="link_queue_handler"><path d="M277.2083,1131.4896 C277.0625,1163.0729 276.9466,1189.1563 276.8007,1219.6355 " fill="none" id="queue-to-handler" style="stroke:#2FA4E7;stroke-width:3.125;"/><polygon fill="#2FA4E7" points="276.7708,1225.8854,280.9823,1216.5305,276.7958,1220.6771,272.6491,1216.4906,276.7708,1225.8854" style="stroke:#2FA4E7;stroke-width:3.125;"/><text fill="#343A40" font-family="Gotham Black" font-size="16.6667" lengthAdjust="spacing" textLength="216.6667" x="283.3333" y="1184.7412">give operation to handler</text></g><!--link handler to phy--><g id="link_handler_phy"><path d="M516.2292,1382.8125 C585.0729,1382.8125 651.9583,1382.8125 713.9688,1382.8125 " fill="none" id="handler-to-phy" style="stroke:#2FA4E7;stroke-width:3.125;"/><polygon fill="#2FA4E7" points="720.2188,1382.8125,710.8438,1378.6458,715.0104,1382.8125,710.8438,1386.9792,720.2188,1382.8125" style="stroke:#2FA4E7;stroke-width:3.125;"/><text fill="#343A40" font-family="Gotham Black" font-size="16.6667" lengthAdjust="spacing" textLength="155.2083" x="540.625" y="1369.637">execute operation</text></g><!--link phy to modem--><g id="link_phy_modem"><path d="M792.2396,1461.1458 C764.6979,1492.8542 737.2604,1531.7708 722.9167,1572.9167 C709.1667,1612.3542 726.9177,1644.56 758.126,1673.935 " fill="none" id="phy-to-modem" style="stroke:#2FA4E7;stroke-width:3.125;"/><polygon fill="#2FA4E7" points="762.6771,1678.2188,758.7063,1668.7591,758.8845,1674.649,752.9947,1674.8272,762.6771,1678.2188" style="stroke:#2FA4E7;stroke-width:3.125;"/><text fill="#343A40" font-family="Gotham Black" font-size="16.6667" lengthAdjust="spacing" textLength="238.5417" x="729.1667" y="1595.1579">transmit to the modem core</text></g><!--link modem to phy--><g id="link_modem_phy"><path d="M952.8438,1656.5417 C963.2188,1640.375 972.25,1622.9896 978.125,1605.2083 C994.0729,1556.9271 975.7132,1510.6643 947.8591,1469.5393 " fill="none" id="modem-to-phy" style="stroke:#2FA4E7;stroke-width:3.125;"/><polygon fill="#2FA4E7" points="944.3542,1464.3646,946.1617,1474.4633,947.2749,1468.6769,953.0614,1469.7901,944.3542,1464.3646" style="stroke:#2FA4E7;stroke-width:3.125;"/><text fill="#343A40" font-family="Gotham Black" font-size="16.6667" lengthAdjust="spacing" textLength="180.2083" x="989.5833" y="1595.1579">sends the result back</text></g><!--link phy to callback--><g id="link_phy_callback"><path d="M840.3854,1292.6042 C810.8542,1203.5521 771.875,1062.125 771.875,935.9375 C771.875,357.2917 771.875,357.2917 771.875,357.2917 C771.875,298.2396 639.0241,251.3915 517.7428,220.3915 " fill="none" id="phy-to-callback" style="stroke:#2FA4E7;stroke-width:3.125;"/><polygon fill="#2FA4E7" points="511.6875,218.8437,519.7386,225.2023,516.7336,220.1336,521.8023,217.1285,511.6875,218.8437" style="stroke:#2FA4E7;stroke-width:3.125;"/><text fill="#343A40" font-family="Gotham Black" font-size="16.6667" lengthAdjust="spacing" textLength="146.875" x="778.125" y="507.6579">calls the callback</text></g><!--link callback to user--><g id="link_callback_user"><path d="M423.8542,280.2083 C451.1771,313.4688 479.8542,351.75 502.0833,389.5833 C532.3438,441.0833 554.5271,499.7085 568.8917,542.6355 " fill="none" id="callback-to-user" style="stroke:#2FA4E7;stroke-width:3.125;"/><polygon fill="#2FA4E7" points="570.875,548.5625,571.8513,538.3498,569.2222,543.6234,563.9487,540.9943,570.875,548.5625" style="stroke:#2FA4E7;stroke-width:3.125;"/><text fill="#343A40" font-family="Gotham Black" font-size="16.6667" lengthAdjust="spacing" textLength="156.25" x="525" y="411.8245">send result to user</text></g><!--link callback to harq--><g id="link_callback_harq"><path d="M328.1458,293.8437 C323.5104,377.5417 317.7726,481.2075 314.3768,542.5408 " fill="none" id="callback-to-harq" style="stroke:#2FA4E7;stroke-width:3.125;"/><polygon fill="#2FA4E7" points="314.0313,548.7813,318.7098,539.6509,314.3192,543.5809,310.3892,539.1902,314.0313,548.7813" style="stroke:#2FA4E7;stroke-width:3.125;"/><text fill="#343A40" font-family="Gotham Black" font-size="16.6667" lengthAdjust="spacing" textLength="159.375" x="328.125" y="411.8245">send result to harq</text></g><!--SRC=[XLGzZzGm4EtzAuQj858A6eeKICl7tL60Zbqeg2AlCxbOvzWvss4l8FuxOplnPXTn5wL8F6_UcpSpoGlVOOyWq8uAkMRkNkg1Mzx31spvgFoLqNulVo6yVhCADgVW5qxvryPtTFnESN7Fs0h8XJTsxoU5m8_eJ8-CLKNnVVznLnGLS0UZGylOG8dy3k7pzZtyPa0NeMwskwypgkFsWSLpmWlk41v67364DcLP50qAN_TSr4CtrHtNZK9RHqXHb6NA_DPXL0F1DGoZwy0CQBcNHeFKG9s0Y4lCPCZ3KIe51mGdEcoeGmqGTKBX8uhHqybXYgcpw28b7T3ziZVEg-bLHA3sTeB1IEsXDJO2_LoJsx1pUpFTamRFhIqP9Ck38O-svI8PYI0d-q79Tff5GxjD6rzkRtw0ujDbzPT5hz3Rsq-Ryu85L-f0Ktnw9E9mNdJEQaSjmYIeU8kvDVWe_N_4_p2sI9D0LjMshNlJO5z7VGebmRMdau658MPaZlGcZCNpt6E7bbQELYBkokuAd1_RDeGQep6CC59QACktynfLUNTEsyR2DZ-7IQ40MWPRmPtykOA0Dtdh5Wp1GpUgPJrNXE4yq2Lt5NZBjUkflqGJ_9nSi_HOPZA7kacji-ZekuSmiaoOPrZ5nmHS3bcEbcK0n_OaneMCzEDFu08Pc_GFClq8s5y0]--></g></svg>