<?xml version="1.0" encoding="us-ascii" standalone="no"?><svg xmlns="http://www.w3.org/2000/svg" xmlns:xlink="http://www.w3.org/1999/xlink" contentStyleType="text/css" height="415.625px" preserveAspectRatio="none" style="width:383px;height:415px;" version="1.1" viewBox="0 0 383 415" width="383.3333px" zoomAndPan="magnify"><defs><linearGradient id="g1qknz7n2p1gvo0" x1="50%" x2="50%" y1="0%" y2="100%"><stop offset="0%" stop-color="#59B6EC"/><stop offset="100%" stop-color="#2FA4E7"/></linearGradient><linearGradient id="g1qknz7n2p1gvo1" x1="50%" x2="50%" y1="0%" y2="100%"><stop offset="0%" stop-color="#FFFFFF"/><stop offset="100%" stop-color="#EDF0F2"/></linearGradient></defs><g><ellipse cx="173.9583" cy="20.8333" fill="#033C73" rx="10.4167" ry="10.4167" style="stroke:#2683B9;stroke-width:1.0416666666666667;"/><rect fill="url(#g1qknz7n2p1gvo0)" height="42.9057" rx="4.1667" ry="4.1667" style="stroke:#2FA4E7;stroke-width:1.0416666666666667;" width="211.4583" x="68.2292" y="52.0833"/><text fill="#FFFFFF" font-family="Gotham Black" font-size="16.6667" lengthAdjust="spacing" textLength="188.5417" x="79.6875" y="79.5329">Save the modem time</text><polygon fill="url(#g1qknz7n2p1gvo1)" points="141.1458,117.8355,206.7708,117.8355,219.2708,133.0383,206.7708,148.2412,141.1458,148.2412,128.6458,133.0383,141.1458,117.8355" style="stroke:#BABDBF;stroke-width:1.0416666666666667;"/><text fill="#343A40" font-family="Gotham Black" font-size="16.6667" lengthAdjust="spacing" textLength="55.2083" x="146.3542" y="139.035">error ?</text><text fill="#343A40" font-family="Gotham Black" font-size="16.6667" lengthAdjust="spacing" textLength="29.1667" x="94.2708" y="123.8322">yes</text><text fill="#343A40" font-family="Gotham Black" font-size="16.6667" lengthAdjust="spacing" textLength="20.8333" x="224.4792" y="123.8322">no</text><rect fill="url(#g1qknz7n2p1gvo0)" height="42.9057" rx="4.1667" ry="4.1667" style="stroke:#2FA4E7;stroke-width:1.0416666666666667;" width="134.375" x="11.4583" y="158.6578"/><text fill="#FFFFFF" font-family="Gotham Black" font-size="16.6667" lengthAdjust="spacing" textLength="111.4583" x="22.9167" y="186.1074">Log the error</text><rect fill="url(#g1qknz7n2p1gvo0)" height="82.8837" rx="4.1667" ry="4.1667" style="stroke:#2FA4E7;stroke-width:1.0416666666666667;" width="141.6667" x="198.4375" y="158.6578"/><text fill="#FFFFFF" font-family="Gotham Black" font-size="16.6667" lengthAdjust="spacing" textLength="118.75" x="209.8958" y="186.1074">Do something</text><text fill="#FFFFFF" font-family="Gotham Black" font-size="16.6667" lengthAdjust="spacing" textLength="84.375" x="227.0833" y="206.0964">related to</text><text fill="#FFFFFF" font-family="Gotham Black" font-size="16.6667" lengthAdjust="spacing" textLength="115.625" x="211.4583" y="226.0854">the operation</text><rect fill="url(#g1qknz7n2p1gvo0)" height="62.8947" rx="4.1667" ry="4.1667" style="stroke:#2FA4E7;stroke-width:1.0416666666666667;" width="205.2083" x="166.6667" y="262.3749"/><text fill="#FFFFFF" font-family="Gotham Black" font-size="16.6667" lengthAdjust="spacing" textLength="182.2917" x="178.125" y="289.8244">Notify the queue that</text><text fill="#FFFFFF" font-family="Gotham Black" font-size="16.6667" lengthAdjust="spacing" textLength="138.5417" x="200" y="309.8134">the PHY is ready</text><polygon fill="url(#g1qknz7n2p1gvo1)" points="173.9583,335.6862,186.4583,348.1862,173.9583,360.6862,161.4583,348.1862,173.9583,335.6862" style="stroke:#BABDBF;stroke-width:1.0416666666666667;"/><ellipse cx="173.9583" cy="392.9779" fill="none" rx="11.4583" ry="11.4583" style="stroke:#2683B9;stroke-width:1.0416666666666667;"/><ellipse cx="173.9583" cy="392.9779" fill="none" rx="6.25" ry="6.25" style="stroke:#2683B9;stroke-width:1.0416666666666667;"/><line style="stroke:#2FA4E7;stroke-width:3.125;" x1="173.9583" x2="173.9583" y1="31.25" y2="52.0833"/><polygon fill="#2FA4E7" points="169.7917,41.6667,173.9583,52.0833,178.125,41.6667,173.9583,45.8333" style="stroke:#2FA4E7;stroke-width:1.0416666666666667;"/><line style="stroke:#2FA4E7;stroke-width:3.125;" x1="269.2708" x2="269.2708" y1="241.5415" y2="262.3749"/><polygon fill="#2FA4E7" points="265.1042,251.9582,269.2708,262.3749,273.4375,251.9582,269.2708,256.1249" style="stroke:#2FA4E7;stroke-width:1.0416666666666667;"/><line style="stroke:#2FA4E7;stroke-width:1.5625;stroke-dasharray:7.0,7.0;" x1="128.6458" x2="78.6458" y1="133.0383" y2="133.0383"/><line style="stroke:#2FA4E7;stroke-width:1.5625;stroke-dasharray:7.0,7.0;" x1="78.6458" x2="78.6458" y1="133.0383" y2="158.6578"/><polygon fill="#2FA4E7" points="74.4792,148.2412,78.6458,158.6578,82.8125,148.2412,78.6458,152.4078" style="stroke:#2FA4E7;stroke-width:1.0416666666666667;"/><line style="stroke:#2FA4E7;stroke-width:3.125;" x1="219.2708" x2="269.2708" y1="133.0383" y2="133.0383"/><line style="stroke:#2FA4E7;stroke-width:3.125;" x1="269.2708" x2="269.2708" y1="133.0383" y2="158.6578"/><polygon fill="#2FA4E7" points="265.1042,148.2412,269.2708,158.6578,273.4375,148.2412,269.2708,152.4078" style="stroke:#2FA4E7;stroke-width:1.0416666666666667;"/><line style="stroke:#2FA4E7;stroke-width:1.5625;stroke-dasharray:7.0,7.0;" x1="78.6458" x2="78.6458" y1="201.5635" y2="348.1862"/><line style="stroke:#2FA4E7;stroke-width:1.5625;stroke-dasharray:7.0,7.0;" x1="78.6458" x2="161.4583" y1="348.1862" y2="348.1862"/><polygon fill="#2FA4E7" points="151.0417,344.0196,161.4583,348.1862,151.0417,352.3529,155.2083,348.1862" style="stroke:#2FA4E7;stroke-width:1.0416666666666667;"/><line style="stroke:#2FA4E7;stroke-width:3.125;" x1="269.2708" x2="269.2708" y1="325.2696" y2="348.1862"/><line style="stroke:#2FA4E7;stroke-width:3.125;" x1="269.2708" x2="186.4583" y1="348.1862" y2="348.1862"/><polygon fill="#2FA4E7" points="196.875,344.0196,186.4583,348.1862,196.875,352.3529,192.7083,348.1862" style="stroke:#2FA4E7;stroke-width:1.0416666666666667;"/><line style="stroke:#2FA4E7;stroke-width:3.125;" x1="173.9583" x2="173.9583" y1="94.989" y2="117.8355"/><polygon fill="#2FA4E7" points="169.7917,107.4188,173.9583,117.8355,178.125,107.4188,173.9583,111.5855" style="stroke:#2FA4E7;stroke-width:1.0416666666666667;"/><line style="stroke:#2FA4E7;stroke-width:3.125;" x1="173.9583" x2="173.9583" y1="360.6862" y2="381.5196"/><polygon fill="#2FA4E7" points="169.7917,371.1029,173.9583,381.5196,178.125,371.1029,173.9583,375.2696" style="stroke:#2FA4E7;stroke-width:1.0416666666666667;"/><!--SRC=[PKyzJyCm4DtzAuuj7JgmC2GI25G10wgGoe8Gmwb-IQpQlc1V4E7NuxeI8FMsT-_ZtbteY03Q8yqU74q-k3Xnua0Rz3nxlPUeE_SDkhpwHze_Sil5_o0wblMTv_t1dEjUyAMttWqn86ev5XMfo9IJcdR7dw1IWu9O158Nq1dNKuEK9D7DwaX6QXRabQ4owpVBUOHzNrzNt3x9K0EgeJlJm6TG4-NaRZT2MG9qT76ecmJF2aig5HwJP49YTH8xSp9jHLs_LEvZndmipFehVtvy9PTB4DkbCuZMzUKxcSmF]--></g></svg>