<?xml version="1.0" encoding="us-ascii" standalone="no"?><svg xmlns="http://www.w3.org/2000/svg" xmlns:xlink="http://www.w3.org/1999/xlink" contentStyleType="text/css" height="577.0833px" preserveAspectRatio="none" style="width:1307px;height:577px;" version="1.1" viewBox="0 0 1307 577" width="1307.2917px" zoomAndPan="magnify"><defs><linearGradient id="gw3km32bpwjtb0" x1="50%" x2="50%" y1="0%" y2="100%"><stop offset="0%" stop-color="#59B6EC"/><stop offset="100%" stop-color="#2FA4E7"/></linearGradient><linearGradient id="gw3km32bpwjtb1" x1="50%" x2="50%" y1="0%" y2="100%"><stop offset="0%" stop-color="#FFFFFF"/><stop offset="100%" stop-color="#EDF0F2"/></linearGradient></defs><g><ellipse cx="659.375" cy="20.8333" fill="#033C73" rx="10.4167" ry="10.4167" style="stroke:#2683B9;stroke-width:1.0416666666666667;"/><rect fill="url(#gw3km32bpwjtb0)" height="42.9057" rx="4.1667" ry="4.1667" style="stroke:#2FA4E7;stroke-width:1.0416666666666667;" width="109.375" x="604.6875" y="52.0833"/><text fill="#FFFFFF" font-family="Gotham Black" font-size="16.6667" lengthAdjust="spacing" textLength="86.4583" x="616.1458" y="79.5329">Save time</text><polygon fill="url(#gw3km32bpwjtb1)" points="626.0417,117.8355,692.7083,117.8355,705.2083,133.0383,692.7083,148.2412,626.0417,148.2412,613.5417,133.0383,626.0417,117.8355" style="stroke:#BABDBF;stroke-width:1.0416666666666667;"/><text fill="#343A40" font-family="Gotham Black" font-size="16.6667" lengthAdjust="spacing" textLength="56.25" x="631.25" y="139.035">Error ?</text><text fill="#343A40" font-family="Gotham Black" font-size="16.6667" lengthAdjust="spacing" textLength="20.8333" x="587.5" y="123.8322">no</text><text fill="#343A40" font-family="Gotham Black" font-size="16.6667" lengthAdjust="spacing" textLength="29.1667" x="710.4167" y="123.8322">yes</text><polygon fill="url(#gw3km32bpwjtb1)" points="156.7708,158.6578,457.8125,158.6578,470.3125,173.8607,457.8125,189.0635,156.7708,189.0635,144.2708,173.8607,156.7708,158.6578" style="stroke:#BABDBF;stroke-width:1.0416666666666667;"/><text fill="#343A40" font-family="Gotham Black" font-size="16.6667" lengthAdjust="spacing" textLength="290.625" x="161.9792" y="179.8574">current operation = tx from tx_rx ?</text><text fill="#343A40" font-family="Gotham Black" font-size="16.6667" lengthAdjust="spacing" textLength="29.1667" x="109.8958" y="164.6545">yes</text><text fill="#343A40" font-family="Gotham Black" font-size="16.6667" lengthAdjust="spacing" textLength="20.8333" x="475.5208" y="164.6545">no</text><rect fill="url(#gw3km32bpwjtb0)" height="42.9057" rx="4.1667" ry="4.1667" style="stroke:#2FA4E7;stroke-width:1.0416666666666667;" width="202.0833" x="32.8125" y="199.4802"/><text fill="#FFFFFF" font-family="Gotham Black" font-size="16.6667" lengthAdjust="spacing" textLength="179.1667" x="44.2708" y="226.9297">Switch from TX to RX</text><rect fill="url(#gw3km32bpwjtb0)" height="62.8947" rx="4.1667" ry="4.1667" style="stroke:#2FA4E7;stroke-width:1.0416666666666667;" width="200" x="33.8542" y="343.2027"/><text fill="#FFFFFF" font-family="Gotham Black" font-size="16.6667" lengthAdjust="spacing" textLength="101.0417" x="45.3125" y="370.6523">Start HARQ</text><text fill="#FFFFFF" font-family="Gotham Black" font-size="16.6667" lengthAdjust="spacing" textLength="177.0833" x="45.3125" y="390.6413">retransmission timer</text><polygon fill="url(#gw3km32bpwjtb1)" points="33.3333,278.8442,234.375,278.8442,246.875,294.047,234.375,309.2499,33.3333,309.2499,20.8333,294.047,33.3333,278.8442" style="stroke:#BABDBF;stroke-width:1.0416666666666667;"/><text fill="#343A40" font-family="Gotham Black" font-size="16.6667" lengthAdjust="spacing" textLength="29.1667" x="143.2292" y="330.4494">yes</text><text fill="#343A40" font-family="Gotham Black" font-size="16.6667" lengthAdjust="spacing" textLength="190.625" x="38.5417" y="300.0437">has requested HARQ ?</text><polygon fill="url(#gw3km32bpwjtb1)" points="133.8542,426.9307,146.3542,439.4307,133.8542,451.9307,121.3542,439.4307,133.8542,426.9307" style="stroke:#BABDBF;stroke-width:1.0416666666666667;"/><rect fill="url(#gw3km32bpwjtb0)" height="42.9057" rx="4.1667" ry="4.1667" style="stroke:#2FA4E7;stroke-width:1.0416666666666667;" width="339.5833" x="310.9375" y="263.8387"/><text fill="#FFFFFF" font-family="Gotham Black" font-size="16.6667" lengthAdjust="spacing" textLength="316.6667" x="322.3958" y="291.2882">notify queue of operation completion</text><polygon fill="url(#gw3km32bpwjtb1)" points="376.5625,199.4802,584.8958,199.4802,597.3958,214.683,584.8958,229.8859,376.5625,229.8859,364.0625,214.683,376.5625,199.4802" style="stroke:#BABDBF;stroke-width:1.0416666666666667;"/><text fill="#343A40" font-family="Gotham Black" font-size="16.6667" lengthAdjust="spacing" textLength="29.1667" x="490.1042" y="251.0854">yes</text><text fill="#343A40" font-family="Gotham Black" font-size="16.6667" lengthAdjust="spacing" textLength="197.9167" x="381.7708" y="220.6797">operation from queue ?</text><polygon fill="url(#gw3km32bpwjtb1)" points="480.7292,351.1139,493.2292,363.6139,480.7292,376.1139,468.2292,363.6139,480.7292,351.1139" style="stroke:#BABDBF;stroke-width:1.0416666666666667;"/><polygon fill="url(#gw3km32bpwjtb1)" points="307.2917,462.3474,319.7917,474.8474,307.2917,487.3474,294.7917,474.8474,307.2917,462.3474" style="stroke:#BABDBF;stroke-width:1.0416666666666667;"/><polygon fill="url(#gw3km32bpwjtb1)" points="717.1875,184.6995,949.4792,184.6995,961.9792,199.9023,949.4792,215.1052,717.1875,215.1052,704.6875,199.9023,717.1875,184.6995" style="stroke:#BABDBF;stroke-width:1.0416666666666667;"/><text fill="#343A40" font-family="Gotham Black" font-size="16.6667" lengthAdjust="spacing" textLength="29.1667" x="842.7083" y="236.3047">yes</text><text fill="#343A40" font-family="Gotham Black" font-size="16.6667" lengthAdjust="spacing" textLength="221.875" x="722.3958" y="205.899">Error = Invalid start time ?</text><rect fill="url(#gw3km32bpwjtb0)" height="42.9057" rx="4.1667" ry="4.1667" style="stroke:#2FA4E7;stroke-width:1.0416666666666667;" width="158.3333" x="754.1667" y="266.3442"/><text fill="#FFFFFF" font-family="Gotham Black" font-size="16.6667" lengthAdjust="spacing" textLength="135.4167" x="765.625" y="293.7937">Retry operation</text><polygon fill="url(#gw3km32bpwjtb1)" points="995.3125,184.6995,1253.6458,184.6995,1266.1458,199.9023,1253.6458,215.1052,995.3125,215.1052,982.8125,199.9023,995.3125,184.6995" style="stroke:#BABDBF;stroke-width:1.0416666666666667;"/><text fill="#343A40" font-family="Gotham Black" font-size="16.6667" lengthAdjust="spacing" textLength="29.1667" x="1133.8542" y="236.3047">yes</text><text fill="#343A40" font-family="Gotham Black" font-size="16.6667" lengthAdjust="spacing" textLength="247.9167" x="1000.5208" y="205.899">Error != Combined op failed ?</text><rect fill="url(#gw3km32bpwjtb0)" height="42.9057" rx="4.1667" ry="4.1667" style="stroke:#2FA4E7;stroke-width:1.0416666666666667;" width="102.0833" x="1073.4375" y="266.3442"/><text fill="#FFFFFF" font-family="Gotham Black" font-size="16.6667" lengthAdjust="spacing" textLength="79.1667" x="1084.8958" y="293.7937">Log error</text><polygon fill="url(#gw3km32bpwjtb1)" points="659.375,497.7641,671.875,510.2641,659.375,522.7641,646.875,510.2641,659.375,497.7641" style="stroke:#BABDBF;stroke-width:1.0416666666666667;"/><ellipse cx="659.375" cy="555.0557" fill="none" rx="11.4583" ry="11.4583" style="stroke:#2683B9;stroke-width:1.0416666666666667;"/><ellipse cx="659.375" cy="555.0557" fill="none" rx="6.25" ry="6.25" style="stroke:#2683B9;stroke-width:1.0416666666666667;"/><line style="stroke:#2FA4E7;stroke-width:3.125;" x1="659.375" x2="659.375" y1="31.25" y2="52.0833"/><polygon fill="#2FA4E7" points="655.2083,41.6667,659.375,52.0833,663.5417,41.6667,659.375,45.8333" style="stroke:#2FA4E7;stroke-width:1.0416666666666667;"/><line style="stroke:#2FA4E7;stroke-width:3.125;" x1="133.8542" x2="133.8542" y1="309.2499" y2="343.2027"/><polygon fill="#2FA4E7" points="129.6875,332.7861,133.8542,343.2027,138.0208,332.7861,133.8542,336.9527" style="stroke:#2FA4E7;stroke-width:1.0416666666666667;"/><line style="stroke:#2FA4E7;stroke-width:1.5625;stroke-dasharray:7.0,7.0;" x1="246.875" x2="259.375" y1="294.047" y2="294.047"/><polygon fill="#2FA4E7" points="255.2083,368.0903,259.375,378.507,263.5417,368.0903,259.375,372.257" style="stroke:#2FA4E7;stroke-width:1.5625;stroke-dasharray:7.0,7.0;"/><line style="stroke:#2FA4E7;stroke-width:1.5625;stroke-dasharray:7.0,7.0;" x1="259.375" x2="259.375" y1="294.047" y2="439.4307"/><line style="stroke:#2FA4E7;stroke-width:1.5625;stroke-dasharray:7.0,7.0;" x1="259.375" x2="146.3542" y1="439.4307" y2="439.4307"/><polygon fill="#2FA4E7" points="156.7708,435.2641,146.3542,439.4307,156.7708,443.5974,152.6042,439.4307" style="stroke:#2FA4E7;stroke-width:1.0416666666666667;"/><line style="stroke:#2FA4E7;stroke-width:3.125;" x1="133.8542" x2="133.8542" y1="406.0974" y2="426.9307"/><polygon fill="#2FA4E7" points="129.6875,416.5141,133.8542,426.9307,138.0208,416.5141,133.8542,420.6807" style="stroke:#2FA4E7;stroke-width:1.0416666666666667;"/><line style="stroke:#2FA4E7;stroke-width:3.125;" x1="133.8542" x2="133.8542" y1="242.3859" y2="278.8442"/><polygon fill="#2FA4E7" points="129.6875,268.4275,133.8542,278.8442,138.0208,268.4275,133.8542,272.5942" style="stroke:#2FA4E7;stroke-width:1.0416666666666667;"/><line style="stroke:#2FA4E7;stroke-width:3.125;" x1="480.7292" x2="480.7292" y1="229.8859" y2="263.8387"/><polygon fill="#2FA4E7" points="476.5625,253.422,480.7292,263.8387,484.8958,253.422,480.7292,257.5887" style="stroke:#2FA4E7;stroke-width:1.0416666666666667;"/><line style="stroke:#2FA4E7;stroke-width:1.5625;stroke-dasharray:7.0,7.0;" x1="597.3958" x2="660.9375" y1="214.683" y2="214.683"/><polygon fill="#2FA4E7" points="656.7708,278.7318,660.9375,289.1485,665.1042,278.7318,660.9375,282.8985" style="stroke:#2FA4E7;stroke-width:1.5625;stroke-dasharray:7.0,7.0;"/><line style="stroke:#2FA4E7;stroke-width:1.5625;stroke-dasharray:7.0,7.0;" x1="660.9375" x2="660.9375" y1="214.683" y2="363.6139"/><line style="stroke:#2FA4E7;stroke-width:1.5625;stroke-dasharray:7.0,7.0;" x1="660.9375" x2="493.2292" y1="363.6139" y2="363.6139"/><polygon fill="#2FA4E7" points="503.6458,359.4472,493.2292,363.6139,503.6458,367.7806,499.4792,363.6139" style="stroke:#2FA4E7;stroke-width:1.0416666666666667;"/><line style="stroke:#2FA4E7;stroke-width:3.125;" x1="480.7292" x2="480.7292" y1="306.7444" y2="351.1139"/><polygon fill="#2FA4E7" points="476.5625,340.6972,480.7292,351.1139,484.8958,340.6972,480.7292,344.8639" style="stroke:#2FA4E7;stroke-width:1.0416666666666667;"/><line style="stroke:#2FA4E7;stroke-width:3.125;" x1="144.2708" x2="133.8542" y1="173.8607" y2="173.8607"/><line style="stroke:#2FA4E7;stroke-width:3.125;" x1="133.8542" x2="133.8542" y1="173.8607" y2="199.4802"/><polygon fill="#2FA4E7" points="129.6875,189.0635,133.8542,199.4802,138.0208,189.0635,133.8542,193.2302" style="stroke:#2FA4E7;stroke-width:1.0416666666666667;"/><line style="stroke:#2FA4E7;stroke-width:3.125;" x1="470.3125" x2="480.7292" y1="173.8607" y2="173.8607"/><line style="stroke:#2FA4E7;stroke-width:3.125;" x1="480.7292" x2="480.7292" y1="173.8607" y2="199.4802"/><polygon fill="#2FA4E7" points="476.5625,189.0635,480.7292,199.4802,484.8958,189.0635,480.7292,193.2302" style="stroke:#2FA4E7;stroke-width:1.0416666666666667;"/><line style="stroke:#2FA4E7;stroke-width:3.125;" x1="133.8542" x2="133.8542" y1="451.9307" y2="474.8474"/><line style="stroke:#2FA4E7;stroke-width:3.125;" x1="133.8542" x2="294.7917" y1="474.8474" y2="474.8474"/><polygon fill="#2FA4E7" points="284.375,470.6807,294.7917,474.8474,284.375,479.0141,288.5417,474.8474" style="stroke:#2FA4E7;stroke-width:1.0416666666666667;"/><line style="stroke:#2FA4E7;stroke-width:3.125;" x1="480.7292" x2="480.7292" y1="376.1139" y2="474.8474"/><line style="stroke:#2FA4E7;stroke-width:3.125;" x1="480.7292" x2="319.7917" y1="474.8474" y2="474.8474"/><polygon fill="#2FA4E7" points="330.2083,470.6807,319.7917,474.8474,330.2083,479.0141,326.0417,474.8474" style="stroke:#2FA4E7;stroke-width:1.0416666666666667;"/><line style="stroke:#2FA4E7;stroke-width:3.125;" x1="833.3333" x2="833.3333" y1="215.1052" y2="266.3442"/><polygon fill="#2FA4E7" points="829.1667,255.9275,833.3333,266.3442,837.5,255.9275,833.3333,260.0942" style="stroke:#2FA4E7;stroke-width:1.0416666666666667;"/><line style="stroke:#2FA4E7;stroke-width:3.125;" x1="833.3333" x2="833.3333" y1="309.2499" y2="387.3749"/><polygon fill="#2FA4E7" points="829.1667,376.9582,833.3333,387.3749,837.5,376.9582,833.3333,381.1249" style="stroke:#2FA4E7;stroke-width:1.0416666666666667;"/><line style="stroke:#2FA4E7;stroke-width:3.125;" x1="1124.4792" x2="1124.4792" y1="215.1052" y2="266.3442"/><polygon fill="#2FA4E7" points="1120.3125,255.9275,1124.4792,266.3442,1128.6458,255.9275,1124.4792,260.0942" style="stroke:#2FA4E7;stroke-width:1.0416666666666667;"/><line style="stroke:#2FA4E7;stroke-width:3.125;" x1="1124.4792" x2="1124.4792" y1="309.2499" y2="387.3749"/><polygon fill="#2FA4E7" points="1120.3125,376.9582,1124.4792,387.3749,1128.6458,376.9582,1124.4792,381.1249" style="stroke:#2FA4E7;stroke-width:1.0416666666666667;"/><line style="stroke:#2FA4E7;stroke-width:3.125;" x1="961.9792" x2="982.8125" y1="199.9023" y2="199.9023"/><polygon fill="#2FA4E7" points="972.3958,195.7357,982.8125,199.9023,972.3958,204.069,976.5625,199.9023" style="stroke:#2FA4E7;stroke-width:1.0416666666666667;"/><line style="stroke:#2FA4E7;stroke-width:3.125;" x1="705.2083" x2="833.3333" y1="133.0383" y2="133.0383"/><line style="stroke:#2FA4E7;stroke-width:3.125;" x1="833.3333" x2="833.3333" y1="133.0383" y2="184.6995"/><polygon fill="#2FA4E7" points="829.1667,174.2828,833.3333,184.6995,837.5,174.2828,833.3333,178.4495" style="stroke:#2FA4E7;stroke-width:1.0416666666666667;"/><line style="stroke:#2FA4E7;stroke-width:1.5625;stroke-dasharray:7.0,7.0;" x1="1266.1458" x2="1280.7292" y1="199.9023" y2="199.9023"/><line style="stroke:#2FA4E7;stroke-width:1.5625;stroke-dasharray:7.0,7.0;" x1="1280.7292" x2="1280.7292" y1="199.9023" y2="273.0164"/><line style="stroke:#2FA4E7;stroke-width:1.5625;stroke-dasharray:7.0,7.0;" x1="1280.7292" x2="1280.7292" y1="273.0164" y2="387.3749"/><polygon fill="#2FA4E7" points="1276.5625,376.9582,1280.7292,387.3749,1284.8958,376.9582,1280.7292,381.1249" style="stroke:#2FA4E7;stroke-width:1.0416666666666667;"/><line style="stroke:#2FA4E7;stroke-width:3.125;" x1="833.3333" x2="1280.7292" y1="387.3749" y2="387.3749"/><line style="stroke:#2FA4E7;stroke-width:3.125;" x1="613.5417" x2="307.2917" y1="133.0383" y2="133.0383"/><line style="stroke:#2FA4E7;stroke-width:3.125;" x1="307.2917" x2="307.2917" y1="133.0383" y2="158.6578"/><polygon fill="#2FA4E7" points="303.125,148.2412,307.2917,158.6578,311.4583,148.2412,307.2917,152.4078" style="stroke:#2FA4E7;stroke-width:1.0416666666666667;"/><line style="stroke:#2FA4E7;stroke-width:3.125;" x1="307.2917" x2="307.2917" y1="487.3474" y2="510.2641"/><line style="stroke:#2FA4E7;stroke-width:3.125;" x1="307.2917" x2="646.875" y1="510.2641" y2="510.2641"/><polygon fill="#2FA4E7" points="636.4583,506.0974,646.875,510.2641,636.4583,514.4307,640.625,510.2641" style="stroke:#2FA4E7;stroke-width:1.0416666666666667;"/><line style="stroke:#2FA4E7;stroke-width:3.125;" x1="1011.4583" x2="1011.4583" y1="387.3749" y2="510.2641"/><line style="stroke:#2FA4E7;stroke-width:3.125;" x1="1011.4583" x2="671.875" y1="510.2641" y2="510.2641"/><polygon fill="#2FA4E7" points="682.2917,506.0974,671.875,510.2641,682.2917,514.4307,678.125,510.2641" style="stroke:#2FA4E7;stroke-width:1.0416666666666667;"/><line style="stroke:#2FA4E7;stroke-width:3.125;" x1="659.375" x2="659.375" y1="94.989" y2="117.8355"/><polygon fill="#2FA4E7" points="655.2083,107.4188,659.375,117.8355,663.5417,107.4188,659.375,111.5855" style="stroke:#2FA4E7;stroke-width:1.0416666666666667;"/><line style="stroke:#2FA4E7;stroke-width:3.125;" x1="659.375" x2="659.375" y1="522.7641" y2="543.5974"/><polygon fill="#2FA4E7" points="655.2083,533.1807,659.375,543.5974,663.5417,533.1807,659.375,537.3474" style="stroke:#2FA4E7;stroke-width:1.0416666666666667;"/><!--SRC=[dL9DJyCm3BtdLtYtxR035mwR1k8R98J4nc4IGYYq3etMniLnnyQl9sctPKYC0pcqRlpy_9xTdXHO8MJ8JOdQAR-mhjQiAxX4evjIhid9p7uX71tl9VEKVD2X_eQa2DVdfSuMIddHB6eqqqi4iHMEbJNGls8cXjC1X9OE-eu62iA9gQnXHYT0DR8MImuc82imJ5Lul_8gbQtHTtNnZ6QVLhAY0pxDGGYcy_4k7QaBxO7neq4lcCFjsVJn05V75vMtg1_tZCBQ-Sfw7yL5JvpQOEbnzp5yphKlC7yPdYI0owrHMsYoljMORBT6WjW6_rBfIAnPRt1aziQMKLMN6CF_oMkZJkIkRThT1ExSKfSsXtR3xHmERMOQHhPEoiOx-zPis7eJkA3gpRgm5wh1Q5k6w03TFRq3nh94f7xpit7GFiD_IBLItm00]--></g></svg>