<?xml version="1.0" encoding="us-ascii" standalone="no"?><svg xmlns="http://www.w3.org/2000/svg" xmlns:xlink="http://www.w3.org/1999/xlink" contentStyleType="text/css" height="587.5px" preserveAspectRatio="none" style="width:941px;height:587px;" version="1.1" viewBox="0 0 941 587" width="941.6667px" zoomAndPan="magnify"><defs><linearGradient id="g10sbw71wx8in20" x1="50%" x2="50%" y1="0%" y2="100%"><stop offset="0%" stop-color="#59B6EC"/><stop offset="100%" stop-color="#2FA4E7"/></linearGradient><linearGradient id="g10sbw71wx8in21" x1="50%" x2="50%" y1="0%" y2="100%"><stop offset="0%" stop-color="#FFFFFF"/><stop offset="100%" stop-color="#EDF0F2"/></linearGradient></defs><g><ellipse cx="492.5781" cy="20.8333" fill="#033C73" rx="10.4167" ry="10.4167" style="stroke:#2683B9;stroke-width:1.0416666666666667;"/><rect fill="url(#g10sbw71wx8in20)" height="42.9057" rx="4.1667" ry="4.1667" style="stroke:#2FA4E7;stroke-width:1.0416666666666667;" width="109.375" x="437.8906" y="52.0833"/><text fill="#FFFFFF" font-family="Gotham Black" font-size="16.6667" lengthAdjust="spacing" textLength="86.4583" x="449.349" y="79.5329">Save time</text><polygon fill="url(#g10sbw71wx8in21)" points="459.2448,117.8355,525.9115,117.8355,538.4115,133.0383,525.9115,148.2412,459.2448,148.2412,446.7448,133.0383,459.2448,117.8355" style="stroke:#BABDBF;stroke-width:1.0416666666666667;"/><text fill="#343A40" font-family="Gotham Black" font-size="16.6667" lengthAdjust="spacing" textLength="56.25" x="464.4531" y="139.035">Error ?</text><text fill="#343A40" font-family="Gotham Black" font-size="16.6667" lengthAdjust="spacing" textLength="20.8333" x="420.7031" y="123.8322">no</text><text fill="#343A40" font-family="Gotham Black" font-size="16.6667" lengthAdjust="spacing" textLength="29.1667" x="543.6198" y="123.8322">yes</text><polygon fill="url(#g10sbw71wx8in21)" points="166.9271,158.6578,339.8438,158.6578,352.3438,173.8607,339.8438,189.0635,166.9271,189.0635,154.4271,173.8607,166.9271,158.6578" style="stroke:#BABDBF;stroke-width:1.0416666666666667;"/><text fill="#343A40" font-family="Gotham Black" font-size="16.6667" lengthAdjust="spacing" textLength="162.5" x="172.1354" y="179.8574">current operation ?</text><text fill="#343A40" font-family="Gotham Black" font-size="16.6667" lengthAdjust="spacing" textLength="109.375" x="39.8438" y="164.6545">tx from tx_rx</text><text fill="#343A40" font-family="Gotham Black" font-size="16.6667" lengthAdjust="spacing" textLength="45.8333" x="357.5521" y="164.6545">other</text><rect fill="url(#g10sbw71wx8in20)" height="42.9057" rx="4.1667" ry="4.1667" style="stroke:#2FA4E7;stroke-width:1.0416666666666667;" width="202.0833" x="32.8125" y="199.4802"/><text fill="#FFFFFF" font-family="Gotham Black" font-size="16.6667" lengthAdjust="spacing" textLength="179.1667" x="44.2708" y="226.9297">Switch from TX to RX</text><rect fill="url(#g10sbw71wx8in20)" height="62.8947" rx="4.1667" ry="4.1667" style="stroke:#2FA4E7;stroke-width:1.0416666666666667;" width="200" x="33.8542" y="343.2027"/><text fill="#FFFFFF" font-family="Gotham Black" font-size="16.6667" lengthAdjust="spacing" textLength="101.0417" x="45.3125" y="370.6523">Start HARQ</text><text fill="#FFFFFF" font-family="Gotham Black" font-size="16.6667" lengthAdjust="spacing" textLength="177.0833" x="45.3125" y="390.6413">retransmission timer</text><polygon fill="url(#g10sbw71wx8in21)" points="33.3333,278.8442,234.375,278.8442,246.875,294.047,234.375,309.2499,33.3333,309.2499,20.8333,294.047,33.3333,278.8442" style="stroke:#BABDBF;stroke-width:1.0416666666666667;"/><text fill="#343A40" font-family="Gotham Black" font-size="16.6667" lengthAdjust="spacing" textLength="29.1667" x="143.2292" y="330.4494">yes</text><text fill="#343A40" font-family="Gotham Black" font-size="16.6667" lengthAdjust="spacing" textLength="190.625" x="38.5417" y="300.0437">has requested HARQ ?</text><text fill="#343A40" font-family="Gotham Black" font-size="16.6667" lengthAdjust="spacing" textLength="20.8333" x="252.0833" y="284.8409">no</text><polygon fill="url(#g10sbw71wx8in21)" points="133.8542,436.9253,146.3542,449.4253,133.8542,461.9253,121.3542,449.4253,133.8542,436.9253" style="stroke:#BABDBF;stroke-width:1.0416666666666667;"/><rect fill="url(#g10sbw71wx8in20)" height="82.8837" rx="4.1667" ry="4.1667" style="stroke:#2FA4E7;stroke-width:1.0416666666666667;" width="130.2083" x="307.8125" y="263.8387"/><text fill="#FFFFFF" font-family="Gotham Black" font-size="16.6667" lengthAdjust="spacing" textLength="107.2917" x="319.2708" y="291.2882">notify queue</text><text fill="#FFFFFF" font-family="Gotham Black" font-size="16.6667" lengthAdjust="spacing" textLength="104.1667" x="319.2708" y="311.2773">of operation</text><text fill="#FFFFFF" font-family="Gotham Black" font-size="16.6667" lengthAdjust="spacing" textLength="96.875" x="319.2708" y="331.2663">completion</text><polygon fill="url(#g10sbw71wx8in21)" points="292.7083,199.4802,453.125,199.4802,465.625,214.683,453.125,229.8859,292.7083,229.8859,280.2083,214.683,292.7083,199.4802" style="stroke:#BABDBF;stroke-width:1.0416666666666667;"/><text fill="#343A40" font-family="Gotham Black" font-size="16.6667" lengthAdjust="spacing" textLength="97.9167" x="382.2917" y="251.0854">from queue</text><text fill="#343A40" font-family="Gotham Black" font-size="16.6667" lengthAdjust="spacing" textLength="150" x="297.9167" y="220.6797">operation origin ?</text><text fill="#343A40" font-family="Gotham Black" font-size="16.6667" lengthAdjust="spacing" textLength="45.8333" x="470.8333" y="205.4769">other</text><polygon fill="url(#g10sbw71wx8in21)" points="372.9167,391.0919,385.4167,403.5919,372.9167,416.0919,360.4167,403.5919,372.9167,391.0919" style="stroke:#BABDBF;stroke-width:1.0416666666666667;"/><polygon fill="url(#g10sbw71wx8in21)" points="253.3854,472.3419,265.8854,484.8419,253.3854,497.3419,240.8854,484.8419,253.3854,472.3419" style="stroke:#BABDBF;stroke-width:1.0416666666666667;"/><polygon fill="url(#g10sbw71wx8in21)" points="533.3333,184.6995,643.75,184.6995,656.25,199.9023,643.75,215.1052,533.3333,215.1052,520.8333,199.9023,533.3333,184.6995" style="stroke:#BABDBF;stroke-width:1.0416666666666667;"/><text fill="#343A40" font-family="Gotham Black" font-size="16.6667" lengthAdjust="spacing" textLength="58.3333" x="597.9167" y="236.3047">Invalid</text><text fill="#343A40" font-family="Gotham Black" font-size="16.6667" lengthAdjust="spacing" textLength="84.375" x="597.9167" y="256.2937">start time</text><text fill="#343A40" font-family="Gotham Black" font-size="16.6667" lengthAdjust="spacing" textLength="100" x="538.5417" y="205.899">Error type ?</text><rect fill="url(#g10sbw71wx8in20)" height="42.9057" rx="4.1667" ry="4.1667" style="stroke:#2FA4E7;stroke-width:1.0416666666666667;" width="158.3333" x="509.375" y="286.3332"/><text fill="#FFFFFF" font-family="Gotham Black" font-size="16.6667" lengthAdjust="spacing" textLength="135.4167" x="520.8333" y="313.7828">Retry operation</text><polygon fill="url(#g10sbw71wx8in21)" points="715.625,184.6995,826.0417,184.6995,838.5417,199.9023,826.0417,215.1052,715.625,215.1052,703.125,199.9023,715.625,184.6995" style="stroke:#BABDBF;stroke-width:1.0416666666666667;"/><text fill="#343A40" font-family="Gotham Black" font-size="16.6667" lengthAdjust="spacing" textLength="119.7917" x="780.2083" y="236.3047">!Combined op</text><text fill="#343A40" font-family="Gotham Black" font-size="16.6667" lengthAdjust="spacing" textLength="48.9583" x="780.2083" y="256.2937">failed</text><text fill="#343A40" font-family="Gotham Black" font-size="16.6667" lengthAdjust="spacing" textLength="100" x="720.8333" y="205.899">Error type ?</text><rect fill="url(#g10sbw71wx8in20)" height="42.9057" rx="4.1667" ry="4.1667" style="stroke:#2FA4E7;stroke-width:1.0416666666666667;" width="102.0833" x="719.7917" y="286.3332"/><text fill="#FFFFFF" font-family="Gotham Black" font-size="16.6667" lengthAdjust="spacing" textLength="79.1667" x="731.25" y="313.7828">Log error</text><polygon fill="url(#g10sbw71wx8in21)" points="492.5781,507.7586,505.0781,520.2586,492.5781,532.7586,480.0781,520.2586,492.5781,507.7586" style="stroke:#BABDBF;stroke-width:1.0416666666666667;"/><ellipse cx="492.5781" cy="565.0503" fill="none" rx="11.4583" ry="11.4583" style="stroke:#2683B9;stroke-width:1.0416666666666667;"/><ellipse cx="492.5781" cy="565.0503" fill="none" rx="6.25" ry="6.25" style="stroke:#2683B9;stroke-width:1.0416666666666667;"/><line style="stroke:#2FA4E7;stroke-width:3.125;" x1="492.5781" x2="492.5781" y1="31.25" y2="52.0833"/><polygon fill="#2FA4E7" points="488.4115,41.6667,492.5781,52.0833,496.7448,41.6667,492.5781,45.8333" style="stroke:#2FA4E7;stroke-width:1.0416666666666667;"/><line style="stroke:#2FA4E7;stroke-width:3.125;" x1="133.8542" x2="133.8542" y1="309.2499" y2="343.2027"/><polygon fill="#2FA4E7" points="129.6875,332.7861,133.8542,343.2027,138.0208,332.7861,133.8542,336.9527" style="stroke:#2FA4E7;stroke-width:1.0416666666666667;"/><line style="stroke:#2FA4E7;stroke-width:1.5625;stroke-dasharray:7.0,7.0;" x1="246.875" x2="259.375" y1="294.047" y2="294.047"/><polygon fill="#2FA4E7" points="255.2083,368.0903,259.375,378.507,263.5417,368.0903,259.375,372.257" style="stroke:#2FA4E7;stroke-width:1.5625;stroke-dasharray:7.0,7.0;"/><line style="stroke:#2FA4E7;stroke-width:1.5625;stroke-dasharray:7.0,7.0;" x1="259.375" x2="259.375" y1="294.047" y2="449.4253"/><line style="stroke:#2FA4E7;stroke-width:1.5625;stroke-dasharray:7.0,7.0;" x1="259.375" x2="146.3542" y1="449.4253" y2="449.4253"/><polygon fill="#2FA4E7" points="156.7708,445.2586,146.3542,449.4253,156.7708,453.5919,152.6042,449.4253" style="stroke:#2FA4E7;stroke-width:1.0416666666666667;"/><line style="stroke:#2FA4E7;stroke-width:3.125;" x1="133.8542" x2="133.8542" y1="406.0974" y2="436.9253"/><polygon fill="#2FA4E7" points="129.6875,426.5086,133.8542,436.9253,138.0208,426.5086,133.8542,430.6753" style="stroke:#2FA4E7;stroke-width:1.0416666666666667;"/><line style="stroke:#2FA4E7;stroke-width:3.125;" x1="133.8542" x2="133.8542" y1="242.3859" y2="278.8442"/><polygon fill="#2FA4E7" points="129.6875,268.4275,133.8542,278.8442,138.0208,268.4275,133.8542,272.5942" style="stroke:#2FA4E7;stroke-width:1.0416666666666667;"/><line style="stroke:#2FA4E7;stroke-width:3.125;" x1="372.9167" x2="372.9167" y1="229.8859" y2="263.8387"/><polygon fill="#2FA4E7" points="368.75,253.422,372.9167,263.8387,377.0833,253.422,372.9167,257.5887" style="stroke:#2FA4E7;stroke-width:1.0416666666666667;"/><line style="stroke:#2FA4E7;stroke-width:1.5625;stroke-dasharray:7.0,7.0;" x1="465.625" x2="478.125" y1="214.683" y2="214.683"/><polygon fill="#2FA4E7" points="473.9583,298.7208,478.125,309.1375,482.2917,298.7208,478.125,302.8875" style="stroke:#2FA4E7;stroke-width:1.5625;stroke-dasharray:7.0,7.0;"/><line style="stroke:#2FA4E7;stroke-width:1.5625;stroke-dasharray:7.0,7.0;" x1="478.125" x2="478.125" y1="214.683" y2="403.5919"/><line style="stroke:#2FA4E7;stroke-width:1.5625;stroke-dasharray:7.0,7.0;" x1="478.125" x2="385.4167" y1="403.5919" y2="403.5919"/><polygon fill="#2FA4E7" points="395.8333,399.4253,385.4167,403.5919,395.8333,407.7586,391.6667,403.5919" style="stroke:#2FA4E7;stroke-width:1.0416666666666667;"/><line style="stroke:#2FA4E7;stroke-width:3.125;" x1="372.9167" x2="372.9167" y1="346.7224" y2="391.0919"/><polygon fill="#2FA4E7" points="368.75,380.6753,372.9167,391.0919,377.0833,380.6753,372.9167,384.8419" style="stroke:#2FA4E7;stroke-width:1.0416666666666667;"/><line style="stroke:#2FA4E7;stroke-width:3.125;" x1="154.4271" x2="133.8542" y1="173.8607" y2="173.8607"/><line style="stroke:#2FA4E7;stroke-width:3.125;" x1="133.8542" x2="133.8542" y1="173.8607" y2="199.4802"/><polygon fill="#2FA4E7" points="129.6875,189.0635,133.8542,199.4802,138.0208,189.0635,133.8542,193.2302" style="stroke:#2FA4E7;stroke-width:1.0416666666666667;"/><line style="stroke:#2FA4E7;stroke-width:3.125;" x1="352.3438" x2="372.9167" y1="173.8607" y2="173.8607"/><line style="stroke:#2FA4E7;stroke-width:3.125;" x1="372.9167" x2="372.9167" y1="173.8607" y2="199.4802"/><polygon fill="#2FA4E7" points="368.75,189.0635,372.9167,199.4802,377.0833,189.0635,372.9167,193.2302" style="stroke:#2FA4E7;stroke-width:1.0416666666666667;"/><line style="stroke:#2FA4E7;stroke-width:3.125;" x1="133.8542" x2="133.8542" y1="461.9253" y2="484.8419"/><line style="stroke:#2FA4E7;stroke-width:3.125;" x1="133.8542" x2="240.8854" y1="484.8419" y2="484.8419"/><polygon fill="#2FA4E7" points="230.4688,480.6753,240.8854,484.8419,230.4688,489.0086,234.6354,484.8419" style="stroke:#2FA4E7;stroke-width:1.0416666666666667;"/><line style="stroke:#2FA4E7;stroke-width:3.125;" x1="372.9167" x2="372.9167" y1="416.0919" y2="484.8419"/><line style="stroke:#2FA4E7;stroke-width:3.125;" x1="372.9167" x2="265.8854" y1="484.8419" y2="484.8419"/><polygon fill="#2FA4E7" points="276.3021,480.6753,265.8854,484.8419,276.3021,489.0086,272.1354,484.8419" style="stroke:#2FA4E7;stroke-width:1.0416666666666667;"/><line style="stroke:#2FA4E7;stroke-width:3.125;" x1="588.5417" x2="588.5417" y1="215.1052" y2="286.3332"/><polygon fill="#2FA4E7" points="584.375,275.9165,588.5417,286.3332,592.7083,275.9165,588.5417,280.0832" style="stroke:#2FA4E7;stroke-width:1.0416666666666667;"/><line style="stroke:#2FA4E7;stroke-width:3.125;" x1="588.5417" x2="588.5417" y1="329.2389" y2="407.3639"/><polygon fill="#2FA4E7" points="584.375,396.9472,588.5417,407.3639,592.7083,396.9472,588.5417,401.1139" style="stroke:#2FA4E7;stroke-width:1.0416666666666667;"/><line style="stroke:#2FA4E7;stroke-width:3.125;" x1="770.8333" x2="770.8333" y1="215.1052" y2="286.3332"/><polygon fill="#2FA4E7" points="766.6667,275.9165,770.8333,286.3332,775,275.9165,770.8333,280.0832" style="stroke:#2FA4E7;stroke-width:1.0416666666666667;"/><line style="stroke:#2FA4E7;stroke-width:3.125;" x1="770.8333" x2="770.8333" y1="329.2389" y2="407.3639"/><polygon fill="#2FA4E7" points="766.6667,396.9472,770.8333,407.3639,775,396.9472,770.8333,401.1139" style="stroke:#2FA4E7;stroke-width:1.0416666666666667;"/><line style="stroke:#2FA4E7;stroke-width:3.125;" x1="656.25" x2="703.125" y1="199.9023" y2="199.9023"/><polygon fill="#2FA4E7" points="692.7083,195.7357,703.125,199.9023,692.7083,204.069,696.875,199.9023" style="stroke:#2FA4E7;stroke-width:1.0416666666666667;"/><line style="stroke:#2FA4E7;stroke-width:3.125;" x1="538.4115" x2="588.5417" y1="133.0383" y2="133.0383"/><line style="stroke:#2FA4E7;stroke-width:3.125;" x1="588.5417" x2="588.5417" y1="133.0383" y2="184.6995"/><polygon fill="#2FA4E7" points="584.375,174.2828,588.5417,184.6995,592.7083,174.2828,588.5417,178.4495" style="stroke:#2FA4E7;stroke-width:1.0416666666666667;"/><line style="stroke:#2FA4E7;stroke-width:1.5625;stroke-dasharray:7.0,7.0;" x1="838.5417" x2="914.5833" y1="199.9023" y2="199.9023"/><line style="stroke:#2FA4E7;stroke-width:1.5625;stroke-dasharray:7.0,7.0;" x1="914.5833" x2="914.5833" y1="199.9023" y2="283.0109"/><line style="stroke:#2FA4E7;stroke-width:1.5625;stroke-dasharray:7.0,7.0;" x1="914.5833" x2="914.5833" y1="283.0109" y2="407.3639"/><polygon fill="#2FA4E7" points="910.4167,396.9472,914.5833,407.3639,918.75,396.9472,914.5833,401.1139" style="stroke:#2FA4E7;stroke-width:1.0416666666666667;"/><line style="stroke:#2FA4E7;stroke-width:3.125;" x1="588.5417" x2="914.5833" y1="407.3639" y2="407.3639"/><line style="stroke:#2FA4E7;stroke-width:3.125;" x1="446.7448" x2="253.3854" y1="133.0383" y2="133.0383"/><line style="stroke:#2FA4E7;stroke-width:3.125;" x1="253.3854" x2="253.3854" y1="133.0383" y2="158.6578"/><polygon fill="#2FA4E7" points="249.2188,148.2412,253.3854,158.6578,257.5521,148.2412,253.3854,152.4078" style="stroke:#2FA4E7;stroke-width:1.0416666666666667;"/><line style="stroke:#2FA4E7;stroke-width:3.125;" x1="253.3854" x2="253.3854" y1="497.3419" y2="520.2586"/><line style="stroke:#2FA4E7;stroke-width:3.125;" x1="253.3854" x2="480.0781" y1="520.2586" y2="520.2586"/><polygon fill="#2FA4E7" points="469.6615,516.0919,480.0781,520.2586,469.6615,524.4253,473.8281,520.2586" style="stroke:#2FA4E7;stroke-width:1.0416666666666667;"/><line style="stroke:#2FA4E7;stroke-width:3.125;" x1="730.7292" x2="730.7292" y1="407.3639" y2="520.2586"/><line style="stroke:#2FA4E7;stroke-width:3.125;" x1="730.7292" x2="505.0781" y1="520.2586" y2="520.2586"/><polygon fill="#2FA4E7" points="515.4948,516.0919,505.0781,520.2586,515.4948,524.4253,511.3281,520.2586" style="stroke:#2FA4E7;stroke-width:1.0416666666666667;"/><line style="stroke:#2FA4E7;stroke-width:3.125;" x1="492.5781" x2="492.5781" y1="94.989" y2="117.8355"/><polygon fill="#2FA4E7" points="488.4115,107.4188,492.5781,117.8355,496.7448,107.4188,492.5781,111.5855" style="stroke:#2FA4E7;stroke-width:1.0416666666666667;"/><line style="stroke:#2FA4E7;stroke-width:3.125;" x1="492.5781" x2="492.5781" y1="532.7586" y2="553.5919"/><polygon fill="#2FA4E7" points="488.4115,543.1753,492.5781,553.5919,496.7448,543.1753,492.5781,547.3419" style="stroke:#2FA4E7;stroke-width:1.0416666666666667;"/><!--SRC=[XL9DJyCm3BtdLvZRTjY12uTD0l4D4a9Yup298HHQTutMniLnnygl9sdHqawJoA6g_EoNzvvp8ZcM20boNQ2socsChJJh4cumqtKXTsHbONuGJizwO1h1P-tdxqboNxugTB9HoebcKTE5tYA8AN6cJ0QZMsPYk1Y3lzB2oD9OWJy1Icfcj09K8MinP6ERx21ZAa5s7xph9iAPBhwD97c7lIv12ERBsHuEfBbsmFXLenDCuU5o_X9P6tIHg-CBcjkkGPrHM5jN6kU2hE26upLOE8nEmfcyfThbcBvFpcENJKscOh_F2dayq1gD4vkrwVbl3NeJDHu8jYGcQpe81X1bCSW1a51P5HZAXnOE9FtZelth1lT1nWrBKs7K_sYtkZ3fohQFeWsmjyMvZxU9QcVxb4nsbEtacifFO_q-gLhPJ9i2qnxT4wq1mrWaKiVy_3bel_wrKgNKBm00]--></g></svg>