<?xml version="1.0" encoding="us-ascii" standalone="no"?><svg xmlns="http://www.w3.org/2000/svg" xmlns:xlink="http://www.w3.org/1999/xlink" contentStyleType="text/css" height="393.75px" preserveAspectRatio="none" style="width:391px;height:393px;" version="1.1" viewBox="0 0 391 393" width="391.6667px" zoomAndPan="magnify"><defs><linearGradient id="gdp945edul5mk0" x1="50%" x2="50%" y1="0%" y2="100%"><stop offset="0%" stop-color="#59B6EC"/><stop offset="100%" stop-color="#2FA4E7"/></linearGradient><linearGradient id="gdp945edul5mk1" x1="50%" x2="50%" y1="0%" y2="100%"><stop offset="0%" stop-color="#FFFFFF"/><stop offset="100%" stop-color="#EDF0F2"/></linearGradient></defs><g><ellipse cx="180.2083" cy="20.8333" fill="#033C73" rx="10.4167" ry="10.4167" style="stroke:#2683B9;stroke-width:1.0416666666666667;"/><rect fill="url(#gdp945edul5mk0)" height="42.9057" rx="4.1667" ry="4.1667" style="stroke:#2FA4E7;stroke-width:1.0416666666666667;" width="211.4583" x="74.4792" y="52.0833"/><text fill="#FFFFFF" font-family="Gotham Black" font-size="16.6667" lengthAdjust="spacing" textLength="188.5417" x="85.9375" y="79.5329">Save the modem time</text><polygon fill="url(#gdp945edul5mk1)" points="147.3958,117.8355,213.0208,117.8355,225.5208,133.0383,213.0208,148.2412,147.3958,148.2412,134.8958,133.0383,147.3958,117.8355" style="stroke:#BABDBF;stroke-width:1.0416666666666667;"/><text fill="#343A40" font-family="Gotham Black" font-size="16.6667" lengthAdjust="spacing" textLength="55.2083" x="152.6042" y="139.035">error ?</text><text fill="#343A40" font-family="Gotham Black" font-size="16.6667" lengthAdjust="spacing" textLength="29.1667" x="100.5208" y="123.8322">yes</text><text fill="#343A40" font-family="Gotham Black" font-size="16.6667" lengthAdjust="spacing" textLength="20.8333" x="230.7292" y="123.8322">no</text><rect fill="url(#gdp945edul5mk0)" height="42.9057" rx="4.1667" ry="4.1667" style="stroke:#2FA4E7;stroke-width:1.0416666666666667;" width="142.7083" x="11.4583" y="158.6578"/><text fill="#FFFFFF" font-family="Gotham Black" font-size="16.6667" lengthAdjust="spacing" textLength="119.7917" x="22.9167" y="186.1074">Logs the error</text><ellipse cx="82.8125" cy="249.4802" fill="none" rx="11.4583" ry="11.4583" style="stroke:#2683B9;stroke-width:1.0416666666666667;"/><ellipse cx="82.8125" cy="249.4802" fill="none" rx="6.25" ry="6.25" style="stroke:#2683B9;stroke-width:1.0416666666666667;"/><rect fill="url(#gdp945edul5mk0)" height="82.8837" rx="4.1667" ry="4.1667" style="stroke:#2FA4E7;stroke-width:1.0416666666666667;" width="141.6667" x="206.7708" y="158.6578"/><text fill="#FFFFFF" font-family="Gotham Black" font-size="16.6667" lengthAdjust="spacing" textLength="118.75" x="218.2292" y="186.1074">Do something</text><text fill="#FFFFFF" font-family="Gotham Black" font-size="16.6667" lengthAdjust="spacing" textLength="84.375" x="235.4167" y="206.0964">related to</text><text fill="#FFFFFF" font-family="Gotham Black" font-size="16.6667" lengthAdjust="spacing" textLength="115.625" x="219.7917" y="226.0854">the operation</text><rect fill="url(#gdp945edul5mk0)" height="62.8947" rx="4.1667" ry="4.1667" style="stroke:#2FA4E7;stroke-width:1.0416666666666667;" width="205.2083" x="175" y="277.9999"/><text fill="#FFFFFF" font-family="Gotham Black" font-size="16.6667" lengthAdjust="spacing" textLength="182.2917" x="186.4583" y="305.4494">Notify the queue that</text><text fill="#FFFFFF" font-family="Gotham Black" font-size="16.6667" lengthAdjust="spacing" textLength="138.5417" x="208.3333" y="325.4384">the PHY is ready</text><ellipse cx="277.6042" cy="372.1446" fill="none" rx="10.4167" ry="10.4167" style="stroke:#033C73;stroke-width:1.5625;"/><line style="stroke:#033C73;stroke-width:2.604166666666667;" x1="271.1592" x2="284.0492" y1="365.6996" y2="378.5896"/><line style="stroke:#033C73;stroke-width:2.604166666666667;" x1="284.0492" x2="271.1592" y1="365.6996" y2="378.5896"/><line style="stroke:#2FA4E7;stroke-width:3.125;" x1="180.2083" x2="180.2083" y1="31.25" y2="52.0833"/><polygon fill="#2FA4E7" points="176.0417,41.6667,180.2083,52.0833,184.375,41.6667,180.2083,45.8333" style="stroke:#2FA4E7;stroke-width:1.0416666666666667;"/><line style="stroke:#2FA4E7;stroke-width:3.125;" x1="82.8125" x2="82.8125" y1="201.5635" y2="238.0219"/><polygon fill="#2FA4E7" points="78.6458,227.6052,82.8125,238.0219,86.9792,227.6052,82.8125,231.7719" style="stroke:#2FA4E7;stroke-width:1.0416666666666667;"/><line style="stroke:#2FA4E7;stroke-width:3.125;" x1="277.6042" x2="277.6042" y1="241.5415" y2="277.9999"/><polygon fill="#2FA4E7" points="273.4375,267.5832,277.6042,277.9999,281.7708,267.5832,277.6042,271.7499" style="stroke:#2FA4E7;stroke-width:1.0416666666666667;"/><line style="stroke:#2FA4E7;stroke-width:3.125;" x1="277.6042" x2="277.6042" y1="340.8946" y2="361.7279"/><polygon fill="#2FA4E7" points="273.4375,351.3112,277.6042,361.7279,281.7708,351.3112,277.6042,355.4779" style="stroke:#2FA4E7;stroke-width:1.0416666666666667;"/><line style="stroke:#2FA4E7;stroke-width:3.125;" x1="134.8958" x2="82.8125" y1="133.0383" y2="133.0383"/><line style="stroke:#2FA4E7;stroke-width:3.125;" x1="82.8125" x2="82.8125" y1="133.0383" y2="158.6578"/><polygon fill="#2FA4E7" points="78.6458,148.2412,82.8125,158.6578,86.9792,148.2412,82.8125,152.4078" style="stroke:#2FA4E7;stroke-width:1.0416666666666667;"/><line style="stroke:#2FA4E7;stroke-width:3.125;" x1="225.5208" x2="277.6042" y1="133.0383" y2="133.0383"/><line style="stroke:#2FA4E7;stroke-width:3.125;" x1="277.6042" x2="277.6042" y1="133.0383" y2="158.6578"/><polygon fill="#2FA4E7" points="273.4375,148.2412,277.6042,158.6578,281.7708,148.2412,277.6042,152.4078" style="stroke:#2FA4E7;stroke-width:1.0416666666666667;"/><line style="stroke:#2FA4E7;stroke-width:3.125;" x1="180.2083" x2="180.2083" y1="94.989" y2="117.8355"/><polygon fill="#2FA4E7" points="176.0417,107.4188,180.2083,117.8355,184.375,107.4188,180.2083,111.5855" style="stroke:#2FA4E7;stroke-width:1.0416666666666667;"/><!--SRC=[POunJyD038Nt-nLcIqSMXcP0e0ewe0gfB8nMyvASUcU7EmSHVZsNAm8aB7dmUz-pVMKZ8kY4D0Umk7psCd7YI3lqF0TxKB6Z_mHTt_mnkr_pm2N_g3OM-JxmwUp-So_uiBlW1uaGAyV4a0fcdCnjZ_mEAczGr0wHp4UqplVK82LDTBjPJQ5cGTuuAhLzqY7NH2NQAcRJoI5aK2FwpUsKiaROw6MeIa9WGqUcTLnNw8J4vbLQTmaTr7o_LEzjnho-nlQ3F-zVoUUoYBlbSXZIkTA-Try0]--></g></svg>