<?xml version="1.0" encoding="us-ascii" standalone="no"?><svg xmlns="http://www.w3.org/2000/svg" xmlns:xlink="http://www.w3.org/1999/xlink" contentStyleType="text/css" height="715.625px" preserveAspectRatio="none" style="width:583px;height:715px;" version="1.1" viewBox="0 0 583 715" width="583.3333px" zoomAndPan="magnify"><defs><linearGradient id="gzl5iwht11zwm0" x1="50%" x2="50%" y1="0%" y2="100%"><stop offset="0%" stop-color="#59B6EC"/><stop offset="100%" stop-color="#2FA4E7"/></linearGradient><linearGradient id="gzl5iwht11zwm1" x1="50%" x2="50%" y1="0%" y2="100%"><stop offset="0%" stop-color="#FFFFFF"/><stop offset="100%" stop-color="#EDF0F2"/></linearGradient></defs><g><ellipse cx="373.6979" cy="20.8333" fill="#033C73" rx="10.4167" ry="10.4167" style="stroke:#2683B9;stroke-width:1.0416666666666667;"/><rect fill="url(#gzl5iwht11zwm0)" height="42.9057" rx="4.1667" ry="4.1667" style="stroke:#2FA4E7;stroke-width:1.0416666666666667;" width="106.25" x="320.5729" y="52.0833"/><text fill="#FFFFFF" font-family="Gotham Black" font-size="16.6667" lengthAdjust="spacing" textLength="83.3333" x="332.0313" y="79.5329">save time</text><rect fill="url(#gzl5iwht11zwm0)" height="42.9057" rx="4.1667" ry="4.1667" style="stroke:#2FA4E7;stroke-width:1.0416666666666667;" width="145.8333" x="300.7813" y="115.8223"/><text fill="#FFFFFF" font-family="Gotham Black" font-size="16.6667" lengthAdjust="spacing" textLength="122.9167" x="312.2396" y="143.2719">optimize node</text><polygon fill="url(#gzl5iwht11zwm1)" points="290.8854,181.5745,456.5104,181.5745,469.0104,196.7773,456.5104,211.9802,290.8854,211.9802,278.3854,196.7773,290.8854,181.5745" style="stroke:#BABDBF;stroke-width:1.0416666666666667;"/><text fill="#343A40" font-family="Gotham Black" font-size="16.6667" lengthAdjust="spacing" textLength="155.2083" x="296.0938" y="202.774">PHY header type ?</text><text fill="#343A40" font-family="Gotham Black" font-size="16.6667" lengthAdjust="spacing" textLength="54.1667" x="219.0104" y="187.5712">type 2</text><text fill="#343A40" font-family="Gotham Black" font-size="16.6667" lengthAdjust="spacing" textLength="51.0417" x="474.2188" y="187.5712">type 1</text><rect fill="url(#gzl5iwht11zwm0)" height="42.9057" rx="4.1667" ry="4.1667" style="stroke:#2FA4E7;stroke-width:1.0416666666666667;" width="116.6667" x="159.8958" y="222.3969"/><text fill="#FFFFFF" font-family="Gotham Black" font-size="16.6667" lengthAdjust="spacing" textLength="93.75" x="171.3542" y="249.8464">get header</text><polygon fill="url(#gzl5iwht11zwm1)" points="135.4167,416.866,301.0417,416.866,313.5417,432.0689,301.0417,447.2717,135.4167,447.2717,122.9167,432.0689,135.4167,416.866" style="stroke:#BABDBF;stroke-width:1.0416666666666667;"/><text fill="#343A40" font-family="Gotham Black" font-size="16.6667" lengthAdjust="spacing" textLength="155.2083" x="140.625" y="438.0656">feedback format ?</text><text fill="#343A40" font-family="Gotham Black" font-size="16.6667" lengthAdjust="spacing" textLength="107.2917" x="10.4167" y="422.8628">format 1 or 6</text><text fill="#343A40" font-family="Gotham Black" font-size="16.6667" lengthAdjust="spacing" textLength="45.8333" x="318.75" y="422.8628">other</text><rect fill="url(#gzl5iwht11zwm0)" height="42.9057" rx="4.1667" ry="4.1667" style="stroke:#2FA4E7;stroke-width:1.0416666666666667;" width="161.4583" x="31.7708" y="457.6884"/><text fill="#FFFFFF" font-family="Gotham Black" font-size="16.6667" font-weight="bold" lengthAdjust="spacing" textLength="138.5417" x="43.2292" y="485.1379">HARQ response</text><rect fill="url(#gzl5iwht11zwm0)" height="42.9057" rx="4.1667" ry="4.1667" style="stroke:#2FA4E7;stroke-width:1.0416666666666667;" width="170.8333" x="238.5417" y="457.6884"/><text fill="#FFFFFF" font-family="Gotham Black" font-size="16.6667" lengthAdjust="spacing" textLength="147.9167" x="250" y="485.1379">not implemented</text><polygon fill="url(#gzl5iwht11zwm1)" points="218.2292,511.0107,230.7292,523.5107,218.2292,536.0107,205.7292,523.5107,218.2292,511.0107" style="stroke:#BABDBF;stroke-width:1.0416666666666667;"/><polygon fill="url(#gzl5iwht11zwm1)" points="158.3333,352.5075,278.125,352.5075,290.625,367.7104,278.125,382.9132,158.3333,382.9132,145.8333,367.7104,158.3333,352.5075" style="stroke:#BABDBF;stroke-width:1.0416666666666667;"/><text fill="#343A40" font-family="Gotham Black" font-size="16.6667" lengthAdjust="spacing" textLength="27.0833" x="227.6042" y="404.1128">me</text><text fill="#343A40" font-family="Gotham Black" font-size="16.6667" lengthAdjust="spacing" textLength="109.375" x="163.5417" y="373.7071">destination ?</text><text fill="#343A40" font-family="Gotham Black" font-size="16.6667" lengthAdjust="spacing" textLength="45.8333" x="295.8333" y="358.5042">other</text><polygon fill="url(#gzl5iwht11zwm1)" points="218.2292,556.8441,230.7292,569.3441,218.2292,581.8441,205.7292,569.3441,218.2292,556.8441" style="stroke:#BABDBF;stroke-width:1.0416666666666667;"/><polygon fill="url(#gzl5iwht11zwm1)" points="144.2708,288.149,292.1875,288.149,304.6875,303.3518,292.1875,318.5547,144.2708,318.5547,131.7708,303.3518,144.2708,288.149" style="stroke:#BABDBF;stroke-width:1.0416666666666667;"/><text fill="#343A40" font-family="Gotham Black" font-size="16.6667" lengthAdjust="spacing" textLength="100" x="227.6042" y="339.7542">format 000</text><text fill="#343A40" font-family="Gotham Black" font-size="16.6667" lengthAdjust="spacing" textLength="137.5" x="149.4792" y="309.3486">Header format ?</text><text fill="#343A40" font-family="Gotham Black" font-size="16.6667" lengthAdjust="spacing" textLength="94.7917" x="309.8958" y="294.1457">format 001</text><polygon fill="url(#gzl5iwht11zwm1)" points="218.2292,602.6774,230.7292,615.1774,218.2292,627.6774,205.7292,615.1774,218.2292,602.6774" style="stroke:#BABDBF;stroke-width:1.0416666666666667;"/><rect fill="url(#gzl5iwht11zwm0)" height="42.9057" rx="4.1667" ry="4.1667" style="stroke:#2FA4E7;stroke-width:1.0416666666666667;" width="85.4167" x="486.4583" y="222.3969"/><text fill="#FFFFFF" font-family="Gotham Black" font-size="16.6667" lengthAdjust="spacing" textLength="62.5" x="497.9167" y="249.8464">beacon</text><polygon fill="url(#gzl5iwht11zwm1)" points="373.6979,638.0941,386.1979,650.5941,373.6979,663.0941,361.1979,650.5941,373.6979,638.0941" style="stroke:#BABDBF;stroke-width:1.0416666666666667;"/><ellipse cx="373.6979" cy="694.3441" fill="none" rx="10.4167" ry="10.4167" style="stroke:#033C73;stroke-width:1.5625;"/><line style="stroke:#033C73;stroke-width:2.604166666666667;" x1="367.2529" x2="380.1429" y1="687.8991" y2="700.7891"/><line style="stroke:#033C73;stroke-width:2.604166666666667;" x1="380.1429" x2="367.2529" y1="687.8991" y2="700.7891"/><line style="stroke:#2FA4E7;stroke-width:3.125;" x1="373.6979" x2="373.6979" y1="31.25" y2="52.0833"/><polygon fill="#2FA4E7" points="369.5313,41.6667,373.6979,52.0833,377.8646,41.6667,373.6979,45.8333" style="stroke:#2FA4E7;stroke-width:1.0416666666666667;"/><line style="stroke:#2FA4E7;stroke-width:3.125;" x1="373.6979" x2="373.6979" y1="94.989" y2="115.8223"/><polygon fill="#2FA4E7" points="369.5313,105.4057,373.6979,115.8223,377.8646,105.4057,373.6979,109.5723" style="stroke:#2FA4E7;stroke-width:1.0416666666666667;"/><line style="stroke:#2FA4E7;stroke-width:3.125;" x1="122.9167" x2="112.5" y1="432.0689" y2="432.0689"/><line style="stroke:#2FA4E7;stroke-width:3.125;" x1="112.5" x2="112.5" y1="432.0689" y2="457.6884"/><polygon fill="#2FA4E7" points="108.3333,447.2717,112.5,457.6884,116.6667,447.2717,112.5,451.4384" style="stroke:#2FA4E7;stroke-width:1.0416666666666667;"/><line style="stroke:#2FA4E7;stroke-width:3.125;" x1="313.5417" x2="323.9583" y1="432.0689" y2="432.0689"/><line style="stroke:#2FA4E7;stroke-width:3.125;" x1="323.9583" x2="323.9583" y1="432.0689" y2="457.6884"/><polygon fill="#2FA4E7" points="319.7917,447.2717,323.9583,457.6884,328.125,447.2717,323.9583,451.4384" style="stroke:#2FA4E7;stroke-width:1.0416666666666667;"/><line style="stroke:#2FA4E7;stroke-width:3.125;" x1="112.5" x2="112.5" y1="500.5941" y2="523.5107"/><line style="stroke:#2FA4E7;stroke-width:3.125;" x1="112.5" x2="205.7292" y1="523.5107" y2="523.5107"/><polygon fill="#2FA4E7" points="195.3125,519.3441,205.7292,523.5107,195.3125,527.6774,199.4792,523.5107" style="stroke:#2FA4E7;stroke-width:1.0416666666666667;"/><line style="stroke:#2FA4E7;stroke-width:3.125;" x1="323.9583" x2="323.9583" y1="500.5941" y2="523.5107"/><line style="stroke:#2FA4E7;stroke-width:3.125;" x1="323.9583" x2="230.7292" y1="523.5107" y2="523.5107"/><polygon fill="#2FA4E7" points="241.1458,519.3441,230.7292,523.5107,241.1458,527.6774,236.9792,523.5107" style="stroke:#2FA4E7;stroke-width:1.0416666666666667;"/><line style="stroke:#2FA4E7;stroke-width:3.125;" x1="218.2292" x2="218.2292" y1="382.9132" y2="416.866"/><polygon fill="#2FA4E7" points="214.0625,406.4494,218.2292,416.866,222.3958,406.4494,218.2292,410.616" style="stroke:#2FA4E7;stroke-width:1.0416666666666667;"/><line style="stroke:#2FA4E7;stroke-width:1.5625;stroke-dasharray:7.0,7.0;" x1="290.625" x2="430.2083" y1="367.7104" y2="367.7104"/><polygon fill="#2FA4E7" points="426.0417,473.0036,430.2083,483.4203,434.375,473.0036,430.2083,477.1703" style="stroke:#2FA4E7;stroke-width:1.5625;stroke-dasharray:7.0,7.0;"/><line style="stroke:#2FA4E7;stroke-width:1.5625;stroke-dasharray:7.0,7.0;" x1="430.2083" x2="430.2083" y1="367.7104" y2="569.3441"/><line style="stroke:#2FA4E7;stroke-width:1.5625;stroke-dasharray:7.0,7.0;" x1="430.2083" x2="230.7292" y1="569.3441" y2="569.3441"/><polygon fill="#2FA4E7" points="241.1458,565.1774,230.7292,569.3441,241.1458,573.5107,236.9792,569.3441" style="stroke:#2FA4E7;stroke-width:1.0416666666666667;"/><line style="stroke:#2FA4E7;stroke-width:3.125;" x1="218.2292" x2="218.2292" y1="536.0107" y2="556.8441"/><polygon fill="#2FA4E7" points="214.0625,546.4274,218.2292,556.8441,222.3958,546.4274,218.2292,550.5941" style="stroke:#2FA4E7;stroke-width:1.0416666666666667;"/><line style="stroke:#2FA4E7;stroke-width:3.125;" x1="218.2292" x2="218.2292" y1="318.5547" y2="352.5075"/><polygon fill="#2FA4E7" points="214.0625,342.0909,218.2292,352.5075,222.3958,342.0909,218.2292,346.2575" style="stroke:#2FA4E7;stroke-width:1.0416666666666667;"/><line style="stroke:#2FA4E7;stroke-width:1.5625;stroke-dasharray:7.0,7.0;" x1="304.6875" x2="453.125" y1="303.3518" y2="303.3518"/><polygon fill="#2FA4E7" points="448.9583,475.5091,453.125,485.9258,457.2917,475.5091,453.125,479.6758" style="stroke:#2FA4E7;stroke-width:1.5625;stroke-dasharray:7.0,7.0;"/><line style="stroke:#2FA4E7;stroke-width:1.5625;stroke-dasharray:7.0,7.0;" x1="453.125" x2="453.125" y1="303.3518" y2="615.1774"/><line style="stroke:#2FA4E7;stroke-width:1.5625;stroke-dasharray:7.0,7.0;" x1="453.125" x2="230.7292" y1="615.1774" y2="615.1774"/><polygon fill="#2FA4E7" points="241.1458,611.0107,230.7292,615.1774,241.1458,619.3441,236.9792,615.1774" style="stroke:#2FA4E7;stroke-width:1.0416666666666667;"/><line style="stroke:#2FA4E7;stroke-width:3.125;" x1="218.2292" x2="218.2292" y1="581.8441" y2="602.6774"/><polygon fill="#2FA4E7" points="214.0625,592.2607,218.2292,602.6774,222.3958,592.2607,218.2292,596.4274" style="stroke:#2FA4E7;stroke-width:1.0416666666666667;"/><line style="stroke:#2FA4E7;stroke-width:3.125;" x1="218.2292" x2="218.2292" y1="265.3025" y2="288.149"/><polygon fill="#2FA4E7" points="214.0625,277.7323,218.2292,288.149,222.3958,277.7323,218.2292,281.899" style="stroke:#2FA4E7;stroke-width:1.0416666666666667;"/><line style="stroke:#2FA4E7;stroke-width:3.125;" x1="278.3854" x2="218.2292" y1="196.7773" y2="196.7773"/><line style="stroke:#2FA4E7;stroke-width:3.125;" x1="218.2292" x2="218.2292" y1="196.7773" y2="222.3969"/><polygon fill="#2FA4E7" points="214.0625,211.9802,218.2292,222.3969,222.3958,211.9802,218.2292,216.1469" style="stroke:#2FA4E7;stroke-width:1.0416666666666667;"/><line style="stroke:#2FA4E7;stroke-width:3.125;" x1="469.0104" x2="529.1667" y1="196.7773" y2="196.7773"/><line style="stroke:#2FA4E7;stroke-width:3.125;" x1="529.1667" x2="529.1667" y1="196.7773" y2="222.3969"/><polygon fill="#2FA4E7" points="525,211.9802,529.1667,222.3969,533.3333,211.9802,529.1667,216.1469" style="stroke:#2FA4E7;stroke-width:1.0416666666666667;"/><line style="stroke:#2FA4E7;stroke-width:3.125;" x1="218.2292" x2="218.2292" y1="627.6774" y2="650.5941"/><line style="stroke:#2FA4E7;stroke-width:3.125;" x1="218.2292" x2="361.1979" y1="650.5941" y2="650.5941"/><polygon fill="#2FA4E7" points="350.7813,646.4274,361.1979,650.5941,350.7813,654.7607,354.9479,650.5941" style="stroke:#2FA4E7;stroke-width:1.0416666666666667;"/><line style="stroke:#2FA4E7;stroke-width:3.125;" x1="529.1667" x2="529.1667" y1="265.3025" y2="650.5941"/><line style="stroke:#2FA4E7;stroke-width:3.125;" x1="529.1667" x2="386.1979" y1="650.5941" y2="650.5941"/><polygon fill="#2FA4E7" points="396.6146,646.4274,386.1979,650.5941,396.6146,654.7607,392.4479,650.5941" style="stroke:#2FA4E7;stroke-width:1.0416666666666667;"/><line style="stroke:#2FA4E7;stroke-width:3.125;" x1="373.6979" x2="373.6979" y1="158.728" y2="181.5745"/><polygon fill="#2FA4E7" points="369.5313,171.1578,373.6979,181.5745,377.8646,171.1578,373.6979,175.3245" style="stroke:#2FA4E7;stroke-width:1.0416666666666667;"/><line style="stroke:#2FA4E7;stroke-width:3.125;" x1="373.6979" x2="373.6979" y1="663.0941" y2="683.9274"/><polygon fill="#2FA4E7" points="369.5313,673.5107,373.6979,683.9274,377.8646,673.5107,373.6979,677.6774" style="stroke:#2FA4E7;stroke-width:1.0416666666666667;"/><!--SRC=[VP5BJyCm383l-HNcrbMQr7BOePL080Gz8HudX3XuZKkZjKwLU4Zmwydwe7Hev1JRtsSvpfdKr1AKvFOD8Ik_CzoXmnPkgC9z8xUMvTby4QIRNqKz5-yn-7TMwf2-Rh3SAUK5dQZCumU1c9PobTakN0vjsEeGcmgYX-85Qa9D3kIp8xXSGHY68UgZyvM2SB9taf7A-yJ1B0Qhigv5cRqnJf9aS2TSanV3ACRo3BSqGnDO4UbjUC6fpYbO1vkbrmyPnyNLqoCuyfrbJt6SBnXgF44KLaHkAMTi1KpRDU4FM4WVQQnDfVvjidxLw6lIR-iBzLSRb9-rf8Dtx0oy6k1-zoEORGbBoxcQ2DPAVGC0]--></g></svg>