<?xml version="1.0" encoding="us-ascii" standalone="no"?><svg xmlns="http://www.w3.org/2000/svg" xmlns:xlink="http://www.w3.org/1999/xlink" contentStyleType="text/css" height="490.625px" preserveAspectRatio="none" style="width:329px;height:490px;" version="1.1" viewBox="0 0 329 490" width="329.1667px" zoomAndPan="magnify"><defs><linearGradient id="ggdl5m4hcqy1r0" x1="50%" x2="50%" y1="0%" y2="100%"><stop offset="0%" stop-color="#59B6EC"/><stop offset="100%" stop-color="#2FA4E7"/></linearGradient><linearGradient id="ggdl5m4hcqy1r1" x1="50%" x2="50%" y1="0%" y2="100%"><stop offset="0%" stop-color="#FFFFFF"/><stop offset="100%" stop-color="#EDF0F2"/></linearGradient></defs><g><ellipse cx="161.4583" cy="20.8333" fill="#033C73" rx="10.4167" ry="10.4167" style="stroke:#2683B9;stroke-width:1.0416666666666667;"/><rect fill="url(#ggdl5m4hcqy1r0)" height="82.8837" rx="4.1667" ry="4.1667" style="stroke:#2FA4E7;stroke-width:1.0416666666666667;" width="300" x="11.4583" y="52.0833"/><text fill="#FFFFFF" font-family="Gotham Black" font-size="16.6667" lengthAdjust="spacing" textLength="263.5417" x="22.9167" y="79.5329">create the PHY API parameters</text><text fill="#FFFFFF" font-family="Gotham Black" font-size="16.6667" lengthAdjust="spacing" textLength="277.0833" x="22.9167" y="99.5219">for the function from the handler</text><text fill="#FFFFFF" font-family="Gotham Black" font-size="16.6667" lengthAdjust="spacing" textLength="173.9583" x="22.9167" y="119.5109">function parameters</text><rect fill="url(#ggdl5m4hcqy1r0)" height="42.9057" rx="4.1667" ry="4.1667" style="stroke:#2FA4E7;stroke-width:1.0416666666666667;" width="223.9583" x="49.4792" y="155.8004"/><text fill="#FFFFFF" font-family="Gotham Black" font-size="16.6667" lengthAdjust="spacing" textLength="201.0417" x="60.9375" y="183.2499">indicating current state</text><rect fill="url(#ggdl5m4hcqy1r0)" height="42.9057" rx="4.1667" ry="4.1667" style="stroke:#2FA4E7;stroke-width:1.0416666666666667;" width="157.2917" x="82.8125" y="219.5394"/><text fill="#FFFFFF" font-family="Gotham Black" font-size="16.6667" lengthAdjust="spacing" textLength="134.375" x="94.2708" y="246.9889">send to PHY API</text><rect fill="url(#ggdl5m4hcqy1r0)" height="42.9057" rx="4.1667" ry="4.1667" style="stroke:#2FA4E7;stroke-width:1.0416666666666667;" width="135.4167" x="93.75" y="349.6501"/><text fill="#FFFFFF" font-family="Gotham Black" font-size="16.6667" lengthAdjust="spacing" textLength="112.5" x="105.2083" y="377.0996">logging error</text><polygon fill="url(#ggdl5m4hcqy1r1)" points="88.5417,285.2915,234.375,285.2915,246.875,300.4944,234.375,315.6972,88.5417,315.6972,76.0417,300.4944,88.5417,285.2915" style="stroke:#BABDBF;stroke-width:1.0416666666666667;"/><text fill="#343A40" font-family="Gotham Black" font-size="16.6667" lengthAdjust="spacing" textLength="42.7083" x="170.8333" y="336.8968">error</text><text fill="#343A40" font-family="Gotham Black" font-size="16.6667" lengthAdjust="spacing" textLength="135.4167" x="93.75" y="306.4911">function result ?</text><text fill="#343A40" font-family="Gotham Black" font-size="16.6667" lengthAdjust="spacing" textLength="64.5833" x="252.0833" y="291.2882">success</text><polygon fill="url(#ggdl5m4hcqy1r1)" points="161.4583,413.3891,173.9583,425.8891,161.4583,438.3891,148.9583,425.8891,161.4583,413.3891" style="stroke:#BABDBF;stroke-width:1.0416666666666667;"/><ellipse cx="161.4583" cy="469.6391" fill="none" rx="10.4167" ry="10.4167" style="stroke:#033C73;stroke-width:1.5625;"/><line style="stroke:#033C73;stroke-width:2.604166666666667;" x1="155.0133" x2="167.9033" y1="463.1941" y2="476.0841"/><line style="stroke:#033C73;stroke-width:2.604166666666667;" x1="167.9033" x2="155.0133" y1="463.1941" y2="476.0841"/><line style="stroke:#2FA4E7;stroke-width:3.125;" x1="161.4583" x2="161.4583" y1="31.25" y2="52.0833"/><polygon fill="#2FA4E7" points="157.2917,41.6667,161.4583,52.0833,165.625,41.6667,161.4583,45.8333" style="stroke:#2FA4E7;stroke-width:1.0416666666666667;"/><line style="stroke:#2FA4E7;stroke-width:3.125;" x1="161.4583" x2="161.4583" y1="134.967" y2="155.8004"/><polygon fill="#2FA4E7" points="157.2917,145.3837,161.4583,155.8004,165.625,145.3837,161.4583,149.5504" style="stroke:#2FA4E7;stroke-width:1.0416666666666667;"/><line style="stroke:#2FA4E7;stroke-width:3.125;" x1="161.4583" x2="161.4583" y1="198.7061" y2="219.5394"/><polygon fill="#2FA4E7" points="157.2917,209.1227,161.4583,219.5394,165.625,209.1227,161.4583,213.2894" style="stroke:#2FA4E7;stroke-width:1.0416666666666667;"/><line style="stroke:#2FA4E7;stroke-width:3.125;" x1="161.4583" x2="161.4583" y1="315.6972" y2="349.6501"/><polygon fill="#2FA4E7" points="157.2917,339.2334,161.4583,349.6501,165.625,339.2334,161.4583,343.4001" style="stroke:#2FA4E7;stroke-width:1.0416666666666667;"/><line style="stroke:#2FA4E7;stroke-width:1.5625;stroke-dasharray:7.0,7.0;" x1="246.875" x2="259.375" y1="300.4944" y2="300.4944"/><polygon fill="#2FA4E7" points="255.2083,364.5432,259.375,374.9598,263.5417,364.5432,259.375,368.7098" style="stroke:#2FA4E7;stroke-width:1.5625;stroke-dasharray:7.0,7.0;"/><line style="stroke:#2FA4E7;stroke-width:1.5625;stroke-dasharray:7.0,7.0;" x1="259.375" x2="259.375" y1="300.4944" y2="425.8891"/><line style="stroke:#2FA4E7;stroke-width:1.5625;stroke-dasharray:7.0,7.0;" x1="259.375" x2="173.9583" y1="425.8891" y2="425.8891"/><polygon fill="#2FA4E7" points="184.375,421.7224,173.9583,425.8891,184.375,430.0557,180.2083,425.8891" style="stroke:#2FA4E7;stroke-width:1.0416666666666667;"/><line style="stroke:#2FA4E7;stroke-width:3.125;" x1="161.4583" x2="161.4583" y1="392.5557" y2="413.3891"/><polygon fill="#2FA4E7" points="157.2917,402.9724,161.4583,413.3891,165.625,402.9724,161.4583,407.1391" style="stroke:#2FA4E7;stroke-width:1.0416666666666667;"/><line style="stroke:#2FA4E7;stroke-width:3.125;" x1="161.4583" x2="161.4583" y1="262.4451" y2="285.2915"/><polygon fill="#2FA4E7" points="157.2917,274.8749,161.4583,285.2915,165.625,274.8749,161.4583,279.0415" style="stroke:#2FA4E7;stroke-width:1.0416666666666667;"/><line style="stroke:#2FA4E7;stroke-width:3.125;" x1="161.4583" x2="161.4583" y1="438.3891" y2="459.2224"/><polygon fill="#2FA4E7" points="157.2917,448.8057,161.4583,459.2224,165.625,448.8057,161.4583,452.9724" style="stroke:#2FA4E7;stroke-width:1.0416666666666667;"/><!--SRC=[JOwnJiGm38PtFuNPUiCDB0oj10AX0nPq4XD235RYjD6b3hBTXQSdBU8E3nx-Jxy_N_d4CsDWNGgJW9soV97IZ8-SQ2b-gE9l-Pln-kOVZ1VuIgt_L7rgyKEXS08m9tNeWp8vOpFWyVaTxuylkBNPMGrIrGsbHOBdAfYqpbioaSJ22cToQGtGPuava6SPCIogB8xDvzoGiKJq-cSR82VipbUKhRsCTxjL8jZP4WARxG3Rx3yYsSJnStyBN8onOzMglx0lTHnNuPODq3GvhHj-0000]--></g></svg>