<?xml version="1.0" encoding="us-ascii" standalone="no"?><svg xmlns="http://www.w3.org/2000/svg" xmlns:xlink="http://www.w3.org/1999/xlink" contentStyleType="text/css" height="1634.375px" preserveAspectRatio="none" style="width:922px;height:1634px;" version="1.1" viewBox="0 0 922 1634" width="922.9167px" zoomAndPan="magnify"><defs><linearGradient id="gk4667pkonfmz0" x1="50%" x2="50%" y1="0%" y2="100%"><stop offset="0%" stop-color="#59B6EC"/><stop offset="100%" stop-color="#2FA4E7"/></linearGradient></defs><g><!--cluster MAC--><g id="cluster_MAC"><path d="M20.8333,16.6667 L59.375,16.6667 A6.25,6.25 0 0 1 63.5417,20.8333 L70.8333,48.3251 L441.6667,48.3251 A4.1667,4.1667 0 0 1 445.8333,52.4918 L445.8333,1359.375 A4.1667,4.1667 0 0 1 441.6667,1363.5417 L20.8333,1363.5417 A4.1667,4.1667 0 0 1 16.6667,1359.375 L16.6667,20.8333 A4.1667,4.1667 0 0 1 20.8333,16.6667 " fill="none" style="stroke:#59B6EC;stroke-width:2.0833333333333335;"/><line style="stroke:#59B6EC;stroke-width:2.0833333333333335;" x1="16.6667" x2="70.8333" y1="48.3251" y2="48.3251"/><text fill="#2FA4E7" font-family="Gotham Black" font-size="12.5" font-weight="bold" lengthAdjust="spacing" textLength="30.2083" x="26.0417" y="35.9517">MAC</text></g><!--entity harq--><g id="elem_harq"><ellipse cx="264.5833" cy="515.625" fill="url(#gk4667pkonfmz0)" rx="16.6667" ry="16.6667" style="stroke:#2FA4E7;stroke-width:1.0416666666666667;"/><path d="M264.5833,536.4583 C268.75,536.4583 271.875,536.4583 276.0417,532.2917 C284.375,532.2917 292.7083,540.625 292.7083,548.9583 L292.7083,553.125 C292.7083,557.2917 288.5417,561.4583 284.375,561.4583 L244.7917,561.4583 C240.625,561.4583 236.4583,557.2917 236.4583,553.125 L236.4583,548.9583 C236.4583,540.625 244.7917,532.2917 253.125,532.2917 C257.2917,536.4583 260.4167,536.4583 264.5833,536.4583 " fill="url(#gk4667pkonfmz0)" style="stroke:#2FA4E7;stroke-width:1.0416666666666667;"/><text fill="#343A40" font-family="Gotham Black" font-size="12.5" lengthAdjust="spacing" textLength="36.4583" x="246.3542" y="579.7017">HARQ</text></g><g id="elem_queue"><ellipse cx="231.2154" cy="835.5974" fill="url(#gk4667pkonfmz0)" rx="197.3613" ry="158.514" style="stroke:#2FA4E7;stroke-width:2.0833333333333335;"/><text fill="#FFFFFF" font-family="Gotham Black" font-size="12.5" lengthAdjust="spacing" textLength="3.125" x="229.6529" y="759.7029">&#160;</text><text fill="#FFFFFF" font-family="Gotham Black" font-size="12.5" lengthAdjust="spacing" textLength="218.75" x="126.5279" y="785.1114">The user can push operation in the</text><text fill="#FFFFFF" font-family="Gotham Black" font-size="12.5" lengthAdjust="spacing" textLength="210.4167" x="130.6946" y="810.5198">queue that will be scheduled and</text><text fill="#FFFFFF" font-family="Gotham Black" font-size="12.5" lengthAdjust="spacing" textLength="153.125" x="160.9029" y="835.9282">executed by the handler</text><text fill="#FFFFFF" font-family="Gotham Black" font-size="12.5" lengthAdjust="spacing" textLength="3.125" x="229.6529" y="861.3366">&#160;</text><text fill="#FFFFFF" font-family="Gotham Black" font-size="12.5" lengthAdjust="spacing" textLength="216.6667" x="129.1321" y="886.7451">This is (mostly) the entry point for</text><text fill="#FFFFFF" font-family="Gotham Black" font-size="12.5" lengthAdjust="spacing" textLength="57.2917" x="202.5696" y="912.1535">the users</text><text fill="#FFFFFF" font-family="Gotham Black" font-size="12.5" lengthAdjust="spacing" textLength="3.125" x="229.6529" y="937.5619">&#160;</text><line style="stroke:#2FA4E7;stroke-width:1.0416666666666667;" x1="85.2913" x2="127.5696" y1="729.797" y2="729.797"/><text fill="#FFFFFF" font-family="Gotham Black" font-size="12.5" lengthAdjust="spacing" textLength="196.875" x="132.7779" y="733.7737">dect_mac_phy_handler_queue</text><line style="stroke:#2FA4E7;stroke-width:1.0416666666666667;" x1="334.8613" x2="377.1396" y1="729.797" y2="729.797"/></g><g id="elem_handler"><ellipse cx="225.1618" cy="1215.1699" fill="url(#gk4667pkonfmz0)" rx="185.0577" ry="131.8366" style="stroke:#2FA4E7;stroke-width:2.0833333333333335;"/><text fill="#FFFFFF" font-family="Gotham Black" font-size="12.5" lengthAdjust="spacing" textLength="3.125" x="223.5993" y="1164.6839">&#160;</text><text fill="#FFFFFF" font-family="Gotham Black" font-size="12.5" lengthAdjust="spacing" textLength="201.0417" x="130.891" y="1190.0923">The handler is an interface that</text><text fill="#FFFFFF" font-family="Gotham Black" font-size="12.5" lengthAdjust="spacing" textLength="221.875" x="120.4743" y="1215.5008">simplify the usage of the PHY layer</text><text fill="#FFFFFF" font-family="Gotham Black" font-size="12.5" lengthAdjust="spacing" textLength="3.125" x="223.5993" y="1240.9092">&#160;</text><text fill="#FFFFFF" font-family="Gotham Black" font-size="12.5" lengthAdjust="spacing" textLength="231.25" x="109.5368" y="1266.3176">This is the entry point of the PHY API</text><text fill="#FFFFFF" font-family="Gotham Black" font-size="12.5" lengthAdjust="spacing" textLength="3.125" x="223.5993" y="1291.7261">&#160;</text><line style="stroke:#2FA4E7;stroke-width:1.0416666666666667;" x1="79.5329" x2="144.9535" y1="1134.778" y2="1134.778"/><text fill="#FFFFFF" font-family="Gotham Black" font-size="12.5" lengthAdjust="spacing" textLength="150" x="150.1618" y="1138.7547">dect_mac_phy_handler</text><line style="stroke:#2FA4E7;stroke-width:1.0416666666666667;" x1="305.3702" x2="370.7908" y1="1134.778" y2="1134.778"/></g><g id="elem_callback"><ellipse cx="283.5195" cy="157.362" fill="url(#gk4667pkonfmz0)" rx="146.0195" ry="95.9036" style="stroke:#2FA4E7;stroke-width:2.0833333333333335;"/><text fill="#FFFFFF" font-family="Gotham Black" font-size="12.5" lengthAdjust="spacing" textLength="3.125" x="281.957" y="132.2844">&#160;</text><text fill="#FFFFFF" font-family="Gotham Black" font-size="12.5" lengthAdjust="spacing" textLength="166.6667" x="206.4362" y="157.6928">The callback functions are</text><text fill="#FFFFFF" font-family="Gotham Black" font-size="12.5" lengthAdjust="spacing" textLength="178.125" x="194.457" y="183.1013">the exit point of the PHY API</text><text fill="#FFFFFF" font-family="Gotham Black" font-size="12.5" lengthAdjust="spacing" textLength="3.125" x="281.957" y="208.5097">&#160;</text><line style="stroke:#2FA4E7;stroke-width:1.0416666666666667;" x1="164.9228" x2="192.3737" y1="102.3784" y2="102.3784"/><text fill="#FFFFFF" font-family="Gotham Black" font-size="12.5" lengthAdjust="spacing" textLength="171.875" x="197.582" y="106.3551">dect_mac_phy_handler_cb</text><line style="stroke:#2FA4E7;stroke-width:1.0416666666666667;" x1="374.6653" x2="402.1162" y1="102.3784" y2="102.3784"/></g><!--entity user--><g id="elem_user"><ellipse cx="491.6667" cy="515.625" fill="url(#gk4667pkonfmz0)" rx="16.6667" ry="16.6667" style="stroke:#2FA4E7;stroke-width:1.0416666666666667;"/><path d="M491.6667,536.4583 C495.8333,536.4583 498.9583,536.4583 503.125,532.2917 C511.4583,532.2917 519.7917,540.625 519.7917,548.9583 L519.7917,553.125 C519.7917,557.2917 515.625,561.4583 511.4583,561.4583 L471.875,561.4583 C467.7083,561.4583 463.5417,557.2917 463.5417,553.125 L463.5417,548.9583 C463.5417,540.625 471.875,532.2917 480.2083,532.2917 C484.375,536.4583 487.5,536.4583 491.6667,536.4583 " fill="url(#gk4667pkonfmz0)" style="stroke:#2FA4E7;stroke-width:1.0416666666666667;"/><text fill="#343A40" font-family="Gotham Black" font-size="12.5" lengthAdjust="spacing" textLength="33.3333" x="475" y="579.7017">USER</text></g><g id="elem_phy"><ellipse cx="687.4794" cy="1214.9163" fill="url(#gk4667pkonfmz0)" rx="115.0836" ry="77.9372" style="stroke:#2FA4E7;stroke-width:2.0833333333333335;"/><text fill="#FFFFFF" font-family="Gotham Black" font-size="12.5" lengthAdjust="spacing" textLength="3.125" x="677.5836" y="1202.543">&#160;</text><text fill="#FFFFFF" font-family="Gotham Black" font-size="12.5" lengthAdjust="spacing" textLength="118.75" x="619.7711" y="1227.9514">This is the PHY API</text><text fill="#FFFFFF" font-family="Gotham Black" font-size="12.5" lengthAdjust="spacing" textLength="3.125" x="677.5836" y="1253.3598">&#160;</text><line style="stroke:#2FA4E7;stroke-width:1.0416666666666667;" x1="591.8429" x2="612.4794" y1="1172.637" y2="1172.637"/><text fill="#FFFFFF" font-family="Gotham Black" font-size="12.5" lengthAdjust="spacing" textLength="139.5833" x="617.6877" y="1176.6137">nrf_modem_dect_phy</text><line style="stroke:#2FA4E7;stroke-width:1.0416666666666667;" x1="762.4794" x2="783.1159" y1="1172.637" y2="1172.637"/></g><g id="elem_modem"><ellipse cx="687.3566" cy="1531.1353" fill="url(#gk4667pkonfmz0)" rx="114.9608" ry="92.5936" style="stroke:#2FA4E7;stroke-width:2.0833333333333335;"/><text fill="#FFFFFF" font-family="Gotham Black" font-size="12.5" lengthAdjust="spacing" textLength="3.125" x="685.7941" y="1506.0577">&#160;</text><text fill="#FFFFFF" font-family="Gotham Black" font-size="12.5" lengthAdjust="spacing" textLength="126.0417" x="622.7733" y="1531.4661">This is where all the</text><text fill="#FFFFFF" font-family="Gotham Black" font-size="12.5" lengthAdjust="spacing" textLength="97.9167" x="638.3983" y="1556.8746">RF stuff is done</text><text fill="#FFFFFF" font-family="Gotham Black" font-size="12.5" lengthAdjust="spacing" textLength="3.125" x="685.7941" y="1582.283">&#160;</text><line style="stroke:#2FA4E7;stroke-width:1.0416666666666667;" x1="595.9007" x2="643.6066" y1="1476.1518" y2="1476.1518"/><text fill="#FFFFFF" font-family="Gotham Black" font-size="12.5" lengthAdjust="spacing" textLength="77.0833" x="648.8149" y="1480.1284">modem core</text><line style="stroke:#2FA4E7;stroke-width:1.0416666666666667;" x1="731.1066" x2="778.8125" y1="1476.1518" y2="1476.1518"/></g><!--link user to queue--><g id="link_user_queue"><path d="M462.3021,576.5208 C433.8333,608.2917 392.9732,653.8976 350.1919,701.6372 " fill="none" id="user-to-queue" style="stroke:#2FA4E7;stroke-width:3.125;"/><polygon fill="#2FA4E7" points="346.0208,706.2917,355.3805,702.0906,349.4967,702.4129,349.1745,696.5292,346.0208,706.2917" style="stroke:#2FA4E7;stroke-width:3.125;"/><text fill="#343A40" font-family="Gotham Black" font-size="12.5" lengthAdjust="spacing" textLength="120.8333" x="427.0833" y="636.9934">schedule operation</text></g><!--link harq to queue--><g id="link_harq_queue"><path d="M259.5521,587.5729 C256.7396,612.1563 253.7442,638.2595 249.9421,671.3741 " fill="none" id="harq-to-queue" style="stroke:#2FA4E7;stroke-width:3.125;"/><polygon fill="#2FA4E7" points="249.2292,677.5833,254.438,668.7448,249.8233,672.409,246.1591,667.7942,249.2292,677.5833" style="stroke:#2FA4E7;stroke-width:3.125;"/><text fill="#343A40" font-family="Gotham Black" font-size="12.5" lengthAdjust="spacing" textLength="120.8333" x="261.4583" y="636.9934">schedule operation</text></g><!--link queue to handler--><g id="link_queue_handler"><path d="M228.6458,993.8646 C228.1563,1023.6146 227.7497,1048.1779 227.2706,1077.0009 " fill="none" id="queue-to-handler" style="stroke:#2FA4E7;stroke-width:3.125;"/><polygon fill="#2FA4E7" points="227.1667,1083.25,231.4886,1073.9456,227.2532,1078.0424,223.1564,1073.807,227.1667,1083.25" style="stroke:#2FA4E7;stroke-width:3.125;"/><text fill="#343A40" font-family="Gotham Black" font-size="12.5" lengthAdjust="spacing" textLength="160.4167" x="234.375" y="1043.2434">give operation to handler</text></g><!--link handler to phy--><g id="link_handler_phy"><path d="M410.1146,1215.1042 C464.9375,1215.1042 517.1146,1215.1042 566.1354,1215.1042 " fill="none" id="handler-to-phy" style="stroke:#2FA4E7;stroke-width:3.125;"/><polygon fill="#2FA4E7" points="572.3854,1215.1042,563.0104,1210.9375,567.1771,1215.1042,563.0104,1219.2708,572.3854,1215.1042" style="stroke:#2FA4E7;stroke-width:3.125;"/><text fill="#343A40" font-family="Gotham Black" font-size="12.5" lengthAdjust="spacing" textLength="113.5417" x="434.375" y="1203.1392">execute operation</text></g><!--link phy to modem--><g id="link_phy_modem"><path d="M626.2708,1281.5 C603.9375,1309.6563 581.3333,1344.3333 569.7917,1380.2083 C559.1979,1413.1354 572.4972,1439.7062 597.1222,1464.9146 " fill="none" id="phy-to-modem" style="stroke:#2FA4E7;stroke-width:3.125;"/><polygon fill="#2FA4E7" points="601.4896,1469.3854,597.9191,1459.7676,597.8501,1465.6597,591.9579,1465.5907,601.4896,1469.3854" style="stroke:#2FA4E7;stroke-width:3.125;"/><text fill="#343A40" font-family="Gotham Black" font-size="12.5" lengthAdjust="spacing" textLength="175" x="576.0417" y="1398.4517">transmit to the modem core</text></g><!--link modem to phy--><g id="link_modem_phy"><path d="M743.7917,1450.3854 C751.0625,1436.5729 757.3958,1421.9271 761.4583,1407.2917 C772.8854,1366.1458 760.3642,1327.0446 740.6351,1291.305 " fill="none" id="modem-to-phy" style="stroke:#2FA4E7;stroke-width:3.125;"/><polygon fill="#2FA4E7" points="737.6146,1285.8333,738.4976,1296.0545,740.1317,1290.3931,745.7931,1292.0272,737.6146,1285.8333" style="stroke:#2FA4E7;stroke-width:3.125;"/><text fill="#343A40" font-family="Gotham Black" font-size="12.5" lengthAdjust="spacing" textLength="133.3333" x="770.8333" y="1398.4517">sends the result back</text></g><!--link phy to callback--><g id="link_phy_callback"><path d="M659.5729,1139.3021 C633.9688,1063.9583 600,943.7917 600,836.4583 C600,316.6667 600,316.6667 600,316.6667 C600,233.0729 516.7261,194.9709 432.9448,176.3459 " fill="none" id="phy-to-callback" style="stroke:#2FA4E7;stroke-width:3.125;"/><polygon fill="#2FA4E7" points="426.8438,174.9896,435.0911,181.0914,431.928,176.1198,436.8995,172.9567,426.8438,174.9896" style="stroke:#2FA4E7;stroke-width:3.125;"/><text fill="#343A40" font-family="Gotham Black" font-size="12.5" lengthAdjust="spacing" textLength="109.375" x="606.25" y="457.8267">calls the callback</text></g><!--link callback to user--><g id="link_callback_user"><path d="M341.8854,245.0729 C362.5729,277.125 385.3438,314.1458 404.1667,348.9583 C430.9896,398.5729 454.6863,452.2158 471.3009,491.8199 " fill="none" id="callback-to-user" style="stroke:#2FA4E7;stroke-width:3.125;"/><polygon fill="#2FA4E7" points="473.7188,497.5833,473.9343,487.3264,471.7039,492.7805,466.2497,490.5501,473.7188,497.5833" style="stroke:#2FA4E7;stroke-width:3.125;"/><text fill="#343A40" font-family="Gotham Black" font-size="12.5" lengthAdjust="spacing" textLength="115.625" x="423.9583" y="367.2017">send result to user</text></g><!--link callback to harq--><g id="link_callback_harq"><path d="M275.0417,253.2917 C272.6458,283.8125 270.2813,317.7917 268.75,348.9583 C266.25,399.9271 265.3133,452.3128 264.9175,491.3857 " fill="none" id="callback-to-harq" style="stroke:#2FA4E7;stroke-width:3.125;"/><polygon fill="#2FA4E7" points="264.8542,497.6354,269.1156,488.3031,264.9069,492.4274,260.7827,488.2187,264.8542,497.6354" style="stroke:#2FA4E7;stroke-width:3.125;"/><text fill="#343A40" font-family="Gotham Black" font-size="12.5" lengthAdjust="spacing" textLength="118.75" x="275" y="367.2017">send result to harq</text></g><!--SRC=[XLEnSjGm4Etr5SirGE4Y3OKBPWv24WgOS0S5bMTFNiUQo98ZoLmCmx-pacoVSmpXvWfP-_QzVRkh5w6bZa2I6pIX4I_zlJ8zEkpWaXeSTBYo9kpLJuABD-8Kh4_1pyW4rpQqVFrEexmNOWL46QpRXr4Ju96yxKY8yjl-mwu4z31uSaBqd8Ht19-sx-6N0FwLDzlTbuHeqJs8TCTOYPxWOQ21OcXJ53N9K7KegxuTgnPDhSbL2L0KEUjhIqa591he1z-2xSbXKDQ0Ci3s8U4oAvi8S5HQmu70ovPgRaiDJ9nHz4Xo27np65Fg93bBAG_yVzLP7_JuEY7813T2RvK9q5YNW66goM_4KsiJtJFcrhPcD4jYD1F8DIYpYGJogkkrQiP9CBRODkdZzkOxQ1pFApylU8NUtdxSF2rMejO7djnpev27TS5BHZCO6IV0XJjQMaAFAln3-BSGiopJJuh6DLLdQ-ggfCs1ABRsSYfypaxuAJ-VfNMqpZksv7YzU0NIRkokm8UXQMAejeRYo1ATWw9uEwrDkUpAQRj4tDp_ON8eWkPXbd2dVgmW4EooPJE6uR4BvRoEAy9u7-cojnA2G-CxxYlJH3ydpo8VYuNCawbpsnnvVjiGHxKGBhChqp43vqknH8iYWbDxCkDCnlhfiPyXKvF-GkP7B_u0]--></g></svg>