<?xml version="1.0" encoding="us-ascii" standalone="no"?><svg xmlns="http://www.w3.org/2000/svg" xmlns:xlink="http://www.w3.org/1999/xlink" contentStyleType="text/css" height="490.625px" preserveAspectRatio="none" style="width:313px;height:490px;" version="1.1" viewBox="0 0 313 490" width="313.5417px" zoomAndPan="magnify"><defs><linearGradient id="g1o52qs5d8i2410" x1="50%" x2="50%" y1="0%" y2="100%"><stop offset="0%" stop-color="#59B6EC"/><stop offset="100%" stop-color="#2FA4E7"/></linearGradient><linearGradient id="g1o52qs5d8i2411" x1="50%" x2="50%" y1="0%" y2="100%"><stop offset="0%" stop-color="#FFFFFF"/><stop offset="100%" stop-color="#EDF0F2"/></linearGradient></defs><g><ellipse cx="146.3542" cy="20.8333" fill="#033C73" rx="10.4167" ry="10.4167" style="stroke:#2683B9;stroke-width:1.0416666666666667;"/><rect fill="url(#g1o52qs5d8i2410)" height="82.8837" rx="4.1667" ry="4.1667" style="stroke:#2FA4E7;stroke-width:1.0416666666666667;" width="269.7917" x="11.4583" y="52.0833"/><text fill="#FFFFFF" font-family="Gotham Black" font-size="16.6667" lengthAdjust="spacing" textLength="159.375" x="66.6667" y="79.5329">create the PHY API</text><text fill="#FFFFFF" font-family="Gotham Black" font-size="16.6667" lengthAdjust="spacing" textLength="246.875" x="22.9167" y="99.5219">parameters from the handler</text><text fill="#FFFFFF" font-family="Gotham Black" font-size="16.6667" lengthAdjust="spacing" textLength="173.9583" x="59.375" y="119.5109">function parameters</text><rect fill="url(#g1o52qs5d8i2410)" height="42.9057" rx="4.1667" ry="4.1667" style="stroke:#2FA4E7;stroke-width:1.0416666666666667;" width="223.9583" x="34.375" y="155.8004"/><text fill="#FFFFFF" font-family="Gotham Black" font-size="16.6667" lengthAdjust="spacing" textLength="201.0417" x="45.8333" y="183.2499">indicating current state</text><rect fill="url(#g1o52qs5d8i2410)" height="42.9057" rx="4.1667" ry="4.1667" style="stroke:#2FA4E7;stroke-width:1.0416666666666667;" width="157.2917" x="67.7083" y="219.5394"/><text fill="#FFFFFF" font-family="Gotham Black" font-size="16.6667" lengthAdjust="spacing" textLength="134.375" x="79.1667" y="246.9889">send to PHY API</text><rect fill="url(#g1o52qs5d8i2410)" height="42.9057" rx="4.1667" ry="4.1667" style="stroke:#2FA4E7;stroke-width:1.0416666666666667;" width="135.4167" x="78.6458" y="349.6501"/><text fill="#FFFFFF" font-family="Gotham Black" font-size="16.6667" lengthAdjust="spacing" textLength="112.5" x="90.1042" y="377.0996">logging error</text><polygon fill="url(#g1o52qs5d8i2411)" points="73.4375,285.2915,219.2708,285.2915,231.7708,300.4944,219.2708,315.6972,73.4375,315.6972,60.9375,300.4944,73.4375,285.2915" style="stroke:#BABDBF;stroke-width:1.0416666666666667;"/><text fill="#343A40" font-family="Gotham Black" font-size="16.6667" lengthAdjust="spacing" textLength="42.7083" x="155.7292" y="336.8968">error</text><text fill="#343A40" font-family="Gotham Black" font-size="16.6667" lengthAdjust="spacing" textLength="135.4167" x="78.6458" y="306.4911">function result ?</text><text fill="#343A40" font-family="Gotham Black" font-size="16.6667" lengthAdjust="spacing" textLength="64.5833" x="236.9792" y="291.2882">success</text><polygon fill="url(#g1o52qs5d8i2411)" points="146.3542,413.3891,158.8542,425.8891,146.3542,438.3891,133.8542,425.8891,146.3542,413.3891" style="stroke:#BABDBF;stroke-width:1.0416666666666667;"/><ellipse cx="146.3542" cy="469.6391" fill="none" rx="10.4167" ry="10.4167" style="stroke:#033C73;stroke-width:1.5625;"/><line style="stroke:#033C73;stroke-width:2.604166666666667;" x1="139.9092" x2="152.7992" y1="463.1941" y2="476.0841"/><line style="stroke:#033C73;stroke-width:2.604166666666667;" x1="152.7992" x2="139.9092" y1="463.1941" y2="476.0841"/><line style="stroke:#2FA4E7;stroke-width:3.125;" x1="146.3542" x2="146.3542" y1="31.25" y2="52.0833"/><polygon fill="#2FA4E7" points="142.1875,41.6667,146.3542,52.0833,150.5208,41.6667,146.3542,45.8333" style="stroke:#2FA4E7;stroke-width:1.0416666666666667;"/><line style="stroke:#2FA4E7;stroke-width:3.125;" x1="146.3542" x2="146.3542" y1="134.967" y2="155.8004"/><polygon fill="#2FA4E7" points="142.1875,145.3837,146.3542,155.8004,150.5208,145.3837,146.3542,149.5504" style="stroke:#2FA4E7;stroke-width:1.0416666666666667;"/><line style="stroke:#2FA4E7;stroke-width:3.125;" x1="146.3542" x2="146.3542" y1="198.7061" y2="219.5394"/><polygon fill="#2FA4E7" points="142.1875,209.1227,146.3542,219.5394,150.5208,209.1227,146.3542,213.2894" style="stroke:#2FA4E7;stroke-width:1.0416666666666667;"/><line style="stroke:#2FA4E7;stroke-width:3.125;" x1="146.3542" x2="146.3542" y1="315.6972" y2="349.6501"/><polygon fill="#2FA4E7" points="142.1875,339.2334,146.3542,349.6501,150.5208,339.2334,146.3542,343.4001" style="stroke:#2FA4E7;stroke-width:1.0416666666666667;"/><line style="stroke:#2FA4E7;stroke-width:1.5625;stroke-dasharray:7.0,7.0;" x1="231.7708" x2="244.2708" y1="300.4944" y2="300.4944"/><polygon fill="#2FA4E7" points="240.1042,364.5432,244.2708,374.9598,248.4375,364.5432,244.2708,368.7098" style="stroke:#2FA4E7;stroke-width:1.5625;stroke-dasharray:7.0,7.0;"/><line style="stroke:#2FA4E7;stroke-width:1.5625;stroke-dasharray:7.0,7.0;" x1="244.2708" x2="244.2708" y1="300.4944" y2="425.8891"/><line style="stroke:#2FA4E7;stroke-width:1.5625;stroke-dasharray:7.0,7.0;" x1="244.2708" x2="158.8542" y1="425.8891" y2="425.8891"/><polygon fill="#2FA4E7" points="169.2708,421.7224,158.8542,425.8891,169.2708,430.0557,165.1042,425.8891" style="stroke:#2FA4E7;stroke-width:1.0416666666666667;"/><line style="stroke:#2FA4E7;stroke-width:3.125;" x1="146.3542" x2="146.3542" y1="392.5557" y2="413.3891"/><polygon fill="#2FA4E7" points="142.1875,402.9724,146.3542,413.3891,150.5208,402.9724,146.3542,407.1391" style="stroke:#2FA4E7;stroke-width:1.0416666666666667;"/><line style="stroke:#2FA4E7;stroke-width:3.125;" x1="146.3542" x2="146.3542" y1="262.4451" y2="285.2915"/><polygon fill="#2FA4E7" points="142.1875,274.8749,146.3542,285.2915,150.5208,274.8749,146.3542,279.0415" style="stroke:#2FA4E7;stroke-width:1.0416666666666667;"/><line style="stroke:#2FA4E7;stroke-width:3.125;" x1="146.3542" x2="146.3542" y1="438.3891" y2="459.2224"/><polygon fill="#2FA4E7" points="142.1875,448.8057,146.3542,459.2224,150.5208,448.8057,146.3542,452.9724" style="stroke:#2FA4E7;stroke-width:1.0416666666666667;"/><!--SRC=[POuzImH138Rx-HMnsokkiB7O1UL4r6laG1iHYp2JsHrkDdDaCY3-UhChUe8fKkHvFtAX4yq4dgHbGdRrcFY4WZFSKSIMzRwmFgTFWikhFp2SuHEQ_w7ePEVRZFxe_kjUw4DtEOqy4wkLiPAOJ57KzLu8bS0UWSFZA-mEUxUQoKGLefHvPHDoo6QBZRscmd0M3QvF7997JJo2Ro9BZSKh6Qh40RJyX0ykHUX-KuIgFGWtcwM4eQlDUwfruy1c-nQmJXJUjzUESYNeIAJ8D-np6SUbSBqDpcfINBRx0W00]--></g></svg>