<?xml version="1.0" encoding="us-ascii" standalone="no"?><svg xmlns="http://www.w3.org/2000/svg" xmlns:xlink="http://www.w3.org/1999/xlink" contentStyleType="text/css" height="1048.9583px" preserveAspectRatio="none" style="width:610px;height:1048px;" version="1.1" viewBox="0 0 610 1048" width="610.4167px" zoomAndPan="magnify"><defs><linearGradient id="g29owvvrk63d90" x1="50%" x2="50%" y1="0%" y2="100%"><stop offset="0%" stop-color="#59B6EC"/><stop offset="100%" stop-color="#2FA4E7"/></linearGradient></defs><g><!--cluster MAC--><g id="cluster_MAC"><path d="M166.0833,16.6667 L215.0417,16.6667 A6.25,6.25 0 0 1 219.2083,20.8333 L226.5,53.3223 L505.6667,53.3223 A4.1667,4.1667 0 0 1 509.8333,57.489 L509.8333,644.7917 A4.1667,4.1667 0 0 1 505.6667,648.9583 L166.0833,648.9583 A4.1667,4.1667 0 0 1 161.9167,644.7917 L161.9167,20.8333 A4.1667,4.1667 0 0 1 166.0833,16.6667 " fill="none" style="stroke:#59B6EC;stroke-width:2.0833333333333335;"/><line style="stroke:#59B6EC;stroke-width:2.0833333333333335;" x1="161.9167" x2="226.5" y1="53.3223" y2="53.3223"/><text fill="#2FA4E7" font-family="Gotham Black" font-size="16.6667" font-weight="bold" lengthAdjust="spacing" textLength="40.625" x="171.2917" y="39.9495">MAC</text></g><g id="elem_harq"><ellipse cx="253.7071" cy="279.3126" fill="url(#g29owvvrk63d90)" rx="56.8946" ry="24.6251" style="stroke:#2FA4E7;stroke-width:2.0833333333333335;"/><text fill="#FFFFFF" font-family="Gotham Black" font-size="16.6667" font-weight="bold" lengthAdjust="spacing" textLength="53.125" x="227.1446" y="283.2259">HARQ</text></g><g id="elem_queue"><ellipse cx="242.107" cy="444.4167" fill="url(#g29owvvrk63d90)" rx="63.5237" ry="24.6251" style="stroke:#2FA4E7;stroke-width:2.0833333333333335;"/><text fill="#FFFFFF" font-family="Gotham Black" font-size="16.6667" font-weight="bold" lengthAdjust="spacing" textLength="62.5" x="210.857" y="448.3301">QUEUE</text></g><g id="elem_handler"><ellipse cx="394.1597" cy="607.9584" fill="url(#g29owvvrk63d90)" rx="81.2014" ry="24.6251" style="stroke:#2FA4E7;stroke-width:2.0833333333333335;"/><text fill="#FFFFFF" font-family="Gotham Black" font-size="16.6667" font-weight="bold" lengthAdjust="spacing" textLength="87.5" x="350.4097" y="611.8718">HANDLER</text></g><g id="elem_callback"><ellipse cx="373.1693" cy="91.2917" fill="url(#g29owvvrk63d90)" rx="96.6693" ry="24.6251" style="stroke:#2FA4E7;stroke-width:2.0833333333333335;"/><text fill="#FFFFFF" font-family="Gotham Black" font-size="16.6667" font-weight="bold" lengthAdjust="spacing" textLength="109.375" x="318.4818" y="95.2051">CALLBACKS</text></g><g id="elem_node"><ellipse cx="399.5404" cy="444.4167" fill="url(#g29owvvrk63d90)" rx="56.8946" ry="24.6251" style="stroke:#2FA4E7;stroke-width:2.0833333333333335;"/><text fill="#FFFFFF" font-family="Gotham Black" font-size="16.6667" font-weight="bold" lengthAdjust="spacing" textLength="53.125" x="372.9779" y="448.3301">NODE</text></g><!--entity user--><g id="elem_user"><ellipse cx="85.875" cy="61.4583" fill="url(#g29owvvrk63d90)" rx="16.6667" ry="16.6667" style="stroke:#2FA4E7;stroke-width:1.0416666666666667;"/><path d="M85.875,82.2917 C90.0417,82.2917 93.1667,82.2917 97.3333,78.125 C105.6667,78.125 114,86.4583 114,94.7917 L114,98.9583 C114,103.125 109.8333,107.2917 105.6667,107.2917 L66.0833,107.2917 C61.9167,107.2917 57.75,103.125 57.75,98.9583 L57.75,94.7917 C57.75,86.4583 66.0833,78.125 74.4167,78.125 C78.5833,82.2917 81.7083,82.2917 85.875,82.2917 " fill="url(#g29owvvrk63d90)" style="stroke:#2FA4E7;stroke-width:1.0416666666666667;"/><text fill="#343A40" font-family="Gotham Black" font-size="16.6667" font-weight="bold" lengthAdjust="spacing" textLength="47.9167" x="61.9167" y="129.5329">USER</text></g><g id="elem_phy"><ellipse cx="465.2391" cy="790.158" fill="url(#g29owvvrk63d90)" rx="50.7183" ry="41.1997" style="stroke:#2FA4E7;stroke-width:2.0833333333333335;"/><text fill="#FFFFFF" font-family="Gotham Black" font-size="16.6667" font-weight="bold" lengthAdjust="spacing" textLength="34.375" x="448.0516" y="778.8685">PHY</text><text fill="#FFFFFF" font-family="Gotham Black" font-size="16.6667" font-weight="bold" lengthAdjust="spacing" textLength="29.1667" x="450.6558" y="809.2742">API</text></g><g id="elem_modem"><ellipse cx="465.2765" cy="991.9585" fill="url(#g29owvvrk63d90)" rx="67.9431" ry="46.1251" style="stroke:#2FA4E7;stroke-width:2.0833333333333335;"/><text fill="#FFFFFF" font-family="Gotham Black" font-size="16.6667" font-weight="bold" lengthAdjust="spacing" textLength="68.75" x="430.9015" y="980.669">MODEM</text><text fill="#FFFFFF" font-family="Gotham Black" font-size="16.6667" font-weight="bold" lengthAdjust="spacing" textLength="51.0417" x="439.7556" y="1011.0747">CORE</text></g><!--link user to queue--><g id="link_user_queue"><path d="M60.125,138.7292 C38.9896,183.6458 16.6667,252.4167 44.2083,305.2083 C76.2813,366.6771 143.8536,403.9059 191.687,424.2705 " fill="none" id="user-to-queue" style="stroke:#2FA4E7;stroke-width:3.125;"/><polygon fill="#2FA4E7" points="197.4375,426.7188,190.4439,419.2127,192.6454,424.6786,187.1795,426.8801,197.4375,426.7188" style="stroke:#2FA4E7;stroke-width:3.125;"/><text fill="#343A40" font-family="Gotham Black" font-size="16.6667" lengthAdjust="spacing" textLength="76.0417" x="73.375" y="275.3662">schedule</text><text fill="#343A40" font-family="Gotham Black" font-size="16.6667" lengthAdjust="spacing" textLength="121.875" x="50.4583" y="295.3552">PHY operation</text></g><!--link user to harq--><g id="link_user_harq"><path d="M78.4375,138.5937 C76.7188,165.5208 79.3958,198.6042 97.3333,221.875 C104.4167,231.0625 158.4259,249.0979 201.9572,262.5875 " fill="none" id="user-to-harq" style="stroke:#2FA4E7;stroke-width:3.125;"/><polygon fill="#2FA4E7" points="207.9271,264.4375,200.2055,257.6826,202.9521,262.8959,197.7389,265.6425,207.9271,264.4375" style="stroke:#2FA4E7;stroke-width:3.125;"/><text fill="#343A40" font-family="Gotham Black" font-size="16.6667" lengthAdjust="spacing" textLength="76.0417" x="135.875" y="192.0329">schedule</text><text fill="#343A40" font-family="Gotham Black" font-size="16.6667" lengthAdjust="spacing" textLength="140.625" x="103.5833" y="212.0219">HARQ operation</text></g><!--link harq to queue--><g id="link_harq_queue"><path d="M251.8125,303.7396 C251.0625,313.8125 250.1875,325.7188 249.4167,336.4583 C247.3854,365 245.5736,391.6077 244.1257,413.2431 " fill="none" id="harq-to-queue" style="stroke:#2FA4E7;stroke-width:3.125;"/><polygon fill="#2FA4E7" points="243.7083,419.4792,248.4917,410.4033,244.0561,414.2825,240.177,409.8469,243.7083,419.4792" style="stroke:#2FA4E7;stroke-width:3.125;"/><text fill="#343A40" font-family="Gotham Black" font-size="16.6667" lengthAdjust="spacing" textLength="76.0417" x="278.5833" y="358.6995">schedule</text><text fill="#343A40" font-family="Gotham Black" font-size="16.6667" lengthAdjust="spacing" textLength="121.875" x="255.6667" y="378.6886">PHY operation</text></g><!--link queue to handler--><g id="link_queue_handler"><path d="M236.9583,469.0313 C233.2708,492.4792 231.6875,528.2188 249.4167,552.0833 C266.6458,575.2708 288.9267,586.9126 315.9475,594.6105 " fill="none" id="queue-to-handler" style="stroke:#2FA4E7;stroke-width:3.125;"/><polygon fill="#2FA4E7" points="321.9583,596.3229,314.0837,589.7471,316.9493,594.8959,311.8005,597.7615,321.9583,596.3229" style="stroke:#2FA4E7;stroke-width:3.125;"/><text fill="#343A40" font-family="Gotham Black" font-size="16.6667" lengthAdjust="spacing" textLength="125" x="255.6667" y="522.2412">give operation</text><text fill="#343A40" font-family="Gotham Black" font-size="16.6667" lengthAdjust="spacing" textLength="87.5" x="274.4167" y="542.2302">to handler</text></g><!--link handler to phy--><g id="link_handler_phy"><path d="M395.5313,632.6458 C397.4688,655.2917 402.25,689.9375 414,717.7083 C419.6458,731.0313 424.4103,739.2654 432.8478,750.682 " fill="none" id="handler-to-phy" style="stroke:#2FA4E7;stroke-width:3.125;"/><polygon fill="#2FA4E7" points="436.5625,755.7083,434.3413,745.6924,433.4669,751.5198,427.6396,750.6454,436.5625,755.7083" style="stroke:#2FA4E7;stroke-width:3.125;"/><text fill="#343A40" font-family="Gotham Black" font-size="16.6667" lengthAdjust="spacing" textLength="67.7083" x="428.0625" y="687.8662">execute</text><text fill="#343A40" font-family="Gotham Black" font-size="16.6667" lengthAdjust="spacing" textLength="83.3333" x="420.25" y="707.8552">operation</text></g><!--link phy to modem--><g id="link_phy_modem"><path d="M427.6875,817.875 C414.1458,829.8125 400.3958,845.1354 393.1667,862.5 C384.2708,883.875 384.6458,893.0625 393.1667,914.5833 C399.3438,930.1771 406.0024,939.9824 417.5857,951.8678 " fill="none" id="phy-to-modem" style="stroke:#2FA4E7;stroke-width:3.125;"/><polygon fill="#2FA4E7" points="421.9479,956.3438,418.3886,946.7217,418.3128,952.6138,412.4207,952.538,421.9479,956.3438" style="stroke:#2FA4E7;stroke-width:3.125;"/><text fill="#343A40" font-family="Gotham Black" font-size="16.6667" lengthAdjust="spacing" textLength="67.7083" x="407.2292" y="884.7412">execute</text><text fill="#343A40" font-family="Gotham Black" font-size="16.6667" lengthAdjust="spacing" textLength="83.3333" x="399.4167" y="904.7302">operation</text></g><!--link modem to phy--><g id="link_modem_phy"><path d="M484.125,947.3438 C487.8646,936.8125 491.2396,925.4583 493.1667,914.5833 C497.2188,891.7917 497.4896,885.2396 493.1667,862.5 C491.0313,851.25 489.4539,845.3228 485.2456,834.6769 " fill="none" id="modem-to-phy" style="stroke:#7FFFD4;stroke-width:3.125;"/><polygon fill="#7FFFD4" points="482.9479,828.8646,482.5195,839.1149,484.8626,833.7082,490.2693,836.0513,482.9479,828.8646" style="stroke:#7FFFD4;stroke-width:3.125;"/><text fill="#008B8B" font-family="Gotham Black" font-size="16.6667" lengthAdjust="spacing" textLength="48.9583" x="502.5417" y="894.637">result</text></g><!--link phy to callback--><g id="link_phy_callback"><path d="M492.375,755.1042 C500.3646,743.7604 508.4479,730.6875 514,717.7083 C533.4583,672.2604 536.9167,658.2917 536.9167,608.8542 C536.9167,278.125 536.9167,278.125 536.9167,278.125 C536.9167,202.8958 465.8127,146.917 417.4482,116.9483 " fill="none" id="phy-to-callback" style="stroke:#7FFFD4;stroke-width:3.125;"/><polygon fill="#7FFFD4" points="412.1354,113.6563,417.9099,122.1361,416.5627,116.3996,422.2992,115.0524,412.1354,113.6563" style="stroke:#7FFFD4;stroke-width:3.125;"/><text fill="#008B8B" font-family="Gotham Black" font-size="16.6667" lengthAdjust="spacing" textLength="48.9583" x="543.1667" y="450.3662">result</text></g><!--link callback to user--><g id="link_callback_user"><path d="M276.3333,91.1458 C220,91.1458 159.1875,91.1458 121.5417,91.1458 " fill="none" id="callback-to-user" style="stroke:#7FFFD4;stroke-width:3.125;"/><polygon fill="#7FFFD4" points="115.2917,91.1458,124.6667,95.3125,120.5,91.1458,124.6667,86.9792,115.2917,91.1458" style="stroke:#7FFFD4;stroke-width:3.125;"/><text fill="#008B8B" font-family="Gotham Black" font-size="16.6667" lengthAdjust="spacing" textLength="93.75" x="148.8958" y="58.1787">send result</text><text fill="#008B8B" font-family="Gotham Black" font-size="16.6667" lengthAdjust="spacing" textLength="58.3333" x="166.6042" y="78.1677">to user</text></g><!--link callback to harq--><g id="link_callback_harq"><path d="M335.7917,113.8333 C315.5417,127.3854 291.8438,146.6667 277.5417,169.7917 C261.4375,195.8438 256.5594,225.0903 254.8302,248.2361 " fill="none" id="callback-to-harq" style="stroke:#7FFFD4;stroke-width:3.125;"/><polygon fill="#7FFFD4" points="254.3646,254.4687,259.2181,245.4302,254.7526,249.2749,250.9079,244.8094,254.3646,254.4687" style="stroke:#7FFFD4;stroke-width:3.125;"/><text fill="#008B8B" font-family="Gotham Black" font-size="16.6667" lengthAdjust="spacing" textLength="93.75" x="283.7917" y="192.0329">send result</text><text fill="#008B8B" font-family="Gotham Black" font-size="16.6667" lengthAdjust="spacing" textLength="61.4583" x="299.9375" y="212.0219">to harq</text></g><!--link node to handler--><g id="link_node_handler"><path d="M398.4647,475.0384 C397.4752,505.653 396.1602,546.3887 395.1706,577.0137 " fill="none" id="node-handler" style="stroke:#2FA4E7;stroke-width:3.125;"/><polygon fill="#2FA4E7" points="398.6667,468.7917,394.1993,478.0272,398.4984,473.9973,402.5283,478.2964,398.6667,468.7917" style="stroke:#2FA4E7;stroke-width:3.125;"/><polygon fill="#2FA4E7" points="394.9688,583.2604,399.436,574.0249,395.137,578.0548,391.107,573.7557,394.9688,583.2604" style="stroke:#2FA4E7;stroke-width:3.125;"/><text fill="#343A40" font-family="Gotham Black" font-size="16.6667" lengthAdjust="spacing" textLength="86.4583" x="403.5833" y="522.2412">get power</text><text fill="#343A40" font-family="Gotham Black" font-size="16.6667" lengthAdjust="spacing" textLength="70.8333" x="411.3958" y="542.2302">and mcs</text></g><!--link callback to node--><g id="link_callback_node"><path d="M378.7396,115.8333 C381.9792,131.1354 385.875,151.5417 387.9583,169.7917 C398.4792,261.8438 399.6319,366.0625 399.5798,413.4792 " fill="none" id="callback-to-node" style="stroke:#2FA4E7;stroke-width:3.125;"/><polygon fill="#2FA4E7" points="399.5729,419.7292,403.7499,410.3587,399.5786,414.5208,395.4166,410.3496,399.5729,419.7292" style="stroke:#2FA4E7;stroke-width:3.125;"/><text fill="#343A40" font-family="Gotham Black" font-size="16.6667" lengthAdjust="spacing" textLength="76.0417" x="403.5833" y="275.3662">optimize</text><text fill="#343A40" font-family="Gotham Black" font-size="16.6667" lengthAdjust="spacing" textLength="42.7083" x="420.25" y="295.3552">node</text></g><!--SRC=[bLHDRzCm6BxxLxoCmo3I3bmu13IfQpk6QBkjPGUaNhpapMBLiJFReGk8_yvhEsdJWaIfTkZyVBmVVkfNhiGA8KFJIEIAsOrGDJUyWWaMl97kMYkt4ZyGthqVWFaUN73IVzAkfEChoRCDOmCYpvmsAzTA1Bv5gojaB4sIXzLqcIGfS0kDHSDOJKB-X30VZU4d0_hGUSOjGidDi-UT9SdDQ7cV96Vi07zkiC6ESFymVPW6nhcdV2qns4F65TIDBK7NQBWJMe5GGAD394OF6i71LaW9ZmWsAp6ddUJ0LTxHy0Mpnj7HOnl49K6IkZ_lomaBzFUcqjR9zctWe7AcXLeBvQ3G9Z9TrvYbJe-63OwxUHUJcL_KSA2UGeMu7yEXANWMkuyiAwfQYgBjolYrwYByStVp3IHl_spvkDC1VtJt-MZZ6PVoaUwhwt8yciskHkClgyC-TwoYKPbVEVLhS3y_lWXtIZMby_vw5xUJSBk_6ElHkcmxaDH9mfA4768Zmzdsrhsm8jkgayx9Tnx4uzlbz52zBT5GVGf5ZClo6gnhYi9ZkLReRp2u6hYukBZiefJkyhDMllOkTptpCkPwoFFf7X03VefZnADbZ4OAJ-8xxYbhvVGkh3t92_psqZxMQxNtz80dn2tzbHAXpkMr50fJ_jpmYXlw-i7XYqjpRZPPIobDmQ2bzwBp9KsVZbE5kpHviT_XFuKMwNSRrM7-yCuSsFWD_xUD5x6GoOz7AqSVvosQjV8lHfNPOJMY1b5Aj-94HG_gMla3oivl]--></g></svg>