<?xml version="1.0" encoding="us-ascii" standalone="no"?><svg xmlns="http://www.w3.org/2000/svg" xmlns:xlink="http://www.w3.org/1999/xlink" contentStyleType="text/css" height="608.3333px" preserveAspectRatio="none" style="width:659px;height:608px;" version="1.1" viewBox="0 0 659 608" width="659.375px" zoomAndPan="magnify"><defs><linearGradient id="gubpfljgvzduq0" x1="50%" x2="50%" y1="0%" y2="100%"><stop offset="0%" stop-color="#59B6EC"/><stop offset="100%" stop-color="#2FA4E7"/></linearGradient><linearGradient id="gubpfljgvzduq1" x1="50%" x2="50%" y1="0%" y2="100%"><stop offset="0%" stop-color="#FFFFFF"/><stop offset="100%" stop-color="#EDF0F2"/></linearGradient></defs><g><ellipse cx="344.7917" cy="20.8333" fill="#033C73" rx="10.4167" ry="10.4167" style="stroke:#2683B9;stroke-width:1.0416666666666667;"/><rect fill="url(#gubpfljgvzduq0)" height="36.6557" rx="4.1667" ry="4.1667" style="stroke:#2FA4E7;stroke-width:1.0416666666666667;" width="255.2083" x="217.1875" y="52.0833"/><text fill="#FFFFFF" font-family="Gotham Black" font-size="16.6667" lengthAdjust="spacing" textLength="238.5417" x="225.5208" y="76.4079">get feedback from message</text><rect fill="url(#gubpfljgvzduq0)" height="36.6557" rx="4.1667" ry="4.1667" style="stroke:#2FA4E7;stroke-width:1.0416666666666667;" width="172.9167" x="258.3333" y="109.5723"/><text fill="#FFFFFF" font-family="Gotham Black" font-size="16.6667" lengthAdjust="spacing" textLength="156.25" x="266.6667" y="133.8969">get HARQ process</text><polygon fill="url(#gubpfljgvzduq1)" points="271.3542,168.6523,418.2292,168.6523,430.7292,181.1523,418.2292,193.6523,271.3542,193.6523,258.8542,181.1523,271.3542,168.6523" style="stroke:#BABDBF;stroke-width:1.0416666666666667;"/><text fill="#343A40" font-family="Gotham Black" font-size="16.6667" lengthAdjust="spacing" textLength="142.7083" x="273.4375" y="187.149">feedback format</text><text fill="#343A40" font-family="Gotham Black" font-size="16.6667" lengthAdjust="spacing" textLength="69.7917" x="186.9792" y="175.0712">format 1</text><text fill="#343A40" font-family="Gotham Black" font-size="16.6667" lengthAdjust="spacing" textLength="214.5833" x="432.8125" y="175.0712">format 6 (implicit NACK)</text><polygon fill="url(#gubpfljgvzduq1)" points="105.7292,204.069,268.2292,204.069,280.7292,216.569,268.2292,229.069,105.7292,229.069,93.2292,216.569,105.7292,204.069" style="stroke:#BABDBF;stroke-width:1.0416666666666667;"/><text fill="#343A40" font-family="Gotham Black" font-size="16.6667" lengthAdjust="spacing" textLength="158.3333" x="107.8125" y="222.5657">acknowledgement</text><text fill="#343A40" font-family="Gotham Black" font-size="16.6667" lengthAdjust="spacing" textLength="38.5417" x="52.6042" y="210.4879">ACK</text><text fill="#343A40" font-family="Gotham Black" font-size="16.6667" lengthAdjust="spacing" textLength="52.0833" x="282.8125" y="210.4879">NACK</text><rect fill="url(#gubpfljgvzduq0)" height="76.6337" rx="4.1667" ry="4.1667" style="stroke:#2FA4E7;stroke-width:1.0416666666666667;" width="142.7083" x="11.4583" y="239.4857"/><text fill="#FFFFFF" font-family="Gotham Black" font-size="16.6667" lengthAdjust="spacing" textLength="69.7917" x="19.7917" y="263.8102">stop the</text><text fill="#FFFFFF" font-family="Gotham Black" font-size="16.6667" lengthAdjust="spacing" textLength="126.0417" x="19.7917" y="283.7992">retransmission</text><text fill="#FFFFFF" font-family="Gotham Black" font-size="16.6667" lengthAdjust="spacing" textLength="41.6667" x="19.7917" y="303.7882">work</text><rect fill="url(#gubpfljgvzduq0)" height="56.6447" rx="4.1667" ry="4.1667" style="stroke:#2FA4E7;stroke-width:1.0416666666666667;" width="139.5833" x="13.0208" y="352.5777"/><text fill="#FFFFFF" font-family="Gotham Black" font-size="16.6667" lengthAdjust="spacing" textLength="66.6667" x="21.3542" y="376.9023">free the</text><text fill="#FFFFFF" font-family="Gotham Black" font-size="16.6667" lengthAdjust="spacing" textLength="122.9167" x="21.3542" y="396.8913">HARQ process</text><rect fill="url(#gubpfljgvzduq0)" height="56.6447" rx="4.1667" ry="4.1667" style="stroke:#2FA4E7;stroke-width:1.0416666666666667;" width="175" x="203.6458" y="239.4857"/><text fill="#FFFFFF" font-family="Gotham Black" font-size="16.6667" lengthAdjust="spacing" textLength="107.2917" x="211.9792" y="263.8102">log negative</text><text fill="#FFFFFF" font-family="Gotham Black" font-size="16.6667" lengthAdjust="spacing" textLength="158.3333" x="211.9792" y="283.7992">acknowledgement</text><rect fill="url(#gubpfljgvzduq0)" height="56.6447" rx="4.1667" ry="4.1667" style="stroke:#2FA4E7;stroke-width:1.0416666666666667;" width="185.4167" x="198.4375" y="332.5887"/><text fill="#FFFFFF" font-family="Gotham Black" font-size="16.6667" lengthAdjust="spacing" textLength="87.5" x="206.7708" y="356.9132">increment</text><text fill="#FFFFFF" font-family="Gotham Black" font-size="16.6667" lengthAdjust="spacing" textLength="168.75" x="206.7708" y="376.9023">redundancy version</text><rect fill="url(#gubpfljgvzduq0)" height="56.6447" rx="4.1667" ry="4.1667" style="stroke:#2FA4E7;stroke-width:1.0416666666666667;" width="146.875" x="217.7083" y="425.6917"/><text fill="#FFFFFF" font-family="Gotham Black" font-size="16.6667" lengthAdjust="spacing" textLength="90.625" x="226.0417" y="450.0163">retransmit</text><text fill="#FFFFFF" font-family="Gotham Black" font-size="16.6667" lengthAdjust="spacing" textLength="130.2083" x="226.0417" y="470.0053">the packet now</text><polygon fill="url(#gubpfljgvzduq1)" points="186.9792,492.7531,199.4792,505.2531,186.9792,517.7531,174.4792,505.2531,186.9792,492.7531" style="stroke:#BABDBF;stroke-width:1.0416666666666667;"/><rect fill="url(#gubpfljgvzduq0)" height="56.6447" rx="4.1667" ry="4.1667" style="stroke:#2FA4E7;stroke-width:1.0416666666666667;" width="175" x="415.1042" y="204.069"/><text fill="#FFFFFF" font-family="Gotham Black" font-size="16.6667" lengthAdjust="spacing" textLength="107.2917" x="423.4375" y="228.3936">log negative</text><text fill="#FFFFFF" font-family="Gotham Black" font-size="16.6667" lengthAdjust="spacing" textLength="158.3333" x="423.4375" y="248.3826">acknowledgement</text><rect fill="url(#gubpfljgvzduq0)" height="56.6447" rx="4.1667" ry="4.1667" style="stroke:#2FA4E7;stroke-width:1.0416666666666667;" width="166.6667" x="419.2708" y="297.172"/><text fill="#FFFFFF" font-family="Gotham Black" font-size="16.6667" lengthAdjust="spacing" textLength="150" x="427.6042" y="321.4966">reset redundancy</text><text fill="#FFFFFF" font-family="Gotham Black" font-size="16.6667" lengthAdjust="spacing" textLength="62.5" x="427.6042" y="341.4856">version</text><rect fill="url(#gubpfljgvzduq0)" height="56.6447" rx="4.1667" ry="4.1667" style="stroke:#2FA4E7;stroke-width:1.0416666666666667;" width="139.5833" x="432.8125" y="390.2751"/><text fill="#FFFFFF" font-family="Gotham Black" font-size="16.6667" lengthAdjust="spacing" textLength="122.9167" x="441.1458" y="414.5996">retransmit the</text><text fill="#FFFFFF" font-family="Gotham Black" font-size="16.6667" lengthAdjust="spacing" textLength="97.9167" x="441.1458" y="434.5886">packet now</text><polygon fill="url(#gubpfljgvzduq1)" points="344.7917,528.1698,357.2917,540.6698,344.7917,553.1698,332.2917,540.6698,344.7917,528.1698" style="stroke:#BABDBF;stroke-width:1.0416666666666667;"/><ellipse cx="344.7917" cy="585.4614" fill="none" rx="11.4583" ry="11.4583" style="stroke:#2683B9;stroke-width:1.0416666666666667;"/><ellipse cx="344.7917" cy="585.4614" fill="none" rx="6.25" ry="6.25" style="stroke:#2683B9;stroke-width:1.0416666666666667;"/><line style="stroke:#2FA4E7;stroke-width:3.125;" x1="344.7917" x2="344.7917" y1="31.25" y2="52.0833"/><polygon fill="#2FA4E7" points="340.625,41.6667,344.7917,52.0833,348.9583,41.6667,344.7917,45.8333" style="stroke:#2FA4E7;stroke-width:1.0416666666666667;"/><line style="stroke:#2FA4E7;stroke-width:3.125;" x1="344.7917" x2="344.7917" y1="88.739" y2="109.5723"/><polygon fill="#2FA4E7" points="340.625,99.1557,344.7917,109.5723,348.9583,99.1557,344.7917,103.3223" style="stroke:#2FA4E7;stroke-width:1.0416666666666667;"/><line style="stroke:#2FA4E7;stroke-width:3.125;" x1="82.8125" x2="82.8125" y1="316.1194" y2="352.5777"/><polygon fill="#2FA4E7" points="78.6458,342.1611,82.8125,352.5777,86.9792,342.1611,82.8125,346.3277" style="stroke:#2FA4E7;stroke-width:1.0416666666666667;"/><line style="stroke:#2FA4E7;stroke-width:3.125;" x1="291.1458" x2="291.1458" y1="296.1304" y2="332.5887"/><polygon fill="#2FA4E7" points="286.9792,322.172,291.1458,332.5887,295.3125,322.172,291.1458,326.3387" style="stroke:#2FA4E7;stroke-width:1.0416666666666667;"/><line style="stroke:#2FA4E7;stroke-width:3.125;" x1="291.1458" x2="291.1458" y1="389.2334" y2="425.6917"/><polygon fill="#2FA4E7" points="286.9792,415.2751,291.1458,425.6917,295.3125,415.2751,291.1458,419.4417" style="stroke:#2FA4E7;stroke-width:1.0416666666666667;"/><line style="stroke:#2FA4E7;stroke-width:3.125;" x1="93.2292" x2="82.8125" y1="216.569" y2="216.569"/><line style="stroke:#2FA4E7;stroke-width:3.125;" x1="82.8125" x2="82.8125" y1="216.569" y2="239.4857"/><polygon fill="#2FA4E7" points="78.6458,229.069,82.8125,239.4857,86.9792,229.069,82.8125,233.2357" style="stroke:#2FA4E7;stroke-width:1.0416666666666667;"/><line style="stroke:#2FA4E7;stroke-width:3.125;" x1="280.7292" x2="291.1458" y1="216.569" y2="216.569"/><line style="stroke:#2FA4E7;stroke-width:3.125;" x1="291.1458" x2="291.1458" y1="216.569" y2="239.4857"/><polygon fill="#2FA4E7" points="286.9792,229.069,291.1458,239.4857,295.3125,229.069,291.1458,233.2357" style="stroke:#2FA4E7;stroke-width:1.0416666666666667;"/><line style="stroke:#2FA4E7;stroke-width:3.125;" x1="82.8125" x2="82.8125" y1="409.2224" y2="505.2531"/><line style="stroke:#2FA4E7;stroke-width:3.125;" x1="82.8125" x2="174.4792" y1="505.2531" y2="505.2531"/><polygon fill="#2FA4E7" points="164.0625,501.0864,174.4792,505.2531,164.0625,509.4198,168.2292,505.2531" style="stroke:#2FA4E7;stroke-width:1.0416666666666667;"/><line style="stroke:#2FA4E7;stroke-width:3.125;" x1="291.1458" x2="291.1458" y1="482.3364" y2="505.2531"/><line style="stroke:#2FA4E7;stroke-width:3.125;" x1="291.1458" x2="199.4792" y1="505.2531" y2="505.2531"/><polygon fill="#2FA4E7" points="209.8958,501.0864,199.4792,505.2531,209.8958,509.4198,205.7292,505.2531" style="stroke:#2FA4E7;stroke-width:1.0416666666666667;"/><line style="stroke:#2FA4E7;stroke-width:3.125;" x1="502.6042" x2="502.6042" y1="260.7137" y2="297.172"/><polygon fill="#2FA4E7" points="498.4375,286.7554,502.6042,297.172,506.7708,286.7554,502.6042,290.922" style="stroke:#2FA4E7;stroke-width:1.0416666666666667;"/><line style="stroke:#2FA4E7;stroke-width:3.125;" x1="502.6042" x2="502.6042" y1="353.8167" y2="390.2751"/><polygon fill="#2FA4E7" points="498.4375,379.8584,502.6042,390.2751,506.7708,379.8584,502.6042,384.0251" style="stroke:#2FA4E7;stroke-width:1.0416666666666667;"/><line style="stroke:#2FA4E7;stroke-width:3.125;" x1="258.8542" x2="186.9792" y1="181.1523" y2="181.1523"/><line style="stroke:#2FA4E7;stroke-width:3.125;" x1="186.9792" x2="186.9792" y1="181.1523" y2="204.069"/><polygon fill="#2FA4E7" points="182.8125,193.6523,186.9792,204.069,191.1458,193.6523,186.9792,197.819" style="stroke:#2FA4E7;stroke-width:1.0416666666666667;"/><line style="stroke:#2FA4E7;stroke-width:3.125;" x1="430.7292" x2="502.6042" y1="181.1523" y2="181.1523"/><line style="stroke:#2FA4E7;stroke-width:3.125;" x1="502.6042" x2="502.6042" y1="181.1523" y2="204.069"/><polygon fill="#2FA4E7" points="498.4375,193.6523,502.6042,204.069,506.7708,193.6523,502.6042,197.819" style="stroke:#2FA4E7;stroke-width:1.0416666666666667;"/><line style="stroke:#2FA4E7;stroke-width:3.125;" x1="186.9792" x2="186.9792" y1="517.7531" y2="540.6698"/><line style="stroke:#2FA4E7;stroke-width:3.125;" x1="186.9792" x2="332.2917" y1="540.6698" y2="540.6698"/><polygon fill="#2FA4E7" points="321.875,536.5031,332.2917,540.6698,321.875,544.8364,326.0417,540.6698" style="stroke:#2FA4E7;stroke-width:1.0416666666666667;"/><line style="stroke:#2FA4E7;stroke-width:3.125;" x1="502.6042" x2="502.6042" y1="446.9198" y2="540.6698"/><line style="stroke:#2FA4E7;stroke-width:3.125;" x1="502.6042" x2="357.2917" y1="540.6698" y2="540.6698"/><polygon fill="#2FA4E7" points="367.7083,536.5031,357.2917,540.6698,367.7083,544.8364,363.5417,540.6698" style="stroke:#2FA4E7;stroke-width:1.0416666666666667;"/><line style="stroke:#2FA4E7;stroke-width:3.125;" x1="344.7917" x2="344.7917" y1="146.228" y2="168.6523"/><polygon fill="#2FA4E7" points="340.625,158.2357,344.7917,168.6523,348.9583,158.2357,344.7917,162.4023" style="stroke:#2FA4E7;stroke-width:1.0416666666666667;"/><line style="stroke:#2FA4E7;stroke-width:3.125;" x1="344.7917" x2="344.7917" y1="553.1698" y2="574.0031"/><polygon fill="#2FA4E7" points="340.625,563.5864,344.7917,574.0031,348.9583,563.5864,344.7917,567.7531" style="stroke:#2FA4E7;stroke-width:1.0416666666666667;"/><!--SRC=[ZP2nJiCm48PtFyMnfGk8XQ6PAXOa92IO8o5ZdysfyJcotLQyFUUuQX8clFdky-zF_rtvne1WC9r6rFmPeYL7QC6b6E3-OLuhbOjEHUqz5d28zakROoC2vgmzzcttSlXuXob58zDUaODkeMCAkkn00bd6ymqUTmhaaEi4uNWPqNhvZs_SuVcr8VNiSubJNS302KlId0FbJ947liHqx1VI9SHA3hnLgaiSCqBtjeqUemT6hmkTvT4VcrKmiKdph2hO4rlDvWVEcAh6Yhlv2LYD9ucKWYJrAi7IisegrpAUeACmZMIem6pNzFwZ9jzbIL-C1juehNHQAskTfbAxLUeN]--></g></svg>