<?xml version="1.0" encoding="us-ascii" standalone="no"?><svg xmlns="http://www.w3.org/2000/svg" xmlns:xlink="http://www.w3.org/1999/xlink" contentStyleType="text/css" height="821.875px" preserveAspectRatio="none" style="width:356px;height:821px;" version="1.1" viewBox="0 0 356 821" width="356.25px" zoomAndPan="magnify"><defs><linearGradient id="g15j8xthmg2zjw0" x1="50%" x2="50%" y1="0%" y2="100%"><stop offset="0%" stop-color="#FFFFFF"/><stop offset="100%" stop-color="#EDF0F2"/></linearGradient><linearGradient id="g15j8xthmg2zjw1" x1="50%" x2="50%" y1="0%" y2="100%"><stop offset="0%" stop-color="#59B6EC"/><stop offset="100%" stop-color="#2FA4E7"/></linearGradient></defs><g><ellipse cx="171.875" cy="20.8333" fill="#033C73" rx="10.4167" ry="10.4167" style="stroke:#2683B9;stroke-width:1.0416666666666667;"/><polygon fill="url(#g15j8xthmg2zjw0)" points="80.7292,53.6743,263.0208,53.6743,275.5208,66.1743,263.0208,78.6743,80.7292,78.6743,68.2292,66.1743,80.7292,53.6743" style="stroke:#BABDBF;stroke-width:1.0416666666666667;"/><text fill="#343A40" font-family="Gotham Black" font-size="16.6667" lengthAdjust="spacing" textLength="178.125" x="82.8125" y="72.171">node already exists ?</text><text fill="#343A40" font-family="Gotham Black" font-size="16.6667" lengthAdjust="spacing" textLength="29.1667" x="36.9792" y="60.0932">yes</text><text fill="#343A40" font-family="Gotham Black" font-size="16.6667" lengthAdjust="spacing" textLength="20.8333" x="277.6042" y="60.0932">no</text><rect fill="url(#g15j8xthmg2zjw1)" height="36.6557" rx="4.1667" ry="4.1667" style="stroke:#2FA4E7;stroke-width:1.0416666666666667;" width="92.7083" x="11.4583" y="89.091"/><text fill="#FFFFFF" font-family="Gotham Black" font-size="16.6667" lengthAdjust="spacing" textLength="76.0417" x="19.7917" y="113.4155">get node</text><rect fill="url(#g15j8xthmg2zjw1)" height="36.6557" rx="4.1667" ry="4.1667" style="stroke:#2FA4E7;stroke-width:1.0416666666666667;" width="118.75" x="226.5625" y="89.091"/><text fill="#FFFFFF" font-family="Gotham Black" font-size="16.6667" lengthAdjust="spacing" textLength="102.0833" x="234.8958" y="113.4155">create node</text><polygon fill="url(#g15j8xthmg2zjw0)" points="171.875,136.1633,184.375,148.6633,171.875,161.1633,159.375,148.6633,171.875,136.1633" style="stroke:#BABDBF;stroke-width:1.0416666666666667;"/><rect fill="url(#g15j8xthmg2zjw1)" height="56.6447" rx="4.1667" ry="4.1667" style="stroke:#2FA4E7;stroke-width:1.0416666666666667;" width="273.9583" x="34.8958" y="181.9967"/><text fill="#FFFFFF" font-family="Gotham Black" font-size="16.6667" lengthAdjust="spacing" textLength="257.2917" x="43.2292" y="206.3212">convert received transmission</text><text fill="#FFFFFF" font-family="Gotham Black" font-size="16.6667" lengthAdjust="spacing" textLength="118.75" x="43.2292" y="226.3102">power to dBm</text><rect fill="url(#g15j8xthmg2zjw1)" height="76.6337" rx="4.1667" ry="4.1667" style="stroke:#2FA4E7;stroke-width:1.0416666666666667;" width="252.0833" x="45.8333" y="259.4747"/><text fill="#FFFFFF" font-family="Gotham Black" font-size="16.6667" lengthAdjust="spacing" textLength="222.9167" x="54.1667" y="283.7992">compute how much power</text><text fill="#FFFFFF" font-family="Gotham Black" font-size="16.6667" lengthAdjust="spacing" textLength="235.4167" x="54.1667" y="303.7882">is needed to reach the node</text><text fill="#FFFFFF" font-family="Gotham Black" font-size="16.6667" lengthAdjust="spacing" textLength="171.875" x="54.1667" y="323.7773">with the RSSI target</text><rect fill="url(#g15j8xthmg2zjw1)" height="56.6447" rx="4.1667" ry="4.1667" style="stroke:#2FA4E7;stroke-width:1.0416666666666667;" width="226.0417" x="58.8542" y="356.9417"/><text fill="#FFFFFF" font-family="Gotham Black" font-size="16.6667" lengthAdjust="spacing" textLength="209.375" x="67.1875" y="381.2663">convert the dBm back to</text><text fill="#FFFFFF" font-family="Gotham Black" font-size="16.6667" lengthAdjust="spacing" textLength="165.625" x="67.1875" y="401.2553">transmission power</text><rect fill="url(#g15j8xthmg2zjw1)" height="36.6557" rx="4.1667" ry="4.1667" style="stroke:#2FA4E7;stroke-width:1.0416666666666667;" width="233.3333" x="55.2083" y="434.4198"/><text fill="#FFFFFF" font-family="Gotham Black" font-size="16.6667" lengthAdjust="spacing" textLength="216.6667" x="63.5417" y="458.7443">set the power to the node</text><rect fill="url(#g15j8xthmg2zjw1)" height="56.6447" rx="4.1667" ry="4.1667" style="stroke:#2FA4E7;stroke-width:1.0416666666666667;" width="231.25" x="56.25" y="491.9088"/><text fill="#FFFFFF" font-family="Gotham Black" font-size="16.6667" lengthAdjust="spacing" textLength="214.5833" x="64.5833" y="516.2333">compute the wanted mcs</text><text fill="#FFFFFF" font-family="Gotham Black" font-size="16.6667" lengthAdjust="spacing" textLength="200" x="64.5833" y="536.2223">with the measured SNR</text><rect fill="url(#g15j8xthmg2zjw1)" height="36.6557" rx="4.1667" ry="4.1667" style="stroke:#2FA4E7;stroke-width:1.0416666666666667;" width="139.5833" x="102.0833" y="626.8056"/><text fill="#FFFFFF" font-family="Gotham Black" font-size="16.6667" lengthAdjust="spacing" textLength="122.9167" x="110.4167" y="651.1302">logs a warning</text><polygon fill="url(#g15j8xthmg2zjw0)" points="90.1042,570.9778,253.6458,570.9778,266.1458,583.4778,253.6458,595.9778,90.1042,595.9778,77.6042,583.4778,90.1042,570.9778" style="stroke:#BABDBF;stroke-width:1.0416666666666667;"/><text fill="#343A40" font-family="Gotham Black" font-size="16.6667" lengthAdjust="spacing" textLength="53.125" x="178.125" y="614.0523">not ok</text><text fill="#343A40" font-family="Gotham Black" font-size="16.6667" lengthAdjust="spacing" textLength="159.375" x="92.1875" y="589.4745">&lt;10% PER possible</text><text fill="#343A40" font-family="Gotham Black" font-size="16.6667" lengthAdjust="spacing" textLength="20.8333" x="268.2292" y="577.3966">ok</text><polygon fill="url(#g15j8xthmg2zjw0)" points="171.875,684.2946,184.375,696.7946,171.875,709.2946,159.375,696.7946,171.875,684.2946" style="stroke:#BABDBF;stroke-width:1.0416666666666667;"/><rect fill="url(#g15j8xthmg2zjw1)" height="36.6557" rx="4.1667" ry="4.1667" style="stroke:#2FA4E7;stroke-width:1.0416666666666667;" width="214.5833" x="64.5833" y="730.128"/><text fill="#FFFFFF" font-family="Gotham Black" font-size="16.6667" lengthAdjust="spacing" textLength="197.9167" x="72.9167" y="754.4525">set the mcs to the node</text><ellipse cx="171.875" cy="799.0753" fill="none" rx="11.4583" ry="11.4583" style="stroke:#2683B9;stroke-width:1.0416666666666667;"/><ellipse cx="171.875" cy="799.0753" fill="none" rx="6.25" ry="6.25" style="stroke:#2683B9;stroke-width:1.0416666666666667;"/><line style="stroke:#2FA4E7;stroke-width:3.125;" x1="68.2292" x2="57.8125" y1="66.1743" y2="66.1743"/><line style="stroke:#2FA4E7;stroke-width:3.125;" x1="57.8125" x2="57.8125" y1="66.1743" y2="89.091"/><polygon fill="#2FA4E7" points="53.6458,78.6743,57.8125,89.091,61.9792,78.6743,57.8125,82.841" style="stroke:#2FA4E7;stroke-width:1.0416666666666667;"/><line style="stroke:#2FA4E7;stroke-width:3.125;" x1="275.5208" x2="285.9375" y1="66.1743" y2="66.1743"/><line style="stroke:#2FA4E7;stroke-width:3.125;" x1="285.9375" x2="285.9375" y1="66.1743" y2="89.091"/><polygon fill="#2FA4E7" points="281.7708,78.6743,285.9375,89.091,290.1042,78.6743,285.9375,82.841" style="stroke:#2FA4E7;stroke-width:1.0416666666666667;"/><line style="stroke:#2FA4E7;stroke-width:3.125;" x1="57.8125" x2="57.8125" y1="125.7467" y2="148.6633"/><line style="stroke:#2FA4E7;stroke-width:3.125;" x1="57.8125" x2="159.375" y1="148.6633" y2="148.6633"/><polygon fill="#2FA4E7" points="148.9583,144.4967,159.375,148.6633,148.9583,152.83,153.125,148.6633" style="stroke:#2FA4E7;stroke-width:1.0416666666666667;"/><line style="stroke:#2FA4E7;stroke-width:3.125;" x1="285.9375" x2="285.9375" y1="125.7467" y2="148.6633"/><line style="stroke:#2FA4E7;stroke-width:3.125;" x1="285.9375" x2="184.375" y1="148.6633" y2="148.6633"/><polygon fill="#2FA4E7" points="194.7917,144.4967,184.375,148.6633,194.7917,152.83,190.625,148.6633" style="stroke:#2FA4E7;stroke-width:1.0416666666666667;"/><line style="stroke:#2FA4E7;stroke-width:3.125;" x1="171.875" x2="171.875" y1="31.25" y2="53.6743"/><polygon fill="#2FA4E7" points="167.7083,43.2576,171.875,53.6743,176.0417,43.2576,171.875,47.4243" style="stroke:#2FA4E7;stroke-width:1.0416666666666667;"/><line style="stroke:#2FA4E7;stroke-width:3.125;" x1="171.875" x2="171.875" y1="161.1633" y2="181.9967"/><polygon fill="#2FA4E7" points="167.7083,171.58,171.875,181.9967,176.0417,171.58,171.875,175.7467" style="stroke:#2FA4E7;stroke-width:1.0416666666666667;"/><line style="stroke:#2FA4E7;stroke-width:3.125;" x1="171.875" x2="171.875" y1="238.6414" y2="259.4747"/><polygon fill="#2FA4E7" points="167.7083,249.058,171.875,259.4747,176.0417,249.058,171.875,253.2247" style="stroke:#2FA4E7;stroke-width:1.0416666666666667;"/><line style="stroke:#2FA4E7;stroke-width:3.125;" x1="171.875" x2="171.875" y1="336.1084" y2="356.9417"/><polygon fill="#2FA4E7" points="167.7083,346.5251,171.875,356.9417,176.0417,346.5251,171.875,350.6917" style="stroke:#2FA4E7;stroke-width:1.0416666666666667;"/><line style="stroke:#2FA4E7;stroke-width:3.125;" x1="171.875" x2="171.875" y1="413.5864" y2="434.4198"/><polygon fill="#2FA4E7" points="167.7083,424.0031,171.875,434.4198,176.0417,424.0031,171.875,428.1698" style="stroke:#2FA4E7;stroke-width:1.0416666666666667;"/><line style="stroke:#2FA4E7;stroke-width:3.125;" x1="171.875" x2="171.875" y1="471.0754" y2="491.9088"/><polygon fill="#2FA4E7" points="167.7083,481.4921,171.875,491.9088,176.0417,481.4921,171.875,485.6588" style="stroke:#2FA4E7;stroke-width:1.0416666666666667;"/><line style="stroke:#2FA4E7;stroke-width:3.125;" x1="171.875" x2="171.875" y1="595.9778" y2="626.8056"/><polygon fill="#2FA4E7" points="167.7083,616.389,171.875,626.8056,176.0417,616.389,171.875,620.5556" style="stroke:#2FA4E7;stroke-width:1.0416666666666667;"/><line style="stroke:#2FA4E7;stroke-width:3.125;" x1="266.1458" x2="278.6458" y1="583.4778" y2="583.4778"/><polygon fill="#2FA4E7" points="274.4792,636.8001,278.6458,647.2168,282.8125,636.8001,278.6458,640.9668" style="stroke:#2FA4E7;stroke-width:3.125;"/><line style="stroke:#2FA4E7;stroke-width:3.125;" x1="278.6458" x2="278.6458" y1="583.4778" y2="696.7946"/><line style="stroke:#2FA4E7;stroke-width:3.125;" x1="278.6458" x2="184.375" y1="696.7946" y2="696.7946"/><polygon fill="#2FA4E7" points="194.7917,692.628,184.375,696.7946,194.7917,700.9613,190.625,696.7946" style="stroke:#2FA4E7;stroke-width:1.0416666666666667;"/><line style="stroke:#2FA4E7;stroke-width:3.125;" x1="171.875" x2="171.875" y1="663.4613" y2="684.2946"/><polygon fill="#2FA4E7" points="167.7083,673.878,171.875,684.2946,176.0417,673.878,171.875,678.0446" style="stroke:#2FA4E7;stroke-width:1.0416666666666667;"/><line style="stroke:#2FA4E7;stroke-width:3.125;" x1="171.875" x2="171.875" y1="548.5535" y2="570.9778"/><polygon fill="#2FA4E7" points="167.7083,560.5611,171.875,570.9778,176.0417,560.5611,171.875,564.7278" style="stroke:#2FA4E7;stroke-width:1.0416666666666667;"/><line style="stroke:#2FA4E7;stroke-width:3.125;" x1="171.875" x2="171.875" y1="709.2946" y2="730.128"/><polygon fill="#2FA4E7" points="167.7083,719.7113,171.875,730.128,176.0417,719.7113,171.875,723.878" style="stroke:#2FA4E7;stroke-width:1.0416666666666667;"/><line style="stroke:#2FA4E7;stroke-width:3.125;" x1="171.875" x2="171.875" y1="766.7837" y2="787.617"/><polygon fill="#2FA4E7" points="167.7083,777.2003,171.875,787.617,176.0417,777.2003,171.875,781.367" style="stroke:#2FA4E7;stroke-width:1.0416666666666667;"/><!--SRC=[LL2xRiCm3Dpr5UnG85dwMEC21Gfaw58KzcgWK6Gw4M9HXaZ7pT-NiklKrKRUyUvqTtB2WE0m3HrQ-WgnyQt71jeK0pmyJh0nB3Q9yIriA3O8jajecolWjsTXUDs2yWWsL-Ij0Nsx8mfaQc6mOyndlu3JIy458tKpEnVfWaaWeKD_KND9bZXuPX-ffZwEc40YD6-XoEpG3ofnYYE4mPrWmclo38JOvFEeKbOHJJKvrJHwcSUogjv1VwC1Yp_dZAWw7AmxwtbDwmIpWR8PP-OjqAA_IfLNeoNH6C7noZYWvI7fkleeYwdAb-UdU_ZSbwgdFeSEbnhZUMjklGdaSUgkYqS6g_A9F1rlzIsnrEz_A9RO6_C3]--></g></svg>