<?xml version="1.0" encoding="us-ascii" standalone="no"?><svg xmlns="http://www.w3.org/2000/svg" xmlns:xlink="http://www.w3.org/1999/xlink" contentStyleType="text/css" height="618.75px" preserveAspectRatio="none" style="width:412px;height:618px;" version="1.1" viewBox="0 0 412 618" width="412.5px" zoomAndPan="magnify"><defs><linearGradient id="gwh6kpmh9klap0" x1="50%" x2="50%" y1="0%" y2="100%"><stop offset="0%" stop-color="#59B6EC"/><stop offset="100%" stop-color="#2FA4E7"/></linearGradient><linearGradient id="gwh6kpmh9klap1" x1="50%" x2="50%" y1="0%" y2="100%"><stop offset="0%" stop-color="#FFFFFF"/><stop offset="100%" stop-color="#EDF0F2"/></linearGradient></defs><g><ellipse cx="205.7292" cy="20.8333" fill="#033C73" rx="10.4167" ry="10.4167" style="stroke:#2683B9;stroke-width:1.0416666666666667;"/><rect fill="url(#gwh6kpmh9klap0)" height="36.6557" rx="4.1667" ry="4.1667" style="stroke:#2FA4E7;stroke-width:1.0416666666666667;" width="171.875" x="119.7917" y="52.0833"/><text fill="#FFFFFF" font-family="Gotham Black" font-size="16.6667" lengthAdjust="spacing" textLength="155.2083" x="128.125" y="76.4079">init HARQ process</text><rect fill="url(#gwh6kpmh9klap0)" height="36.6557" rx="4.1667" ry="4.1667" style="stroke:#2FA4E7;stroke-width:1.0416666666666667;" width="190.625" x="110.4167" y="109.5723"/><text fill="#FFFFFF" font-family="Gotham Black" font-size="16.6667" lengthAdjust="spacing" textLength="173.9583" x="118.75" y="133.8969">substract buffer size</text><polygon fill="url(#gwh6kpmh9klap1)" points="158.8542,168.6523,252.6042,168.6523,265.1042,181.1523,252.6042,193.6523,158.8542,193.6523,146.3542,181.1523,158.8542,168.6523" style="stroke:#BABDBF;stroke-width:1.0416666666666667;"/><text fill="#343A40" font-family="Gotham Black" font-size="16.6667" lengthAdjust="spacing" textLength="89.5833" x="160.9375" y="187.149">buffer size</text><text fill="#343A40" font-family="Gotham Black" font-size="16.6667" lengthAdjust="spacing" textLength="95.8333" x="48.4375" y="175.0712">big enough</text><text fill="#343A40" font-family="Gotham Black" font-size="16.6667" lengthAdjust="spacing" textLength="78.125" x="267.1875" y="175.0712">too small</text><rect fill="url(#gwh6kpmh9klap0)" height="96.6227" rx="4.1667" ry="4.1667" style="stroke:#2FA4E7;stroke-width:1.0416666666666667;" width="183.3333" x="11.4583" y="204.069"/><text fill="#FFFFFF" font-family="Gotham Black" font-size="16.6667" lengthAdjust="spacing" textLength="128.125" x="19.7917" y="228.3936">create "normal</text><text fill="#FFFFFF" font-family="Gotham Black" font-size="16.6667" lengthAdjust="spacing" textLength="166.6667" x="19.7917" y="248.3826">acknowledgement"</text><text fill="#FFFFFF" font-family="Gotham Black" font-size="16.6667" lengthAdjust="spacing" textLength="80.2083" x="19.7917" y="268.3716">feedback</text><text fill="#FFFFFF" font-family="Gotham Black" font-size="16.6667" font-style="italic" lengthAdjust="spacing" textLength="163.5417" x="19.7917" y="288.3606">(feedback format 1)</text><rect fill="url(#gwh6kpmh9klap0)" height="36.6557" rx="4.1667" ry="4.1667" style="stroke:#2FA4E7;stroke-width:1.0416666666666667;" width="90.625" x="263.0208" y="204.069"/><text fill="#FFFFFF" font-family="Gotham Black" font-size="16.6667" lengthAdjust="spacing" textLength="73.9583" x="271.3542" y="228.3936">log error</text><rect fill="url(#gwh6kpmh9klap0)" height="96.6227" rx="4.1667" ry="4.1667" style="stroke:#2FA4E7;stroke-width:1.0416666666666667;" width="185.4167" x="215.625" y="277.183"/><text fill="#FFFFFF" font-family="Gotham Black" font-size="16.6667" lengthAdjust="spacing" textLength="159.375" x="223.9583" y="301.5076">create "packet too</text><text fill="#FFFFFF" font-family="Gotham Black" font-size="16.6667" lengthAdjust="spacing" textLength="158.3333" x="223.9583" y="321.4966">big for buffer size"</text><text fill="#FFFFFF" font-family="Gotham Black" font-size="16.6667" lengthAdjust="spacing" textLength="80.2083" x="223.9583" y="341.4856">feedback</text><text fill="#FFFFFF" font-family="Gotham Black" font-size="16.6667" font-style="italic" lengthAdjust="spacing" textLength="168.75" x="223.9583" y="361.4746">(feedback format 6)</text><polygon fill="url(#gwh6kpmh9klap1)" points="205.7292,384.2224,218.2292,396.7224,205.7292,409.2224,193.2292,396.7224,205.7292,384.2224" style="stroke:#BABDBF;stroke-width:1.0416666666666667;"/><rect fill="url(#gwh6kpmh9klap0)" height="56.6447" rx="4.1667" ry="4.1667" style="stroke:#2FA4E7;stroke-width:1.0416666666666667;" width="206.25" x="102.6042" y="430.0557"/><text fill="#FFFFFF" font-family="Gotham Black" font-size="16.6667" lengthAdjust="spacing" textLength="148.9583" x="110.9375" y="454.3803">send to PHY layer</text><text fill="#FFFFFF" font-family="Gotham Black" font-size="16.6667" font-style="italic" lengthAdjust="spacing" textLength="189.5833" x="110.9375" y="474.3693">(bypassing the queue)</text><rect fill="url(#gwh6kpmh9klap0)" height="56.6447" rx="4.1667" ry="4.1667" style="stroke:#2FA4E7;stroke-width:1.0416666666666667;" width="218.75" x="96.3542" y="507.5338"/><text fill="#FFFFFF" font-family="Gotham Black" font-size="16.6667" lengthAdjust="spacing" textLength="202.0833" x="104.6875" y="531.8583">put a placeholder in the</text><text fill="#FFFFFF" font-family="Gotham Black" font-size="16.6667" lengthAdjust="spacing" textLength="161.4583" x="104.6875" y="551.8473">PHY handler queue</text><ellipse cx="205.7292" cy="596.4701" fill="none" rx="11.4583" ry="11.4583" style="stroke:#2683B9;stroke-width:1.0416666666666667;"/><ellipse cx="205.7292" cy="596.4701" fill="none" rx="6.25" ry="6.25" style="stroke:#2683B9;stroke-width:1.0416666666666667;"/><line style="stroke:#2FA4E7;stroke-width:3.125;" x1="205.7292" x2="205.7292" y1="31.25" y2="52.0833"/><polygon fill="#2FA4E7" points="201.5625,41.6667,205.7292,52.0833,209.8958,41.6667,205.7292,45.8333" style="stroke:#2FA4E7;stroke-width:1.0416666666666667;"/><line style="stroke:#2FA4E7;stroke-width:3.125;" x1="205.7292" x2="205.7292" y1="88.739" y2="109.5723"/><polygon fill="#2FA4E7" points="201.5625,99.1557,205.7292,109.5723,209.8958,99.1557,205.7292,103.3223" style="stroke:#2FA4E7;stroke-width:1.0416666666666667;"/><line style="stroke:#2FA4E7;stroke-width:3.125;" x1="308.3333" x2="308.3333" y1="240.7247" y2="277.183"/><polygon fill="#2FA4E7" points="304.1667,266.7664,308.3333,277.183,312.5,266.7664,308.3333,270.933" style="stroke:#2FA4E7;stroke-width:1.0416666666666667;"/><line style="stroke:#2FA4E7;stroke-width:3.125;" x1="146.3542" x2="103.125" y1="181.1523" y2="181.1523"/><line style="stroke:#2FA4E7;stroke-width:3.125;" x1="103.125" x2="103.125" y1="181.1523" y2="204.069"/><polygon fill="#2FA4E7" points="98.9583,193.6523,103.125,204.069,107.2917,193.6523,103.125,197.819" style="stroke:#2FA4E7;stroke-width:1.0416666666666667;"/><line style="stroke:#2FA4E7;stroke-width:3.125;" x1="265.1042" x2="308.3333" y1="181.1523" y2="181.1523"/><line style="stroke:#2FA4E7;stroke-width:3.125;" x1="308.3333" x2="308.3333" y1="181.1523" y2="204.069"/><polygon fill="#2FA4E7" points="304.1667,193.6523,308.3333,204.069,312.5,193.6523,308.3333,197.819" style="stroke:#2FA4E7;stroke-width:1.0416666666666667;"/><line style="stroke:#2FA4E7;stroke-width:3.125;" x1="103.125" x2="103.125" y1="300.6917" y2="396.7224"/><line style="stroke:#2FA4E7;stroke-width:3.125;" x1="103.125" x2="193.2292" y1="396.7224" y2="396.7224"/><polygon fill="#2FA4E7" points="182.8125,392.5557,193.2292,396.7224,182.8125,400.8891,186.9792,396.7224" style="stroke:#2FA4E7;stroke-width:1.0416666666666667;"/><line style="stroke:#2FA4E7;stroke-width:3.125;" x1="308.3333" x2="308.3333" y1="373.8057" y2="396.7224"/><line style="stroke:#2FA4E7;stroke-width:3.125;" x1="308.3333" x2="218.2292" y1="396.7224" y2="396.7224"/><polygon fill="#2FA4E7" points="228.6458,392.5557,218.2292,396.7224,228.6458,400.8891,224.4792,396.7224" style="stroke:#2FA4E7;stroke-width:1.0416666666666667;"/><line style="stroke:#2FA4E7;stroke-width:3.125;" x1="205.7292" x2="205.7292" y1="146.228" y2="168.6523"/><polygon fill="#2FA4E7" points="201.5625,158.2357,205.7292,168.6523,209.8958,158.2357,205.7292,162.4023" style="stroke:#2FA4E7;stroke-width:1.0416666666666667;"/><line style="stroke:#2FA4E7;stroke-width:3.125;" x1="205.7292" x2="205.7292" y1="409.2224" y2="430.0557"/><polygon fill="#2FA4E7" points="201.5625,419.6391,205.7292,430.0557,209.8958,419.6391,205.7292,423.8057" style="stroke:#2FA4E7;stroke-width:1.0416666666666667;"/><line style="stroke:#2FA4E7;stroke-width:3.125;" x1="205.7292" x2="205.7292" y1="486.7004" y2="507.5338"/><polygon fill="#2FA4E7" points="201.5625,497.1171,205.7292,507.5338,209.8958,497.1171,205.7292,501.2838" style="stroke:#2FA4E7;stroke-width:1.0416666666666667;"/><line style="stroke:#2FA4E7;stroke-width:3.125;" x1="205.7292" x2="205.7292" y1="564.1785" y2="585.0118"/><polygon fill="#2FA4E7" points="201.5625,574.5951,205.7292,585.0118,209.8958,574.5951,205.7292,578.7618" style="stroke:#2FA4E7;stroke-width:1.0416666666666667;"/><!--SRC=[XP0nJyGm38Nt_0fpKxjGiJ2q4zkDm8PK2QMfqqQaTaWSeUFNunQGZeaiKLxytcVxHbRS41pc6j7IwyPpy05dy9atkEsERsEAs2p6z862mFdX-GbIPeUb3AOlTIgIhHEOglUOeOHF74pmq5m9BMWKgHGMGEAwhAq1FRtBQ0NXH9mt6qUoxetu8-AyA9daD997d2ULH-gwvlS1VgyNk6kxRZ0O2q8Zp50q9Fv4HrPMpfo7lwYaVXJGyf7sVZJgklV_aFVVID9DwVHwQn8ydbyWsWlcmp9TaYqbqB9F3UyLAnwcFbK12obQXol7MOc1zfgHze3LqXnLEmo3RfsJCLy0]--></g></svg>