<?xml version="1.0" encoding="us-ascii" standalone="no"?><svg xmlns="http://www.w3.org/2000/svg" xmlns:xlink="http://www.w3.org/1999/xlink" contentStyleType="text/css" height="952.0833px" preserveAspectRatio="none" style="width:583px;height:952px;" version="1.1" viewBox="0 0 583 952" width="583.3333px" zoomAndPan="magnify"><defs><linearGradient id="guv0e0itb0c9p0" x1="50%" x2="50%" y1="0%" y2="100%"><stop offset="0%" stop-color="#59B6EC"/><stop offset="100%" stop-color="#2FA4E7"/></linearGradient></defs><g><!--cluster MAC--><g id="cluster_MAC"><path d="M160.3021,16.6667 L203.0104,16.6667 A6.25,6.25 0 0 1 207.1771,20.8333 L214.4688,47.0723 L487.3854,47.0723 A4.1667,4.1667 0 0 1 491.5521,51.239 L491.5521,590.1042 A4.1667,4.1667 0 0 1 487.3854,594.2708 L160.3021,594.2708 A4.1667,4.1667 0 0 1 156.1354,590.1042 L156.1354,20.8333 A4.1667,4.1667 0 0 1 160.3021,16.6667 " fill="none" style="stroke:#59B6EC;stroke-width:2.0833333333333335;"/><line style="stroke:#59B6EC;stroke-width:2.0833333333333335;" x1="156.1354" x2="214.4688" y1="47.0723" y2="47.0723"/><text fill="#2FA4E7" font-family="Gotham Black" font-size="16.6667" font-weight="bold" lengthAdjust="spacing" textLength="40.625" x="162.3854" y="36.8245">MAC</text></g><g id="elem_harq"><ellipse cx="241.4231" cy="256.664" fill="url(#guv0e0itb0c9p0)" rx="52.4752" ry="20.2056" style="stroke:#2FA4E7;stroke-width:2.0833333333333335;"/><text fill="#FFFFFF" font-family="Gotham Black" font-size="16.6667" font-weight="bold" lengthAdjust="spacing" textLength="53.125" x="214.8606" y="260.5773">HARQ</text></g><g id="elem_queue"><ellipse cx="232.4272" cy="408.2265" fill="url(#guv0e0itb0c9p0)" rx="59.1043" ry="20.2056" style="stroke:#2FA4E7;stroke-width:2.0833333333333335;"/><text fill="#FFFFFF" font-family="Gotham Black" font-size="16.6667" font-weight="bold" lengthAdjust="spacing" textLength="62.5" x="201.1772" y="412.1398">QUEUE</text></g><g id="elem_handler"><ellipse cx="382.3965" cy="557.1848" fill="url(#guv0e0itb0c9p0)" rx="76.782" ry="20.2056" style="stroke:#2FA4E7;stroke-width:2.0833333333333335;"/><text fill="#FFFFFF" font-family="Gotham Black" font-size="16.6667" font-weight="bold" lengthAdjust="spacing" textLength="87.5" x="338.6465" y="561.0982">HANDLER</text></g><g id="elem_callback"><ellipse cx="359.0443" cy="80.9984" fill="url(#guv0e0itb0c9p0)" rx="90.4089" ry="20.5818" style="stroke:#2FA4E7;stroke-width:2.0833333333333335;"/><text fill="#FFFFFF" font-family="Gotham Black" font-size="16.6667" font-weight="bold" lengthAdjust="spacing" textLength="109.375" x="304.3568" y="84.9118">CALLBACKS</text></g><g id="elem_node"><ellipse cx="381.0064" cy="408.2265" fill="url(#guv0e0itb0c9p0)" rx="52.4752" ry="20.2056" style="stroke:#2FA4E7;stroke-width:2.0833333333333335;"/><text fill="#FFFFFF" font-family="Gotham Black" font-size="16.6667" font-weight="bold" lengthAdjust="spacing" textLength="53.125" x="354.4439" y="412.1398">NODE</text></g><!--entity user--><g id="elem_user"><ellipse cx="84.2604" cy="54.6875" fill="url(#guv0e0itb0c9p0)" rx="16.6667" ry="16.6667" style="stroke:#2FA4E7;stroke-width:1.0416666666666667;"/><path d="M84.2604,75.5208 C88.4271,75.5208 91.5521,75.5208 95.7188,71.3542 C104.0521,71.3542 112.3854,79.6875 112.3854,88.0208 L112.3854,92.1875 C112.3854,96.3542 108.2188,100.5208 104.0521,100.5208 L64.4688,100.5208 C60.3021,100.5208 56.1354,96.3542 56.1354,92.1875 L56.1354,88.0208 C56.1354,79.6875 64.4688,71.3542 72.8021,71.3542 C76.9688,75.5208 80.0938,75.5208 84.2604,75.5208 " fill="url(#guv0e0itb0c9p0)" style="stroke:#2FA4E7;stroke-width:1.0416666666666667;"/><text fill="#343A40" font-family="Gotham Black" font-size="16.6667" font-weight="bold" lengthAdjust="spacing" textLength="47.9167" x="60.3021" y="119.637">USER</text></g><g id="elem_phy"><ellipse cx="448.7956" cy="722.7739" fill="url(#guv0e0itb0c9p0)" rx="42.6601" ry="34.7531" style="stroke:#2FA4E7;stroke-width:2.0833333333333335;"/><text fill="#FFFFFF" font-family="Gotham Black" font-size="16.6667" font-weight="bold" lengthAdjust="spacing" textLength="34.375" x="431.6081" y="714.6095">PHY</text><text fill="#FFFFFF" font-family="Gotham Black" font-size="16.6667" font-weight="bold" lengthAdjust="spacing" textLength="29.1667" x="434.2122" y="738.7652">API</text></g><g id="elem_modem"><ellipse cx="448.8258" cy="903.4321" fill="url(#guv0e0itb0c9p0)" rx="63.5237" ry="37.2863" style="stroke:#2FA4E7;stroke-width:2.0833333333333335;"/><text fill="#FFFFFF" font-family="Gotham Black" font-size="16.6667" font-weight="bold" lengthAdjust="spacing" textLength="68.75" x="414.4508" y="895.2677">MODEM</text><text fill="#FFFFFF" font-family="Gotham Black" font-size="16.6667" font-weight="bold" lengthAdjust="spacing" textLength="51.0417" x="423.305" y="919.4233">CORE</text></g><!--link user to queue--><g id="link_user_queue"><path d="M58.9896,125.8437 C38.4167,167.5 16.6667,230.9896 42.5938,279.6875 C74.0104,338.6979 140.3884,373.0078 186.0759,391.1328 " fill="none" id="user-to-queue" style="stroke:#2FA4E7;stroke-width:3.125;"/><polygon fill="#2FA4E7" points="191.8854,393.4375,184.7076,386.1074,187.0441,391.5169,181.6346,393.8534,191.8854,393.4375" style="stroke:#2FA4E7;stroke-width:3.125;"/><text fill="#343A40" font-family="Gotham Black" font-size="16.6667" lengthAdjust="spacing" textLength="76.0417" x="68.6354" y="252.9704">schedule</text><text fill="#343A40" font-family="Gotham Black" font-size="16.6667" lengthAdjust="spacing" textLength="121.875" x="45.7188" y="272.9594">PHY operation</text></g><!--link user to harq--><g id="link_user_harq"><path d="M77.7188,125.6458 C76.3646,150.5729 79.0938,181.1042 95.7188,202.6042 C102.4792,211.3438 154.4627,228.8197 195.2439,241.5906 " fill="none" id="user-to-harq" style="stroke:#2FA4E7;stroke-width:3.125;"/><polygon fill="#2FA4E7" points="201.2083,243.4583,193.5069,236.6804,196.238,241.9019,191.0166,244.6329,201.2083,243.4583" style="stroke:#2FA4E7;stroke-width:3.125;"/><text fill="#343A40" font-family="Gotham Black" font-size="16.6667" lengthAdjust="spacing" textLength="76.0417" x="131.1354" y="175.887">schedule</text><text fill="#343A40" font-family="Gotham Black" font-size="16.6667" lengthAdjust="spacing" textLength="140.625" x="98.8438" y="195.8761">HARQ operation</text></g><!--link harq to queue--><g id="link_harq_queue"><path d="M240.3229,277.3542 C238.5313,306 235.5879,352.8559 233.7963,381.5122 " fill="none" id="harq-to-queue" style="stroke:#2FA4E7;stroke-width:3.125;"/><polygon fill="#2FA4E7" points="233.4063,387.75,238.1498,378.6533,233.7313,382.5518,229.8327,378.1333,233.4063,387.75" style="stroke:#2FA4E7;stroke-width:3.125;"/><text fill="#343A40" font-family="Gotham Black" font-size="16.6667" lengthAdjust="spacing" textLength="76.0417" x="263.4271" y="330.0537">schedule</text><text fill="#343A40" font-family="Gotham Black" font-size="16.6667" lengthAdjust="spacing" textLength="121.875" x="240.5104" y="350.0427">PHY operation</text></g><!--link queue to handler--><g id="link_queue_handler"><path d="M228.4271,428.9479 C225.5521,450.1458 224.5208,483.8438 241.5521,505.7292 C259.0833,528.25 281.4603,539.1716 308.1895,546.0987 " fill="none" id="queue-to-handler" style="stroke:#2FA4E7;stroke-width:3.125;"/><polygon fill="#2FA4E7" points="314.2396,547.6667,306.2097,541.2813,309.1978,546.36,304.1191,549.3482,314.2396,547.6667" style="stroke:#2FA4E7;stroke-width:3.125;"/><text fill="#343A40" font-family="Gotham Black" font-size="16.6667" lengthAdjust="spacing" textLength="125" x="244.6771" y="479.012">give operation</text><text fill="#343A40" font-family="Gotham Black" font-size="16.6667" lengthAdjust="spacing" textLength="87.5" x="263.4271" y="499.0011">to handler</text></g><!--link handler to phy--><g id="link_handler_phy"><path d="M383.0417,577.9792 C384.5313,598.4167 388.6354,630.9896 399.8854,656.7708 C405.7708,670.25 411.0368,678.6458 419.8702,689.6562 " fill="none" id="handler-to-phy" style="stroke:#2FA4E7;stroke-width:3.125;"/><polygon fill="#2FA4E7" points="423.7813,694.5313,421.1646,684.6113,420.522,690.4687,414.6646,689.8261,423.7813,694.5313" style="stroke:#2FA4E7;stroke-width:3.125;"/><text fill="#343A40" font-family="Gotham Black" font-size="16.6667" lengthAdjust="spacing" textLength="67.7083" x="410.8229" y="630.0537">execute</text><text fill="#343A40" font-family="Gotham Black" font-size="16.6667" lengthAdjust="spacing" textLength="83.3333" x="403.0104" y="650.0427">operation</text></g><!--link phy to modem--><g id="link_phy_modem"><path d="M416.0521,745.6458 C402.1979,756.7917 387.5625,771.6979 380.0938,789.0625 C372.0417,807.7708 372.2292,816.1042 380.0938,834.8958 C386.3646,849.8854 393.163,859.0056 404.8922,869.8077 " fill="none" id="phy-to-modem" style="stroke:#2FA4E7;stroke-width:3.125;"/><polygon fill="#2FA4E7" points="409.4896,874.0417,405.4162,864.6258,405.6584,870.5133,399.7709,870.7556,409.4896,874.0417" style="stroke:#2FA4E7;stroke-width:3.125;"/><text fill="#343A40" font-family="Gotham Black" font-size="16.6667" lengthAdjust="spacing" textLength="67.7083" x="391.0313" y="808.1787">execute</text><text fill="#343A40" font-family="Gotham Black" font-size="16.6667" lengthAdjust="spacing" textLength="83.3333" x="383.2188" y="828.1677">operation</text></g><!--link modem to phy--><g id="link_modem_phy"><path d="M464.6354,867.0729 C468.4271,856.8854 471.9271,845.625 473.8438,834.8958 C477.4271,814.8438 477.5625,809.0938 473.8438,789.0625 C471.7708,777.875 470.1489,771.9344 466.0239,761.5385 " fill="none" id="modem-to-phy" style="stroke:#7FFFD4;stroke-width:3.125;"/><polygon fill="#7FFFD4" points="463.7188,755.7292,463.3035,765.98,465.6397,760.5703,471.0494,762.9065,463.7188,755.7292" style="stroke:#7FFFD4;stroke-width:3.125;"/><text fill="#008B8B" font-family="Gotham Black" font-size="16.6667" lengthAdjust="spacing" textLength="48.9583" x="479.0521" y="818.0745">result</text></g><!--link phy to callback--><g id="link_phy_callback"><path d="M471.8333,693.4375 C479.7292,682.5104 487.9896,669.5729 493.6354,656.7708 C511.7708,615.6771 516.5521,603.25 516.5521,558.3333 C516.5521,255.7292 516.5521,255.7292 516.5521,255.7292 C516.5521,183.375 445.9028,130.9515 399.5591,103.7952 " fill="none" id="phy-to-callback" style="stroke:#7FFFD4;stroke-width:3.125;"/><polygon fill="#7FFFD4" points="394.1667,100.6354,400.1487,108.9701,398.6603,103.2686,404.3618,101.7802,394.1667,100.6354" style="stroke:#7FFFD4;stroke-width:3.125;"/><text fill="#008B8B" font-family="Gotham Black" font-size="16.6667" lengthAdjust="spacing" textLength="48.9583" x="519.6771" y="414.4287">result</text></g><!--link callback to user--><g id="link_callback_user"><path d="M268.5833,81.25 C214.9063,81.25 156.6563,81.25 119.9375,81.25 " fill="none" id="callback-to-user" style="stroke:#7FFFD4;stroke-width:3.125;"/><polygon fill="#7FFFD4" points="113.6875,81.25,123.0625,85.4167,118.8958,81.25,123.0625,77.0833,113.6875,81.25" style="stroke:#7FFFD4;stroke-width:3.125;"/><text fill="#008B8B" font-family="Gotham Black" font-size="16.6667" lengthAdjust="spacing" textLength="93.75" x="144.1563" y="51.4079">send result</text><text fill="#008B8B" font-family="Gotham Black" font-size="16.6667" lengthAdjust="spacing" textLength="58.3333" x="161.8646" y="71.3969">to user</text></g><!--link callback to harq--><g id="link_callback_harq"><path d="M328.125,101.1458 C308.6667,114.4271 284.5729,133.8854 269.6771,156.7708 C253.6042,181.4688 247.4361,209.2489 244.4673,230.2801 " fill="none" id="callback-to-harq" style="stroke:#7FFFD4;stroke-width:3.125;"/><polygon fill="#7FFFD4" points="243.5938,236.4688,249.0299,227.7682,244.3217,231.3115,240.7784,226.6034,243.5938,236.4688" style="stroke:#7FFFD4;stroke-width:3.125;"/><text fill="#008B8B" font-family="Gotham Black" font-size="16.6667" lengthAdjust="spacing" textLength="93.75" x="272.8021" y="175.887">send result</text><text fill="#008B8B" font-family="Gotham Black" font-size="16.6667" lengthAdjust="spacing" textLength="61.4583" x="288.9479" y="195.8761">to harq</text></g><!--link node to handler--><g id="link_node_handler"><path d="M381.3149,435.1248 C381.5128,463.2186 381.7998,502.2814 381.9977,530.4168 " fill="none" id="node-handler" style="stroke:#2FA4E7;stroke-width:3.125;"/><polygon fill="#2FA4E7" points="381.2708,428.875,377.1703,438.2791,381.3075,434.0832,385.5034,438.2204,381.2708,428.875" style="stroke:#2FA4E7;stroke-width:3.125;"/><polygon fill="#2FA4E7" points="382.0417,536.6667,386.1423,527.2626,382.005,531.4585,377.8092,527.3212,382.0417,536.6667" style="stroke:#2FA4E7;stroke-width:3.125;"/><text fill="#343A40" font-family="Gotham Black" font-size="16.6667" lengthAdjust="spacing" textLength="86.4583" x="384.2604" y="479.012">get power</text><text fill="#343A40" font-family="Gotham Black" font-size="16.6667" lengthAdjust="spacing" textLength="70.8333" x="392.0729" y="499.0011">and mcs</text></g><!--link callback to node--><g id="link_callback_node"><path d="M364.0521,102.0729 C367.4479,117 371.75,138.0417 373.8438,156.7708 C383.4063,242.3958 382.6725,339.1785 381.787,381.4805 " fill="none" id="callback-to-node" style="stroke:#2FA4E7;stroke-width:3.125;"/><polygon fill="#2FA4E7" points="381.6563,387.7292,386.0182,378.4434,381.7652,382.522,377.6867,378.269,381.6563,387.7292" style="stroke:#2FA4E7;stroke-width:3.125;"/><text fill="#343A40" font-family="Gotham Black" font-size="16.6667" lengthAdjust="spacing" textLength="76.0417" x="384.2604" y="252.9704">optimize</text><text fill="#343A40" font-family="Gotham Black" font-size="16.6667" lengthAdjust="spacing" textLength="42.7083" x="400.9271" y="272.9594">node</text></g><!--SRC=[bLHTZzCm47pFhrYEXuD8XVU0JYgzeaEqzz7I1wHAo7Ks5wk9dTeERK3yTzPsagO5YLBreVNEpCwk9tbXSomHEEgwG2Q_bIeLcS0KCgrAUFFMbwCeCbiXAwPP2OnRfPUsAH3O7erovIIELylf8euJO0PgWpgAAiQtx1bXFfx0pmZeG-US6OISwPt3NSNntNZn5CTNqKbzLsEDBU1fDLrDFUBQGRxawEM1CmbLRN9G5MfcXP8W991R2C2WONDcOI-A0ZO8XkUOqfGfC9csC3mWhoqTRHfFpgbKaFlhhfqmGDzNfJAsQ5vx34gh6wYKa1OofGFIjiOCEJqRrYlsyzxVpjoYXWDr46h4t1WMTSPuS1zGHfHL8RAcRUFMgZB_v_7kAnIi-TFokTC1VlpuwMpZd1N5XkwhTJaPpsOVnfFForEVFIgh9NSh9xyQZ_FZGTXBkacLTjTx_t3hR_TN57NLAc_Q8h7ZE8fZKWX6XhCTfJiYHHVBbZedtRadJnuMqrFsFaTD_IaK8IwBZs1idMMkbYg9xWQzgeRHQ7JJHYdfyxEMhdUVkmvv4t8znBbq3u2-VebYg0V948q4diLtF4BMqge-h1t84TpsaYxMQtdKT0K725lwAoIKMfMNXP2Oi5tDIgRfvpkB1vkaJ6zvGobDGAEf2zlg4gTBnwN4FasEx7RuJw91Ucu3sy_ltpCdCcx3_otZI97FvFkpbQEBynxrMhetHidDi1j1FIcXMx6Y53zeb-w0ilCR]--></g></svg>