<?xml version="1.0" encoding="us-ascii" standalone="no"?><svg xmlns="http://www.w3.org/2000/svg" xmlns:xlink="http://www.w3.org/1999/xlink" contentStyleType="text/css" height="721.875px" preserveAspectRatio="none" style="width:455px;height:721px;" version="1.1" viewBox="0 0 455 721" width="455.2083px" zoomAndPan="magnify"><defs><linearGradient id="g19isdheg603wy0" x1="50%" x2="50%" y1="0%" y2="100%"><stop offset="0%" stop-color="#59B6EC"/><stop offset="100%" stop-color="#2FA4E7"/></linearGradient><linearGradient id="g19isdheg603wy1" x1="50%" x2="50%" y1="0%" y2="100%"><stop offset="0%" stop-color="#FFFFFF"/><stop offset="100%" stop-color="#EDF0F2"/></linearGradient></defs><g><ellipse cx="172.3958" cy="20.8333" fill="#033C73" rx="10.4167" ry="10.4167" style="stroke:#2683B9;stroke-width:1.0416666666666667;"/><rect fill="url(#g19isdheg603wy0)" height="56.6447" rx="4.1667" ry="4.1667" style="stroke:#2FA4E7;stroke-width:1.0416666666666667;" width="203.125" x="70.8333" y="52.0833"/><text fill="#FFFFFF" font-family="Gotham Black" font-size="16.6667" lengthAdjust="spacing" textLength="186.4583" x="79.1667" y="76.4079">get item from priority</text><text fill="#FFFFFF" font-family="Gotham Black" font-size="16.6667" lengthAdjust="spacing" textLength="133.3333" x="79.1667" y="96.3969">message queue</text><rect fill="url(#g19isdheg603wy0)" height="76.6337" rx="4.1667" ry="4.1667" style="stroke:#2FA4E7;stroke-width:1.0416666666666667;" width="170.8333" x="86.9792" y="175.3947"/><text fill="#FFFFFF" font-family="Gotham Black" font-size="16.6667" lengthAdjust="spacing" textLength="150" x="95.3125" y="199.7192">send operation to</text><text fill="#FFFFFF" font-family="Gotham Black" font-size="16.6667" lengthAdjust="spacing" textLength="154.1667" x="95.3125" y="219.7083">PHY layer through</text><text fill="#FFFFFF" font-family="Gotham Black" font-size="16.6667" lengthAdjust="spacing" textLength="104.1667" x="95.3125" y="239.6973">PHY handler</text><polygon fill="url(#g19isdheg603wy1)" points="99.4792,278.4648,245.3125,278.4648,257.8125,290.9648,245.3125,303.4648,99.4792,303.4648,86.9792,290.9648,99.4792,278.4648" style="stroke:#BABDBF;stroke-width:1.0416666666666667;"/><text fill="#343A40" font-family="Gotham Black" font-size="16.6667" lengthAdjust="spacing" textLength="141.6667" x="101.5625" y="296.9615">schedule result ?</text><text fill="#343A40" font-family="Gotham Black" font-size="16.6667" lengthAdjust="spacing" textLength="64.5833" x="20.3125" y="284.8836">success</text><text fill="#343A40" font-family="Gotham Black" font-size="16.6667" lengthAdjust="spacing" textLength="27.0833" x="259.8958" y="284.8836">fail</text><rect fill="url(#g19isdheg603wy0)" height="56.6447" rx="4.1667" ry="4.1667" style="stroke:#2FA4E7;stroke-width:1.0416666666666667;" width="130.2083" x="11.4583" y="313.8814"/><text fill="#FFFFFF" font-family="Gotham Black" font-size="16.6667" lengthAdjust="spacing" textLength="113.5417" x="19.7917" y="338.206">reset counter</text><text fill="#FFFFFF" font-family="Gotham Black" font-size="16.6667" lengthAdjust="spacing" textLength="80.2083" x="19.7917" y="358.195">if needed</text><ellipse cx="76.5625" cy="402.8178" fill="none" rx="11.4583" ry="11.4583" style="stroke:#2683B9;stroke-width:1.0416666666666667;"/><ellipse cx="76.5625" cy="402.8178" fill="none" rx="6.25" ry="6.25" style="stroke:#2683B9;stroke-width:1.0416666666666667;"/><rect fill="url(#g19isdheg603wy0)" height="56.6447" rx="4.1667" ry="4.1667" style="stroke:#2FA4E7;stroke-width:1.0416666666666667;" width="129.1667" x="203.6458" y="313.8814"/><text fill="#FFFFFF" font-family="Gotham Black" font-size="16.6667" lengthAdjust="spacing" textLength="87.5" x="211.9792" y="338.206">increment</text><text fill="#FFFFFF" font-family="Gotham Black" font-size="16.6667" lengthAdjust="spacing" textLength="112.5" x="211.9792" y="358.195">retry counter</text><polygon fill="url(#g19isdheg603wy1)" points="172.3958,129.5614,184.8958,142.0614,172.3958,154.5614,159.8958,142.0614,172.3958,129.5614" style="stroke:#BABDBF;stroke-width:1.0416666666666667;"/><polygon fill="url(#g19isdheg603wy1)" points="107.8125,456.6895,236.9792,456.6895,249.4792,469.1895,236.9792,481.6895,107.8125,481.6895,95.3125,469.1895,107.8125,456.6895" style="stroke:#BABDBF;stroke-width:1.0416666666666667;"/><text fill="#343A40" font-family="Gotham Black" font-size="16.6667" lengthAdjust="spacing" textLength="125" x="109.8958" y="475.1862">retry counter ?</text><text fill="#343A40" font-family="Gotham Black" font-size="16.6667" lengthAdjust="spacing" textLength="75" x="251.5625" y="443.1193">less than</text><text fill="#343A40" font-family="Gotham Black" font-size="16.6667" lengthAdjust="spacing" textLength="96.875" x="251.5625" y="463.1083">max retries</text><rect fill="url(#g19isdheg603wy0)" height="76.6337" rx="4.1667" ry="4.1667" style="stroke:#2FA4E7;stroke-width:1.0416666666666667;" width="85.4167" x="358.8542" y="262.4451"/><text fill="#FFFFFF" font-family="Gotham Black" font-size="16.6667" lengthAdjust="spacing" textLength="68.75" x="367.1875" y="286.7696">wait the</text><text fill="#FFFFFF" font-family="Gotham Black" font-size="16.6667" lengthAdjust="spacing" textLength="65.625" x="367.1875" y="306.7586">defined</text><text fill="#FFFFFF" font-family="Gotham Black" font-size="16.6667" lengthAdjust="spacing" textLength="47.9167" x="367.1875" y="326.7476">delay</text><rect fill="url(#g19isdheg603wy0)" height="36.6557" rx="4.1667" ry="4.1667" style="stroke:#2FA4E7;stroke-width:1.0416666666666667;" width="113.5417" x="115.625" y="552.9175"/><text fill="#FFFFFF" font-family="Gotham Black" font-size="16.6667" lengthAdjust="spacing" textLength="96.875" x="123.9583" y="577.242">notify error</text><rect fill="url(#g19isdheg603wy0)" height="56.6447" rx="4.1667" ry="4.1667" style="stroke:#2FA4E7;stroke-width:1.0416666666666667;" width="112.5" x="116.1458" y="610.4065"/><text fill="#FFFFFF" font-family="Gotham Black" font-size="16.6667" lengthAdjust="spacing" textLength="83.3333" x="124.4792" y="634.731">give back</text><text fill="#FFFFFF" font-family="Gotham Black" font-size="16.6667" lengthAdjust="spacing" textLength="95.8333" x="124.4792" y="654.7201">semaphore</text><ellipse cx="172.3958" cy="699.3429" fill="none" rx="11.4583" ry="11.4583" style="stroke:#2683B9;stroke-width:1.0416666666666667;"/><ellipse cx="172.3958" cy="699.3429" fill="none" rx="6.25" ry="6.25" style="stroke:#2683B9;stroke-width:1.0416666666666667;"/><line style="stroke:#2FA4E7;stroke-width:3.125;" x1="172.3958" x2="172.3958" y1="31.25" y2="52.0833"/><polygon fill="#2FA4E7" points="168.2292,41.6667,172.3958,52.0833,176.5625,41.6667,172.3958,45.8333" style="stroke:#2FA4E7;stroke-width:1.0416666666666667;"/><line style="stroke:#2FA4E7;stroke-width:3.125;" x1="76.5625" x2="76.5625" y1="370.5261" y2="391.3595"/><polygon fill="#2FA4E7" points="72.3958,380.9428,76.5625,391.3595,80.7292,380.9428,76.5625,385.1095" style="stroke:#2FA4E7;stroke-width:1.0416666666666667;"/><line style="stroke:#2FA4E7;stroke-width:3.125;" x1="86.9792" x2="76.5625" y1="290.9648" y2="290.9648"/><line style="stroke:#2FA4E7;stroke-width:3.125;" x1="76.5625" x2="76.5625" y1="290.9648" y2="313.8814"/><polygon fill="#2FA4E7" points="72.3958,303.4648,76.5625,313.8814,80.7292,303.4648,76.5625,307.6314" style="stroke:#2FA4E7;stroke-width:1.0416666666666667;"/><line style="stroke:#2FA4E7;stroke-width:3.125;" x1="257.8125" x2="268.2292" y1="290.9648" y2="290.9648"/><line style="stroke:#2FA4E7;stroke-width:3.125;" x1="268.2292" x2="268.2292" y1="290.9648" y2="313.8814"/><polygon fill="#2FA4E7" points="264.0625,303.4648,268.2292,313.8814,272.3958,303.4648,268.2292,307.6314" style="stroke:#2FA4E7;stroke-width:1.0416666666666667;"/><line style="stroke:#2FA4E7;stroke-width:3.125;" x1="268.2292" x2="268.2292" y1="370.5261" y2="419.4845"/><line style="stroke:#2FA4E7;stroke-width:3.125;" x1="268.2292" x2="172.3958" y1="419.4845" y2="419.4845"/><line style="stroke:#2FA4E7;stroke-width:3.125;" x1="172.3958" x2="172.3958" y1="252.0284" y2="278.4648"/><polygon fill="#2FA4E7" points="168.2292,268.0481,172.3958,278.4648,176.5625,268.0481,172.3958,272.2148" style="stroke:#2FA4E7;stroke-width:1.0416666666666667;"/><line style="stroke:#2FA4E7;stroke-width:3.125;" x1="172.3958" x2="172.3958" y1="154.5614" y2="175.3947"/><polygon fill="#2FA4E7" points="168.2292,164.978,172.3958,175.3947,176.5625,164.978,172.3958,169.1447" style="stroke:#2FA4E7;stroke-width:1.0416666666666667;"/><line style="stroke:#2FA4E7;stroke-width:3.125;" x1="249.4792" x2="401.5625" y1="469.1895" y2="469.1895"/><line style="stroke:#2FA4E7;stroke-width:3.125;" x1="401.5625" x2="401.5625" y1="339.0788" y2="469.1895"/><polygon fill="#2FA4E7" points="397.3958,349.4954,401.5625,339.0788,405.7292,349.4954,401.5625,345.3288" style="stroke:#2FA4E7;stroke-width:1.0416666666666667;"/><line style="stroke:#2FA4E7;stroke-width:3.125;" x1="401.5625" x2="401.5625" y1="142.0614" y2="262.4451"/><line style="stroke:#2FA4E7;stroke-width:3.125;" x1="401.5625" x2="184.8958" y1="142.0614" y2="142.0614"/><polygon fill="#2FA4E7" points="195.3125,137.8947,184.8958,142.0614,195.3125,146.228,191.1458,142.0614" style="stroke:#2FA4E7;stroke-width:1.0416666666666667;"/><line style="stroke:#2FA4E7;stroke-width:3.125;" x1="172.3958" x2="172.3958" y1="419.4845" y2="456.6895"/><polygon fill="#2FA4E7" points="168.2292,446.2728,172.3958,456.6895,176.5625,446.2728,172.3958,450.4395" style="stroke:#2FA4E7;stroke-width:1.0416666666666667;"/><line style="stroke:#2FA4E7;stroke-width:3.125;" x1="172.3958" x2="172.3958" y1="108.728" y2="129.5614"/><polygon fill="#2FA4E7" points="168.2292,119.1447,172.3958,129.5614,176.5625,119.1447,172.3958,123.3114" style="stroke:#2FA4E7;stroke-width:1.0416666666666667;"/><line style="stroke:#2FA4E7;stroke-width:3.125;" x1="172.3958" x2="172.3958" y1="481.6895" y2="552.9175"/><polygon fill="#2FA4E7" points="168.2292,542.5008,172.3958,552.9175,176.5625,542.5008,172.3958,546.6675" style="stroke:#2FA4E7;stroke-width:1.0416666666666667;"/><text fill="#343A40" font-family="Gotham Black" font-size="16.6667" lengthAdjust="spacing" textLength="128.125" x="178.6458" y="510.5326">max number of</text><text fill="#343A40" font-family="Gotham Black" font-size="16.6667" lengthAdjust="spacing" textLength="130.2083" x="178.6458" y="530.5216">retries reached</text><line style="stroke:#2FA4E7;stroke-width:3.125;" x1="172.3958" x2="172.3958" y1="589.5732" y2="610.4065"/><polygon fill="#2FA4E7" points="168.2292,599.9898,172.3958,610.4065,176.5625,599.9898,172.3958,604.1565" style="stroke:#2FA4E7;stroke-width:1.0416666666666667;"/><line style="stroke:#2FA4E7;stroke-width:3.125;" x1="172.3958" x2="172.3958" y1="667.0512" y2="687.8845"/><polygon fill="#2FA4E7" points="168.2292,677.4679,172.3958,687.8845,176.5625,677.4679,172.3958,681.6345" style="stroke:#2FA4E7;stroke-width:1.0416666666666667;"/><!--SRC=[LP0nJyGm38Nt_WgpzGPWRoLO6LcHAg5Syz9Qj4vnN8x-UzoU3a4cEtwsl-Sx6p63UkWw8SZxd2CdHgIaUQQ7nwDSLSM2MjKCC6B3VAqkobdPjavcb186qEUA5MsbM12i8dzDWKJA2pGOPo7BdRo-lD4KDYZPg7aTnklN62HEqFReurINVaHqAbAKTJ9wFhaUGdLP-zuNdWxXiSGLJjRdLGpQ2ISI82Aslv9YUJaIJ0LKfy3JdtwMNjsdM2SAq-qswjhl3ZWTqJdq7vUWiRa4jfscauZ4WhW7xkdcdIuZEtdzRzhkW0lLayDxSn0_NFYcNSDmE_TFUohhV7PjJbSMhxWYxBTegqQoSTe8gjdXce6_S41rKZ27PSpgvz-z_W00]--></g></svg>