<?xml version="1.0" encoding="us-ascii" standalone="no"?><svg xmlns="http://www.w3.org/2000/svg" xmlns:xlink="http://www.w3.org/1999/xlink" contentStyleType="text/css" height="390.625px" preserveAspectRatio="none" style="width:370px;height:390px;" version="1.1" viewBox="0 0 370 390" width="370.8333px" zoomAndPan="magnify"><defs><linearGradient id="ghna4bx10uuxk0" x1="50%" x2="50%" y1="0%" y2="100%"><stop offset="0%" stop-color="#59B6EC"/><stop offset="100%" stop-color="#2FA4E7"/></linearGradient><linearGradient id="ghna4bx10uuxk1" x1="50%" x2="50%" y1="0%" y2="100%"><stop offset="0%" stop-color="#FFFFFF"/><stop offset="100%" stop-color="#EDF0F2"/></linearGradient></defs><g><ellipse cx="167.7083" cy="20.8333" fill="#033C73" rx="10.4167" ry="10.4167" style="stroke:#2683B9;stroke-width:1.0416666666666667;"/><rect fill="url(#ghna4bx10uuxk0)" height="36.6557" rx="4.1667" ry="4.1667" style="stroke:#2FA4E7;stroke-width:1.0416666666666667;" width="205.2083" x="65.1042" y="52.0833"/><text fill="#FFFFFF" font-family="Gotham Black" font-size="16.6667" lengthAdjust="spacing" textLength="188.5417" x="73.4375" y="76.4079">Save the modem time</text><polygon fill="url(#ghna4bx10uuxk1)" points="138.0208,111.1633,197.3958,111.1633,209.8958,123.6633,197.3958,136.1633,138.0208,136.1633,125.5208,123.6633,138.0208,111.1633" style="stroke:#BABDBF;stroke-width:1.0416666666666667;"/><text fill="#343A40" font-family="Gotham Black" font-size="16.6667" lengthAdjust="spacing" textLength="55.2083" x="140.1042" y="129.66">error ?</text><text fill="#343A40" font-family="Gotham Black" font-size="16.6667" lengthAdjust="spacing" textLength="29.1667" x="94.2708" y="117.5822">yes</text><text fill="#343A40" font-family="Gotham Black" font-size="16.6667" lengthAdjust="spacing" textLength="20.8333" x="211.9792" y="117.5822">no</text><rect fill="url(#ghna4bx10uuxk0)" height="36.6557" rx="4.1667" ry="4.1667" style="stroke:#2FA4E7;stroke-width:1.0416666666666667;" width="128.125" x="11.4583" y="146.58"/><text fill="#FFFFFF" font-family="Gotham Black" font-size="16.6667" lengthAdjust="spacing" textLength="111.4583" x="19.7917" y="170.9045">Log the error</text><rect fill="url(#ghna4bx10uuxk0)" height="76.6337" rx="4.1667" ry="4.1667" style="stroke:#2FA4E7;stroke-width:1.0416666666666667;" width="135.4167" x="192.1875" y="146.58"/><text fill="#FFFFFF" font-family="Gotham Black" font-size="16.6667" lengthAdjust="spacing" textLength="118.75" x="200.5208" y="170.9045">Do something</text><text fill="#FFFFFF" font-family="Gotham Black" font-size="16.6667" lengthAdjust="spacing" textLength="84.375" x="217.7083" y="190.8936">related to</text><text fill="#FFFFFF" font-family="Gotham Black" font-size="16.6667" lengthAdjust="spacing" textLength="115.625" x="202.0833" y="210.8826">the operation</text><rect fill="url(#ghna4bx10uuxk0)" height="56.6447" rx="4.1667" ry="4.1667" style="stroke:#2FA4E7;stroke-width:1.0416666666666667;" width="198.9583" x="160.4167" y="244.047"/><text fill="#FFFFFF" font-family="Gotham Black" font-size="16.6667" lengthAdjust="spacing" textLength="182.2917" x="168.75" y="268.3716">Notify the queue that</text><text fill="#FFFFFF" font-family="Gotham Black" font-size="16.6667" lengthAdjust="spacing" textLength="138.5417" x="190.625" y="288.3606">the PHY is ready</text><polygon fill="url(#ghna4bx10uuxk1)" points="167.7083,311.1084,180.2083,323.6084,167.7083,336.1084,155.2083,323.6084,167.7083,311.1084" style="stroke:#BABDBF;stroke-width:1.0416666666666667;"/><ellipse cx="167.7083" cy="368.4001" fill="none" rx="11.4583" ry="11.4583" style="stroke:#2683B9;stroke-width:1.0416666666666667;"/><ellipse cx="167.7083" cy="368.4001" fill="none" rx="6.25" ry="6.25" style="stroke:#2683B9;stroke-width:1.0416666666666667;"/><line style="stroke:#2FA4E7;stroke-width:3.125;" x1="167.7083" x2="167.7083" y1="31.25" y2="52.0833"/><polygon fill="#2FA4E7" points="163.5417,41.6667,167.7083,52.0833,171.875,41.6667,167.7083,45.8333" style="stroke:#2FA4E7;stroke-width:1.0416666666666667;"/><line style="stroke:#2FA4E7;stroke-width:3.125;" x1="259.8958" x2="259.8958" y1="223.2137" y2="244.047"/><polygon fill="#2FA4E7" points="255.7292,233.6304,259.8958,244.047,264.0625,233.6304,259.8958,237.797" style="stroke:#2FA4E7;stroke-width:1.0416666666666667;"/><line style="stroke:#2FA4E7;stroke-width:1.5625;stroke-dasharray:7.0,7.0;" x1="125.5208" x2="75.5208" y1="123.6633" y2="123.6633"/><line style="stroke:#2FA4E7;stroke-width:1.5625;stroke-dasharray:7.0,7.0;" x1="75.5208" x2="75.5208" y1="123.6633" y2="146.58"/><polygon fill="#2FA4E7" points="71.3542,136.1633,75.5208,146.58,79.6875,136.1633,75.5208,140.33" style="stroke:#2FA4E7;stroke-width:1.0416666666666667;"/><line style="stroke:#2FA4E7;stroke-width:3.125;" x1="209.8958" x2="259.8958" y1="123.6633" y2="123.6633"/><line style="stroke:#2FA4E7;stroke-width:3.125;" x1="259.8958" x2="259.8958" y1="123.6633" y2="146.58"/><polygon fill="#2FA4E7" points="255.7292,136.1633,259.8958,146.58,264.0625,136.1633,259.8958,140.33" style="stroke:#2FA4E7;stroke-width:1.0416666666666667;"/><line style="stroke:#2FA4E7;stroke-width:1.5625;stroke-dasharray:7.0,7.0;" x1="75.5208" x2="75.5208" y1="183.2357" y2="323.6084"/><line style="stroke:#2FA4E7;stroke-width:1.5625;stroke-dasharray:7.0,7.0;" x1="75.5208" x2="155.2083" y1="323.6084" y2="323.6084"/><polygon fill="#2FA4E7" points="144.7917,319.4417,155.2083,323.6084,144.7917,327.7751,148.9583,323.6084" style="stroke:#2FA4E7;stroke-width:1.0416666666666667;"/><line style="stroke:#2FA4E7;stroke-width:3.125;" x1="259.8958" x2="259.8958" y1="300.6917" y2="323.6084"/><line style="stroke:#2FA4E7;stroke-width:3.125;" x1="259.8958" x2="180.2083" y1="323.6084" y2="323.6084"/><polygon fill="#2FA4E7" points="190.625,319.4417,180.2083,323.6084,190.625,327.7751,186.4583,323.6084" style="stroke:#2FA4E7;stroke-width:1.0416666666666667;"/><line style="stroke:#2FA4E7;stroke-width:3.125;" x1="167.7083" x2="167.7083" y1="88.739" y2="111.1633"/><polygon fill="#2FA4E7" points="163.5417,100.7467,167.7083,111.1633,171.875,100.7467,167.7083,104.9133" style="stroke:#2FA4E7;stroke-width:1.0416666666666667;"/><line style="stroke:#2FA4E7;stroke-width:3.125;" x1="167.7083" x2="167.7083" y1="336.1084" y2="356.9417"/><polygon fill="#2FA4E7" points="163.5417,346.5251,167.7083,356.9417,171.875,346.5251,167.7083,350.6917" style="stroke:#2FA4E7;stroke-width:1.0416666666666667;"/><!--SRC=[PP11IyH038NlyolYhNjOlRUW21uyY0Xw4H49pcixxCoaPbAn_zxfB7Wnj-Izxv7amcOaq2TqZU3yaSI7CS3Jg9Beygh9pfLJo0ih9_8OUOtsWX-xZM7A2TagdWrQRSPghd_cRr0bgQOXaOM4mOMHEgYAqirX5pDr6yh1KQtZc-SomxyVhrlVFyZK0Xem_FCW5b2NvKptTq954cmEUMeJHMIhHvYqTa-I1SeM90_k33sAXN5hsjUATL-OxS_-TFzAeTGWzjlWaEjNwdMok5y0]--></g></svg>