<?xml version="1.0" encoding="us-ascii" standalone="no"?><svg xmlns="http://www.w3.org/2000/svg" xmlns:xlink="http://www.w3.org/1999/xlink" contentStyleType="text/css" height="782.2917px" preserveAspectRatio="none" style="width:620px;height:782px;" version="1.1" viewBox="0 0 620 782" width="620.8333px" zoomAndPan="magnify"><defs><linearGradient id="gtjqxk3q23haz0" x1="50%" x2="50%" y1="0%" y2="100%"><stop offset="0%" stop-color="#59B6EC"/><stop offset="100%" stop-color="#2FA4E7"/></linearGradient><linearGradient id="gtjqxk3q23haz1" x1="50%" x2="50%" y1="0%" y2="100%"><stop offset="0%" stop-color="#35638F"/><stop offset="100%" stop-color="#033C73"/></linearGradient></defs><g><g id="cluster_##7"><rect fill="none" height="129.1667" rx="4.1667" ry="4.1667" style="stroke:#59B6EC;stroke-width:2.0833333333333335;" width="185.4167" x="346.875" y="638.5417"/></g><!--entity list_sem--><g id="elem_list_sem"><ellipse cx="439.5833" cy="713.5417" fill="#D2494E" rx="8.3333" ry="8.3333" style="stroke:#C71C22;stroke-width:1.0416666666666667;"/><text fill="#343A40" font-family="Gotham Black" font-size="16.6667" lengthAdjust="spacing" textLength="131.25" x="373.9583" y="749.3245">List semaphore</text></g><!--entity user--><g id="elem_user"><ellipse cx="264.5833" cy="33.3333" fill="url(#gtjqxk3q23haz0)" rx="16.6667" ry="16.6667" style="stroke:#2FA4E7;stroke-width:1.0416666666666667;"/><path d="M264.5833,54.1667 C268.75,54.1667 271.875,54.1667 276.0417,50 C284.375,50 292.7083,58.3333 292.7083,66.6667 L292.7083,70.8333 C292.7083,75 288.5417,79.1667 284.375,79.1667 L244.7917,79.1667 C240.625,79.1667 236.4583,75 236.4583,70.8333 L236.4583,66.6667 C236.4583,58.3333 244.7917,50 253.125,50 C257.2917,54.1667 260.4167,54.1667 264.5833,54.1667 " fill="url(#gtjqxk3q23haz0)" style="stroke:#2FA4E7;stroke-width:1.0416666666666667;"/><text fill="#343A40" font-family="Gotham Black" font-size="16.6667" font-weight="bold" lengthAdjust="spacing" textLength="47.9167" x="240.625" y="98.2829">USER</text></g><g id="elem_put"><ellipse cx="264.393" cy="187.914" fill="url(#gtjqxk3q23haz0)" rx="87.8305" ry="20.2056" style="stroke:#2FA4E7;stroke-width:2.0833333333333335;"/><text fill="#FFFFFF" font-family="Gotham Black" font-size="16.6667" lengthAdjust="spacing" textLength="103.125" x="212.8305" y="191.8273">put function</text></g><!--entity put_msgq--><g id="elem_put_msgq"><path d="M173.9583,326.5625 L355.2083,326.5625 C360.4167,326.5625 360.4167,363.8377 360.4167,363.8377 C360.4167,363.8377 360.4167,401.1129 355.2083,401.1129 L173.9583,401.1129 C168.75,401.1129 168.75,363.8377 168.75,363.8377 C168.75,363.8377 168.75,326.5625 173.9583,326.5625 " fill="url(#gtjqxk3q23haz0)" style="stroke:#2FA4E7;stroke-width:1.0416666666666667;"/><path d="M355.2083,326.5625 C350,326.5625 350,363.8377 350,363.8377 C350,401.1129 355.2083,401.1129 355.2083,401.1129 " fill="none" style="stroke:#2FA4E7;stroke-width:1.0416666666666667;"/><text fill="#FFFFFF" font-family="Gotham Black" font-size="16.6667" lengthAdjust="spacing" textLength="4.1667" x="176.0417" y="349.8454">&#160;</text><text fill="#FFFFFF" font-family="Gotham Black" font-size="16.6667" lengthAdjust="spacing" textLength="166.6667" x="176.0417" y="369.8344">put message queue</text><text fill="#FFFFFF" font-family="Gotham Black" font-size="16.6667" lengthAdjust="spacing" textLength="4.1667" x="176.0417" y="389.8234">&#160;</text></g><!--entity put_thread--><g id="elem_put_thread"><rect fill="none" height="44.989" rx="4.1667" ry="4.1667" style="stroke:#59B6EC;stroke-width:2.0833333333333335;" width="115.625" x="206.7708" y="519.7917"/><text fill="#2FA4E7" font-family="Gotham Black" font-size="16.6667" lengthAdjust="spacing" textLength="90.625" x="219.2708" y="548.2829">put thread</text></g><!--entity list--><g id="elem_list"><path d="M21.875,656.25 L159.375,656.25 C164.5833,656.25 164.5833,713.5142 164.5833,713.5142 C164.5833,713.5142 164.5833,770.7784 159.375,770.7784 L21.875,770.7784 C16.6667,770.7784 16.6667,713.5142 16.6667,713.5142 C16.6667,713.5142 16.6667,656.25 21.875,656.25 " fill="url(#gtjqxk3q23haz0)" style="stroke:#2FA4E7;stroke-width:1.0416666666666667;"/><path d="M159.375,656.25 C154.1667,656.25 154.1667,713.5142 154.1667,713.5142 C154.1667,770.7784 159.375,770.7784 159.375,770.7784 " fill="none" style="stroke:#2FA4E7;stroke-width:1.0416666666666667;"/><text fill="#FFFFFF" font-family="Gotham Black" font-size="16.6667" lengthAdjust="spacing" textLength="4.1667" x="23.9583" y="679.5329">&#160;</text><text fill="#FFFFFF" font-family="Gotham Black" font-size="16.6667" lengthAdjust="spacing" textLength="4.1667" x="23.9583" y="699.5219">&#160;</text><text fill="#FFFFFF" font-family="Gotham Black" font-size="16.6667" lengthAdjust="spacing" textLength="89.5833" x="40.625" y="719.5109">MAIN LIST</text><text fill="#FFFFFF" font-family="Gotham Black" font-size="16.6667" lengthAdjust="spacing" textLength="4.1667" x="23.9583" y="739.4999">&#160;</text><text fill="#FFFFFF" font-family="Gotham Black" font-size="16.6667" lengthAdjust="spacing" textLength="4.1667" x="23.9583" y="759.4889">&#160;</text></g><g id="elem_GMN10"><path d="M397.3958,301.0417 L397.3958,359.8958 L360.5625,364.0625 L397.3958,368.2292 L397.3958,427.2257 A4.1667,4.1667 0 0 0 401.5625,431.3924 L604.6875,431.3924 A4.1667,4.1667 0 0 0 608.8542,427.2257 L608.8542,307.2917 L598.4375,296.875 L401.5625,296.875 A4.1667,4.1667 0 0 0 397.3958,301.0417 " fill="url(#gtjqxk3q23haz1)" style="stroke:#033C73;stroke-width:1.0416666666666667;"/><path d="M598.4375,296.875 L598.4375,305.2083 A2.0833,2.0833 0 0 0 600.5208,307.2917 L608.8542,307.2917 L598.4375,296.875 " fill="url(#gtjqxk3q23haz1)" style="stroke:#033C73;stroke-width:1.0416666666666667;"/><text fill="#FFFFFF" font-family="Gotham Black" font-size="16.6667" lengthAdjust="spacing" textLength="185.4167" x="405.7292" y="320.1579">This is decoupling the</text><text fill="#FFFFFF" font-family="Gotham Black" font-size="16.6667" lengthAdjust="spacing" textLength="152.0833" x="405.7292" y="340.1469">main list so that it</text><text fill="#FFFFFF" font-family="Gotham Black" font-size="16.6667" lengthAdjust="spacing" textLength="182.2917" x="405.7292" y="360.1359">can be called from an</text><text fill="#FFFFFF" font-family="Gotham Black" font-size="16.6667" lengthAdjust="spacing" textLength="176.0417" x="405.7292" y="380.1249">ISR while still having</text><text fill="#FFFFFF" font-family="Gotham Black" font-size="16.6667" lengthAdjust="spacing" textLength="105.2083" x="405.7292" y="400.1139">the main list</text><text fill="#FFFFFF" font-family="Gotham Black" font-size="16.6667" lengthAdjust="spacing" textLength="184.375" x="405.7292" y="420.1029">pretected by a mutex</text></g><!--link user to put--><g id="link_user_put"><path d="M264.5833,104.3125 C264.5833,125.8229 264.5833,144.4688 264.5833,161.2708 " fill="none" id="user-to-put" style="stroke:#2FA4E7;stroke-width:3.125;"/><polygon fill="#2FA4E7" points="264.5833,167.5208,268.75,158.1458,264.5833,162.3125,260.4167,158.1458,264.5833,167.5208" style="stroke:#2FA4E7;stroke-width:3.125;"/></g><!--link put to put_msgq--><g id="link_put_put_msgq"><path d="M264.5833,208.3438 C264.5833,236.7396 264.5833,284.0833 264.5833,320.1146 " fill="none" id="put-to-put_msgq" style="stroke:#2FA4E7;stroke-width:3.125;"/><polygon fill="#2FA4E7" points="264.5833,326.3646,268.75,316.9896,264.5833,321.1563,260.4167,316.9896,264.5833,326.3646" style="stroke:#2FA4E7;stroke-width:3.125;"/><text fill="#343A40" font-family="Gotham Black" font-size="16.6667" lengthAdjust="spacing" textLength="208.3333" x="267.7083" y="258.6995">sends to message queue</text></g><!--link put_msgq to put_thread--><g id="link_put_msgq_put_thread"><path d="M264.5833,401.5833 C264.5833,437.2292 264.5833,484.0521 264.5833,513.4167 " fill="none" id="put_msgq-to-put_thread" style="stroke:#2FA4E7;stroke-width:3.125;stroke-dasharray:7.0,7.0;"/><polygon fill="#2FA4E7" points="264.5833,519.6667,268.75,510.2917,264.5833,514.4583,260.4167,510.2917,264.5833,519.6667" style="stroke:#2FA4E7;stroke-width:3.125;"/><text fill="#343A40" font-family="Gotham Black" font-size="16.6667" lengthAdjust="spacing" textLength="259.375" x="267.7083" y="481.6162">new operation to put in the list</text></g><!--link put_thread to list--><g id="link_put_thread_list"><path d="M206.5,552.8125 C160.5938,561.7083 101.9375,576.4896 87.5,595.8333 C74.8333,612.8021 72.3421,629.1527 74.6442,649.9027 " fill="none" id="put_thread-to-list" style="stroke:#2FA4E7;stroke-width:3.125;"/><polygon fill="#2FA4E7" points="75.3333,656.1146,78.4408,646.3373,74.759,650.938,70.1583,647.2562,75.3333,656.1146" style="stroke:#2FA4E7;stroke-width:3.125;"/><text fill="#343A40" font-family="Gotham Black" font-size="16.6667" lengthAdjust="spacing" textLength="301.0417" x="90.625" y="614.9495">add operation according to priority</text></g><!--link put_thread to list_sem--><g id="link_put_thread_list_sem"><path d="M322.4271,554.2396 C348.8125,561.9167 378.625,574.7188 398.9583,595.8333 C429.3021,627.3542 436.5236,676.4939 438.4298,697.6918 " fill="none" id="put_thread-to-list_sem" style="stroke:#2FA4E7;stroke-width:3.125;"/><polygon fill="#2FA4E7" points="438.9896,703.9167,442.2998,694.2062,438.5231,698.7293,434,694.9525,438.9896,703.9167" style="stroke:#2FA4E7;stroke-width:3.125;"/><text fill="#343A40" font-family="Gotham Black" font-size="16.6667" lengthAdjust="spacing" textLength="121.875" x="418.75" y="614.9495">new operation</text></g><!--SRC=[RL9DJyCm3BtdLvWT9stSTvZ4WSEamM63swJ9IxmseabAuZ8cn7_73km3H5MrpNlsyyjhRhYbG60f3nrXt8Ra_DwJWtrE0QQtbJR6b1SVUymO02sdlEPZHu07AadfsNZylBvVZSSpm093eMoCF2qMWdvW1KVwtW_HiaznP5u76WX6cwXme5Am8QZW9ewqNl1jACshoMGPOoFZgWItcT2TIxwN5xbD1BaUxXQFi5oidtIXOAtlVE4hkGzZVRQgknG22WNisvJfNBiLo7mQ4nCJPD-q36b_CQRQJwql8BSZcuQ-yx4HWrIfW3vM6IX9G6JmN0cB4NOIENRTAMUCbLciLt1elLWgxBiEMdmJnKg9waMn8dqcbhs8nEu8265WUZSK7QZT6d-6oMIkVeq6z_DTlSzajz4LuFGxUtCgWEbqVfNl328T8FMKKN-Vzgcas55VrTAbk4vIJ0w3SrTTQ6tAhcOa_TcdxFduNwC6_sUa747p1G00]--></g></svg>