<?xml version="1.0" encoding="us-ascii" standalone="no"?><svg xmlns="http://www.w3.org/2000/svg" xmlns:xlink="http://www.w3.org/1999/xlink" contentStyleType="text/css" height="1010.4167px" preserveAspectRatio="none" style="width:1329px;height:1010px;" version="1.1" viewBox="0 0 1329 1010" width="1329.1667px" zoomAndPan="magnify"><defs><linearGradient id="g10y3xexyqh4wf0" x1="50%" x2="50%" y1="0%" y2="100%"><stop offset="0%" stop-color="#59B6EC"/><stop offset="100%" stop-color="#2FA4E7"/></linearGradient></defs><g><rect fill="#EDF0F2" height="8.3333" style="stroke:#EDF0F2;stroke-width:1.0416666666666667;" width="10.4167" x="148.9583" y="674.4405"/><line style="stroke:#BABDBF;stroke-width:1.0416666666666667;" x1="148.9583" x2="148.9583" y1="674.4405" y2="682.7738"/><line style="stroke:#BABDBF;stroke-width:1.0416666666666667;" x1="159.375" x2="159.375" y1="674.4405" y2="682.7738"/><line style="stroke:#BABDBF;stroke-width:1.0416666666666667;" x1="148.9583" x2="159.375" y1="674.4405" y2="674.4405"/><rect fill="#EDF0F2" height="30.4057" style="stroke:#EDF0F2;stroke-width:1.0416666666666667;" width="10.4167" x="148.9583" y="736.0962"/><line style="stroke:#BABDBF;stroke-width:1.0416666666666667;" x1="148.9583" x2="148.9583" y1="736.0962" y2="766.5019"/><line style="stroke:#BABDBF;stroke-width:1.0416666666666667;" x1="159.375" x2="159.375" y1="736.0962" y2="766.5019"/><line style="stroke:#BABDBF;stroke-width:1.0416666666666667;" x1="148.9583" x2="159.375" y1="766.5019" y2="766.5019"/><rect fill="#EDF0F2" height="47.0723" style="stroke:#EDF0F2;stroke-width:1.0416666666666667;" width="10.4167" x="318.75" y="635.7015"/><line style="stroke:#BABDBF;stroke-width:1.0416666666666667;" x1="318.75" x2="318.75" y1="635.7015" y2="682.7738"/><line style="stroke:#BABDBF;stroke-width:1.0416666666666667;" x1="329.1667" x2="329.1667" y1="635.7015" y2="682.7738"/><line style="stroke:#BABDBF;stroke-width:1.0416666666666667;" x1="318.75" x2="329.1667" y1="635.7015" y2="635.7015"/><rect fill="#EDF0F2" height="69.1447" style="stroke:#EDF0F2;stroke-width:1.0416666666666667;" width="10.4167" x="318.75" y="736.0962"/><line style="stroke:#BABDBF;stroke-width:1.0416666666666667;" x1="318.75" x2="318.75" y1="736.0962" y2="805.2409"/><line style="stroke:#BABDBF;stroke-width:1.0416666666666667;" x1="329.1667" x2="329.1667" y1="736.0962" y2="805.2409"/><line style="stroke:#BABDBF;stroke-width:1.0416666666666667;" x1="318.75" x2="329.1667" y1="805.2409" y2="805.2409"/><rect fill="#EDF0F2" height="333.6731" style="stroke:#BABDBF;stroke-width:1.0416666666666667;" width="10.4167" x="950" y="178.717"/><rect fill="#EDF0F2" height="8.3333" style="stroke:#EDF0F2;stroke-width:1.0416666666666667;" width="10.4167" x="950" y="859.6049"/><line style="stroke:#BABDBF;stroke-width:1.0416666666666667;" x1="950" x2="950" y1="859.6049" y2="867.9382"/><line style="stroke:#BABDBF;stroke-width:1.0416666666666667;" x1="960.4167" x2="960.4167" y1="859.6049" y2="867.9382"/><line style="stroke:#BABDBF;stroke-width:1.0416666666666667;" x1="950" x2="960.4167" y1="859.6049" y2="859.6049"/><rect fill="#EDF0F2" height="1.0417" style="stroke:#EDF0F2;stroke-width:1.0416666666666667;" width="10.4167" x="950" y="901.2716"/><line style="stroke:#BABDBF;stroke-width:1.0416666666666667;" x1="950" x2="950" y1="901.2716" y2="902.3132"/><line style="stroke:#BABDBF;stroke-width:1.0416666666666667;" x1="960.4167" x2="960.4167" y1="901.2716" y2="902.3132"/><rect fill="#EDF0F2" height="154.9561" style="stroke:#BABDBF;stroke-width:1.0416666666666667;" width="10.4167" x="1143.75" y="139.978"/><rect fill="#EDF0F2" height="209.1227" style="stroke:#EDF0F2;stroke-width:1.0416666666666667;" width="10.4167" x="1143.75" y="473.6511"/><line style="stroke:#BABDBF;stroke-width:1.0416666666666667;" x1="1143.75" x2="1143.75" y1="473.6511" y2="682.7738"/><line style="stroke:#BABDBF;stroke-width:1.0416666666666667;" x1="1154.1667" x2="1154.1667" y1="473.6511" y2="682.7738"/><line style="stroke:#BABDBF;stroke-width:1.0416666666666667;" x1="1143.75" x2="1154.1667" y1="473.6511" y2="473.6511"/><rect fill="#EDF0F2" height="131.842" style="stroke:#EDF0F2;stroke-width:1.0416666666666667;" width="10.4167" x="1143.75" y="736.0962"/><line style="stroke:#BABDBF;stroke-width:1.0416666666666667;" x1="1143.75" x2="1143.75" y1="736.0962" y2="867.9382"/><line style="stroke:#BABDBF;stroke-width:1.0416666666666667;" x1="1154.1667" x2="1154.1667" y1="736.0962" y2="867.9382"/><rect fill="#EDF0F2" height="1.0417" style="stroke:#EDF0F2;stroke-width:1.0416666666666667;" width="10.4167" x="1143.75" y="901.2716"/><line style="stroke:#BABDBF;stroke-width:1.0416666666666667;" x1="1143.75" x2="1143.75" y1="901.2716" y2="902.3132"/><line style="stroke:#BABDBF;stroke-width:1.0416666666666667;" x1="1154.1667" x2="1154.1667" y1="901.2716" y2="902.3132"/><rect fill="#EDF0F2" height="200.7894" style="stroke:#BABDBF;stroke-width:1.0416666666666667;" width="10.4167" x="1283.3333" y="396.1731"/><line style="stroke:#BABDBF;stroke-width:1.0416666666666667;stroke-dasharray:5.0,5.0;" x1="44.7917" x2="44.7917" y1="99.1557" y2="682.7738"/><line style="stroke:#BABDBF;stroke-width:1.0416666666666667;stroke-dasharray:1.0,4.0;" x1="44.7917" x2="44.7917" y1="682.7738" y2="736.0962"/><line style="stroke:#BABDBF;stroke-width:1.0416666666666667;stroke-dasharray:5.0,5.0;" x1="44.7917" x2="44.7917" y1="736.0962" y2="867.9382"/><line style="stroke:#BABDBF;stroke-width:1.0416666666666667;stroke-dasharray:1.0,4.0;" x1="44.7917" x2="44.7917" y1="867.9382" y2="901.2716"/><line style="stroke:#BABDBF;stroke-width:1.0416666666666667;stroke-dasharray:5.0,5.0;" x1="44.7917" x2="44.7917" y1="901.2716" y2="911.6882"/><line style="stroke:#BABDBF;stroke-width:1.0416666666666667;stroke-dasharray:5.0,5.0;" x1="154.1667" x2="154.1667" y1="99.1557" y2="682.7738"/><line style="stroke:#BABDBF;stroke-width:1.0416666666666667;stroke-dasharray:1.0,4.0;" x1="154.1667" x2="154.1667" y1="682.7738" y2="736.0962"/><line style="stroke:#BABDBF;stroke-width:1.0416666666666667;stroke-dasharray:5.0,5.0;" x1="154.1667" x2="154.1667" y1="736.0962" y2="867.9382"/><line style="stroke:#BABDBF;stroke-width:1.0416666666666667;stroke-dasharray:1.0,4.0;" x1="154.1667" x2="154.1667" y1="867.9382" y2="901.2716"/><line style="stroke:#BABDBF;stroke-width:1.0416666666666667;stroke-dasharray:5.0,5.0;" x1="154.1667" x2="154.1667" y1="901.2716" y2="911.6882"/><line style="stroke:#BABDBF;stroke-width:1.0416666666666667;stroke-dasharray:5.0,5.0;" x1="323.9583" x2="323.9583" y1="99.1557" y2="682.7738"/><line style="stroke:#BABDBF;stroke-width:1.0416666666666667;stroke-dasharray:1.0,4.0;" x1="323.9583" x2="323.9583" y1="682.7738" y2="736.0962"/><line style="stroke:#BABDBF;stroke-width:1.0416666666666667;stroke-dasharray:5.0,5.0;" x1="323.9583" x2="323.9583" y1="736.0962" y2="867.9382"/><line style="stroke:#BABDBF;stroke-width:1.0416666666666667;stroke-dasharray:1.0,4.0;" x1="323.9583" x2="323.9583" y1="867.9382" y2="901.2716"/><line style="stroke:#BABDBF;stroke-width:1.0416666666666667;stroke-dasharray:5.0,5.0;" x1="323.9583" x2="323.9583" y1="901.2716" y2="911.6882"/><line style="stroke:#BABDBF;stroke-width:1.0416666666666667;stroke-dasharray:5.0,5.0;" x1="473.9583" x2="473.9583" y1="99.1557" y2="682.7738"/><line style="stroke:#BABDBF;stroke-width:1.0416666666666667;stroke-dasharray:1.0,4.0;" x1="473.9583" x2="473.9583" y1="682.7738" y2="736.0962"/><line style="stroke:#BABDBF;stroke-width:1.0416666666666667;stroke-dasharray:5.0,5.0;" x1="473.9583" x2="473.9583" y1="736.0962" y2="867.9382"/><line style="stroke:#BABDBF;stroke-width:1.0416666666666667;stroke-dasharray:1.0,4.0;" x1="473.9583" x2="473.9583" y1="867.9382" y2="901.2716"/><line style="stroke:#BABDBF;stroke-width:1.0416666666666667;stroke-dasharray:5.0,5.0;" x1="473.9583" x2="473.9583" y1="901.2716" y2="911.6882"/><line style="stroke:#BABDBF;stroke-width:1.0416666666666667;stroke-dasharray:5.0,5.0;" x1="602.0833" x2="602.0833" y1="99.1557" y2="682.7738"/><line style="stroke:#BABDBF;stroke-width:1.0416666666666667;stroke-dasharray:1.0,4.0;" x1="602.0833" x2="602.0833" y1="682.7738" y2="736.0962"/><line style="stroke:#BABDBF;stroke-width:1.0416666666666667;stroke-dasharray:5.0,5.0;" x1="602.0833" x2="602.0833" y1="736.0962" y2="867.9382"/><line style="stroke:#BABDBF;stroke-width:1.0416666666666667;stroke-dasharray:1.0,4.0;" x1="602.0833" x2="602.0833" y1="867.9382" y2="901.2716"/><line style="stroke:#BABDBF;stroke-width:1.0416666666666667;stroke-dasharray:5.0,5.0;" x1="602.0833" x2="602.0833" y1="901.2716" y2="911.6882"/><line style="stroke:#BABDBF;stroke-width:1.0416666666666667;stroke-dasharray:5.0,5.0;" x1="769.7917" x2="769.7917" y1="99.1557" y2="682.7738"/><line style="stroke:#BABDBF;stroke-width:1.0416666666666667;stroke-dasharray:1.0,4.0;" x1="769.7917" x2="769.7917" y1="682.7738" y2="736.0962"/><line style="stroke:#BABDBF;stroke-width:1.0416666666666667;stroke-dasharray:5.0,5.0;" x1="769.7917" x2="769.7917" y1="736.0962" y2="867.9382"/><line style="stroke:#BABDBF;stroke-width:1.0416666666666667;stroke-dasharray:1.0,4.0;" x1="769.7917" x2="769.7917" y1="867.9382" y2="901.2716"/><line style="stroke:#BABDBF;stroke-width:1.0416666666666667;stroke-dasharray:5.0,5.0;" x1="769.7917" x2="769.7917" y1="901.2716" y2="911.6882"/><line style="stroke:#BABDBF;stroke-width:1.0416666666666667;stroke-dasharray:5.0,5.0;" x1="955.2083" x2="955.2083" y1="99.1557" y2="682.7738"/><line style="stroke:#BABDBF;stroke-width:1.0416666666666667;stroke-dasharray:1.0,4.0;" x1="955.2083" x2="955.2083" y1="682.7738" y2="736.0962"/><line style="stroke:#BABDBF;stroke-width:1.0416666666666667;stroke-dasharray:5.0,5.0;" x1="955.2083" x2="955.2083" y1="736.0962" y2="867.9382"/><line style="stroke:#BABDBF;stroke-width:1.0416666666666667;stroke-dasharray:1.0,4.0;" x1="955.2083" x2="955.2083" y1="867.9382" y2="901.2716"/><line style="stroke:#BABDBF;stroke-width:1.0416666666666667;stroke-dasharray:5.0,5.0;" x1="955.2083" x2="955.2083" y1="901.2716" y2="911.6882"/><line style="stroke:#BABDBF;stroke-width:1.0416666666666667;stroke-dasharray:5.0,5.0;" x1="1148.9583" x2="1148.9583" y1="99.1557" y2="682.7738"/><line style="stroke:#BABDBF;stroke-width:1.0416666666666667;stroke-dasharray:1.0,4.0;" x1="1148.9583" x2="1148.9583" y1="682.7738" y2="736.0962"/><line style="stroke:#BABDBF;stroke-width:1.0416666666666667;stroke-dasharray:5.0,5.0;" x1="1148.9583" x2="1148.9583" y1="736.0962" y2="867.9382"/><line style="stroke:#BABDBF;stroke-width:1.0416666666666667;stroke-dasharray:1.0,4.0;" x1="1148.9583" x2="1148.9583" y1="867.9382" y2="901.2716"/><line style="stroke:#BABDBF;stroke-width:1.0416666666666667;stroke-dasharray:5.0,5.0;" x1="1148.9583" x2="1148.9583" y1="901.2716" y2="911.6882"/><line style="stroke:#BABDBF;stroke-width:1.0416666666666667;stroke-dasharray:5.0,5.0;" x1="1288.5417" x2="1288.5417" y1="99.1557" y2="682.7738"/><line style="stroke:#BABDBF;stroke-width:1.0416666666666667;stroke-dasharray:1.0,4.0;" x1="1288.5417" x2="1288.5417" y1="682.7738" y2="736.0962"/><line style="stroke:#BABDBF;stroke-width:1.0416666666666667;stroke-dasharray:5.0,5.0;" x1="1288.5417" x2="1288.5417" y1="736.0962" y2="867.9382"/><line style="stroke:#BABDBF;stroke-width:1.0416666666666667;stroke-dasharray:1.0,4.0;" x1="1288.5417" x2="1288.5417" y1="867.9382" y2="901.2716"/><line style="stroke:#BABDBF;stroke-width:1.0416666666666667;stroke-dasharray:5.0,5.0;" x1="1288.5417" x2="1288.5417" y1="901.2716" y2="911.6882"/><text fill="#343A40" font-family="Gotham Black" font-size="16.6667" lengthAdjust="spacing" textLength="38.5417" x="22.3958" y="93.0745">User</text><ellipse cx="44.7917" cy="28.125" fill="url(#g10y3xexyqh4wf0)" rx="16.6667" ry="16.6667" style="stroke:#2FA4E7;stroke-width:1.0416666666666667;"/><path d="M44.7917,48.9583 C48.9583,48.9583 52.0833,48.9583 56.25,44.7917 C64.5833,44.7917 72.9167,53.125 72.9167,61.4583 L72.9167,65.625 C72.9167,69.7917 68.75,73.9583 64.5833,73.9583 L25,73.9583 C20.8333,73.9583 16.6667,69.7917 16.6667,65.625 L16.6667,61.4583 C16.6667,53.125 25,44.7917 33.3333,44.7917 C37.5,48.9583 40.625,48.9583 44.7917,48.9583 " fill="url(#g10y3xexyqh4wf0)" style="stroke:#2FA4E7;stroke-width:1.0416666666666667;"/><text fill="#343A40" font-family="Gotham Black" font-size="16.6667" lengthAdjust="spacing" textLength="38.5417" x="22.3958" y="928.7211">User</text><ellipse cx="44.7917" cy="952.5106" fill="url(#g10y3xexyqh4wf0)" rx="16.6667" ry="16.6667" style="stroke:#2FA4E7;stroke-width:1.0416666666666667;"/><path d="M44.7917,973.3439 C48.9583,973.3439 52.0833,973.3439 56.25,969.1772 C64.5833,969.1772 72.9167,977.5106 72.9167,985.8439 L72.9167,990.0106 C72.9167,994.1772 68.75,998.3439 64.5833,998.3439 L25,998.3439 C20.8333,998.3439 16.6667,994.1772 16.6667,990.0106 L16.6667,985.8439 C16.6667,977.5106 25,969.1772 33.3333,969.1772 C37.5,973.3439 40.625,973.3439 44.7917,973.3439 " fill="url(#g10y3xexyqh4wf0)" style="stroke:#2FA4E7;stroke-width:1.0416666666666667;"/><rect fill="url(#g10y3xexyqh4wf0)" height="38.739" rx="4.1667" ry="4.1667" style="stroke:#2FA4E7;stroke-width:1.0416666666666667;" width="129.1667" x="89.5833" y="59.375"/><text fill="#FFFFFF" font-family="Gotham Black" font-size="16.6667" lengthAdjust="spacing" textLength="110.4167" x="98.9583" y="84.7412">PHY_handler</text><rect fill="url(#g10y3xexyqh4wf0)" height="38.739" rx="4.1667" ry="4.1667" style="stroke:#2FA4E7;stroke-width:1.0416666666666667;" width="129.1667" x="89.5833" y="910.6466"/><text fill="#FFFFFF" font-family="Gotham Black" font-size="16.6667" lengthAdjust="spacing" textLength="110.4167" x="98.9583" y="936.0128">PHY_handler</text><rect fill="url(#g10y3xexyqh4wf0)" height="38.739" rx="4.1667" ry="4.1667" style="stroke:#2FA4E7;stroke-width:1.0416666666666667;" width="162.5" x="242.7083" y="59.375"/><text fill="#FFFFFF" font-family="Gotham Black" font-size="16.6667" lengthAdjust="spacing" textLength="143.75" x="252.0833" y="84.7412">PHY_Semaphore</text><rect fill="url(#g10y3xexyqh4wf0)" height="38.739" rx="4.1667" ry="4.1667" style="stroke:#2FA4E7;stroke-width:1.0416666666666667;" width="162.5" x="242.7083" y="910.6466"/><text fill="#FFFFFF" font-family="Gotham Black" font-size="16.6667" lengthAdjust="spacing" textLength="143.75" x="252.0833" y="936.0128">PHY_Semaphore</text><rect fill="url(#g10y3xexyqh4wf0)" height="38.739" rx="4.1667" ry="4.1667" style="stroke:#2FA4E7;stroke-width:1.0416666666666667;" width="95.8333" x="426.0417" y="59.375"/><text fill="#FFFFFF" font-family="Gotham Black" font-size="16.6667" lengthAdjust="spacing" textLength="77.0833" x="435.4167" y="84.7412">Interface</text><rect fill="url(#g10y3xexyqh4wf0)" height="38.739" rx="4.1667" ry="4.1667" style="stroke:#2FA4E7;stroke-width:1.0416666666666667;" width="95.8333" x="426.0417" y="910.6466"/><text fill="#FFFFFF" font-family="Gotham Black" font-size="16.6667" lengthAdjust="spacing" textLength="77.0833" x="435.4167" y="936.0128">Interface</text><rect fill="url(#g10y3xexyqh4wf0)" height="38.739" rx="4.1667" ry="4.1667" style="stroke:#2FA4E7;stroke-width:1.0416666666666667;" width="119.7917" x="542.7083" y="59.375"/><text fill="#FFFFFF" font-family="Gotham Black" font-size="16.6667" lengthAdjust="spacing" textLength="101.0417" x="552.0833" y="84.7412">put_Thread</text><rect fill="url(#g10y3xexyqh4wf0)" height="38.739" rx="4.1667" ry="4.1667" style="stroke:#2FA4E7;stroke-width:1.0416666666666667;" width="119.7917" x="542.7083" y="910.6466"/><text fill="#FFFFFF" font-family="Gotham Black" font-size="16.6667" lengthAdjust="spacing" textLength="101.0417" x="552.0833" y="936.0128">put_Thread</text><rect fill="url(#g10y3xexyqh4wf0)" height="38.739" rx="4.1667" ry="4.1667" style="stroke:#2FA4E7;stroke-width:1.0416666666666667;" width="173.9583" x="683.3333" y="59.375"/><text fill="#FFFFFF" font-family="Gotham Black" font-size="16.6667" lengthAdjust="spacing" textLength="155.2083" x="692.7083" y="84.7412">execution_Thread</text><rect fill="url(#g10y3xexyqh4wf0)" height="38.739" rx="4.1667" ry="4.1667" style="stroke:#2FA4E7;stroke-width:1.0416666666666667;" width="173.9583" x="683.3333" y="910.6466"/><text fill="#FFFFFF" font-family="Gotham Black" font-size="16.6667" lengthAdjust="spacing" textLength="155.2083" x="692.7083" y="936.0128">execution_Thread</text><rect fill="url(#g10y3xexyqh4wf0)" height="38.739" rx="4.1667" ry="4.1667" style="stroke:#2FA4E7;stroke-width:1.0416666666666667;" width="154.1667" x="878.125" y="59.375"/><text fill="#FFFFFF" font-family="Gotham Black" font-size="16.6667" lengthAdjust="spacing" textLength="135.4167" x="887.5" y="84.7412">list_Semaphore</text><rect fill="url(#g10y3xexyqh4wf0)" height="38.739" rx="4.1667" ry="4.1667" style="stroke:#2FA4E7;stroke-width:1.0416666666666667;" width="154.1667" x="878.125" y="910.6466"/><text fill="#FFFFFF" font-family="Gotham Black" font-size="16.6667" lengthAdjust="spacing" textLength="135.4167" x="887.5" y="936.0128">list_Semaphore</text><path d="M1053.125,64.5833 L1244.7917,64.5833 C1250,64.5833 1250,81.8695 1250,81.8695 C1250,81.8695 1250,99.1557 1244.7917,99.1557 L1053.125,99.1557 C1047.9167,99.1557 1047.9167,81.8695 1047.9167,81.8695 C1047.9167,81.8695 1047.9167,64.5833 1053.125,64.5833 " fill="url(#g10y3xexyqh4wf0)" style="stroke:#2FA4E7;stroke-width:1.0416666666666667;"/><path d="M1244.7917,64.5833 C1239.5833,64.5833 1239.5833,81.8695 1239.5833,81.8695 C1239.5833,99.1557 1244.7917,99.1557 1244.7917,99.1557 " fill="none" style="stroke:#2FA4E7;stroke-width:1.0416666666666667;"/><text fill="#FFFFFF" font-family="Gotham Black" font-size="16.6667" lengthAdjust="spacing" textLength="177.0833" x="1055.2083" y="87.8662">put_Message_queue</text><path d="M1053.125,910.6466 L1244.7917,910.6466 C1250,910.6466 1250,927.9327 1250,927.9327 C1250,927.9327 1250,945.2189 1244.7917,945.2189 L1053.125,945.2189 C1047.9167,945.2189 1047.9167,927.9327 1047.9167,927.9327 C1047.9167,927.9327 1047.9167,910.6466 1053.125,910.6466 " fill="url(#g10y3xexyqh4wf0)" style="stroke:#2FA4E7;stroke-width:1.0416666666666667;"/><path d="M1244.7917,910.6466 C1239.5833,910.6466 1239.5833,927.9327 1239.5833,927.9327 C1239.5833,945.2189 1244.7917,945.2189 1244.7917,945.2189 " fill="none" style="stroke:#2FA4E7;stroke-width:1.0416666666666667;"/><text fill="#FFFFFF" font-family="Gotham Black" font-size="16.6667" lengthAdjust="spacing" textLength="177.0833" x="1055.2083" y="933.9294">put_Message_queue</text><path d="M1265.625,64.5833 L1311.4583,64.5833 C1316.6667,64.5833 1316.6667,81.8695 1316.6667,81.8695 C1316.6667,81.8695 1316.6667,99.1557 1311.4583,99.1557 L1265.625,99.1557 C1260.4167,99.1557 1260.4167,81.8695 1260.4167,81.8695 C1260.4167,81.8695 1260.4167,64.5833 1265.625,64.5833 " fill="url(#g10y3xexyqh4wf0)" style="stroke:#2FA4E7;stroke-width:1.0416666666666667;"/><path d="M1311.4583,64.5833 C1306.25,64.5833 1306.25,81.8695 1306.25,81.8695 C1306.25,99.1557 1311.4583,99.1557 1311.4583,99.1557 " fill="none" style="stroke:#2FA4E7;stroke-width:1.0416666666666667;"/><text fill="#FFFFFF" font-family="Gotham Black" font-size="16.6667" lengthAdjust="spacing" textLength="31.25" x="1267.7083" y="87.8662">List</text><path d="M1265.625,910.6466 L1311.4583,910.6466 C1316.6667,910.6466 1316.6667,927.9327 1316.6667,927.9327 C1316.6667,927.9327 1316.6667,945.2189 1311.4583,945.2189 L1265.625,945.2189 C1260.4167,945.2189 1260.4167,927.9327 1260.4167,927.9327 C1260.4167,927.9327 1260.4167,910.6466 1265.625,910.6466 " fill="url(#g10y3xexyqh4wf0)" style="stroke:#2FA4E7;stroke-width:1.0416666666666667;"/><path d="M1311.4583,910.6466 C1306.25,910.6466 1306.25,927.9327 1306.25,927.9327 C1306.25,945.2189 1311.4583,945.2189 1311.4583,945.2189 " fill="none" style="stroke:#2FA4E7;stroke-width:1.0416666666666667;"/><text fill="#FFFFFF" font-family="Gotham Black" font-size="16.6667" lengthAdjust="spacing" textLength="31.25" x="1267.7083" y="933.9294">List</text><rect fill="#EDF0F2" height="8.3333" style="stroke:#EDF0F2;stroke-width:1.0416666666666667;" width="10.4167" x="148.9583" y="674.4405"/><line style="stroke:#BABDBF;stroke-width:1.0416666666666667;" x1="148.9583" x2="148.9583" y1="674.4405" y2="682.7738"/><line style="stroke:#BABDBF;stroke-width:1.0416666666666667;" x1="159.375" x2="159.375" y1="674.4405" y2="682.7738"/><line style="stroke:#BABDBF;stroke-width:1.0416666666666667;" x1="148.9583" x2="159.375" y1="674.4405" y2="674.4405"/><rect fill="#EDF0F2" height="30.4057" style="stroke:#EDF0F2;stroke-width:1.0416666666666667;" width="10.4167" x="148.9583" y="736.0962"/><line style="stroke:#BABDBF;stroke-width:1.0416666666666667;" x1="148.9583" x2="148.9583" y1="736.0962" y2="766.5019"/><line style="stroke:#BABDBF;stroke-width:1.0416666666666667;" x1="159.375" x2="159.375" y1="736.0962" y2="766.5019"/><line style="stroke:#BABDBF;stroke-width:1.0416666666666667;" x1="148.9583" x2="159.375" y1="766.5019" y2="766.5019"/><rect fill="#EDF0F2" height="47.0723" style="stroke:#EDF0F2;stroke-width:1.0416666666666667;" width="10.4167" x="318.75" y="635.7015"/><line style="stroke:#BABDBF;stroke-width:1.0416666666666667;" x1="318.75" x2="318.75" y1="635.7015" y2="682.7738"/><line style="stroke:#BABDBF;stroke-width:1.0416666666666667;" x1="329.1667" x2="329.1667" y1="635.7015" y2="682.7738"/><line style="stroke:#BABDBF;stroke-width:1.0416666666666667;" x1="318.75" x2="329.1667" y1="635.7015" y2="635.7015"/><rect fill="#EDF0F2" height="69.1447" style="stroke:#EDF0F2;stroke-width:1.0416666666666667;" width="10.4167" x="318.75" y="736.0962"/><line style="stroke:#BABDBF;stroke-width:1.0416666666666667;" x1="318.75" x2="318.75" y1="736.0962" y2="805.2409"/><line style="stroke:#BABDBF;stroke-width:1.0416666666666667;" x1="329.1667" x2="329.1667" y1="736.0962" y2="805.2409"/><line style="stroke:#BABDBF;stroke-width:1.0416666666666667;" x1="318.75" x2="329.1667" y1="805.2409" y2="805.2409"/><rect fill="#EDF0F2" height="333.6731" style="stroke:#BABDBF;stroke-width:1.0416666666666667;" width="10.4167" x="950" y="178.717"/><rect fill="#EDF0F2" height="8.3333" style="stroke:#EDF0F2;stroke-width:1.0416666666666667;" width="10.4167" x="950" y="859.6049"/><line style="stroke:#BABDBF;stroke-width:1.0416666666666667;" x1="950" x2="950" y1="859.6049" y2="867.9382"/><line style="stroke:#BABDBF;stroke-width:1.0416666666666667;" x1="960.4167" x2="960.4167" y1="859.6049" y2="867.9382"/><line style="stroke:#BABDBF;stroke-width:1.0416666666666667;" x1="950" x2="960.4167" y1="859.6049" y2="859.6049"/><rect fill="#EDF0F2" height="1.0417" style="stroke:#EDF0F2;stroke-width:1.0416666666666667;" width="10.4167" x="950" y="901.2716"/><line style="stroke:#BABDBF;stroke-width:1.0416666666666667;" x1="950" x2="950" y1="901.2716" y2="902.3132"/><line style="stroke:#BABDBF;stroke-width:1.0416666666666667;" x1="960.4167" x2="960.4167" y1="901.2716" y2="902.3132"/><rect fill="#EDF0F2" height="154.9561" style="stroke:#BABDBF;stroke-width:1.0416666666666667;" width="10.4167" x="1143.75" y="139.978"/><rect fill="#EDF0F2" height="209.1227" style="stroke:#EDF0F2;stroke-width:1.0416666666666667;" width="10.4167" x="1143.75" y="473.6511"/><line style="stroke:#BABDBF;stroke-width:1.0416666666666667;" x1="1143.75" x2="1143.75" y1="473.6511" y2="682.7738"/><line style="stroke:#BABDBF;stroke-width:1.0416666666666667;" x1="1154.1667" x2="1154.1667" y1="473.6511" y2="682.7738"/><line style="stroke:#BABDBF;stroke-width:1.0416666666666667;" x1="1143.75" x2="1154.1667" y1="473.6511" y2="473.6511"/><rect fill="#EDF0F2" height="131.842" style="stroke:#EDF0F2;stroke-width:1.0416666666666667;" width="10.4167" x="1143.75" y="736.0962"/><line style="stroke:#BABDBF;stroke-width:1.0416666666666667;" x1="1143.75" x2="1143.75" y1="736.0962" y2="867.9382"/><line style="stroke:#BABDBF;stroke-width:1.0416666666666667;" x1="1154.1667" x2="1154.1667" y1="736.0962" y2="867.9382"/><rect fill="#EDF0F2" height="1.0417" style="stroke:#EDF0F2;stroke-width:1.0416666666666667;" width="10.4167" x="1143.75" y="901.2716"/><line style="stroke:#BABDBF;stroke-width:1.0416666666666667;" x1="1143.75" x2="1143.75" y1="901.2716" y2="902.3132"/><line style="stroke:#BABDBF;stroke-width:1.0416666666666667;" x1="1154.1667" x2="1154.1667" y1="901.2716" y2="902.3132"/><rect fill="#EDF0F2" height="200.7894" style="stroke:#BABDBF;stroke-width:1.0416666666666667;" width="10.4167" x="1283.3333" y="396.1731"/><polygon fill="#2FA4E7" points="1131.25,135.8114,1141.6667,139.978,1131.25,144.1447,1135.4167,139.978" style="stroke:#2FA4E7;stroke-width:1.0416666666666667;"/><line style="stroke:#2FA4E7;stroke-width:3.125;" x1="602.6042" x2="1137.5" y1="139.978" y2="139.978"/><text fill="#343A40" font-family="Gotham Black" font-size="16.6667" lengthAdjust="spacing" textLength="144.7917" x="611.9792" y="131.8136">wait for message</text><polygon fill="#2FA4E7" points="937.5,174.5504,947.9167,178.717,937.5,182.8837,941.6667,178.717" style="stroke:#2FA4E7;stroke-width:1.0416666666666667;"/><line style="stroke:#2FA4E7;stroke-width:3.125;" x1="770.3125" x2="943.75" y1="178.717" y2="178.717"/><text fill="#343A40" font-family="Gotham Black" font-size="16.6667" lengthAdjust="spacing" textLength="152.0833" x="779.6875" y="170.5526">wait for operation</text><polygon fill="#2FA4E7" points="461.4583,213.2894,471.875,217.4561,461.4583,221.6227,465.625,217.4561" style="stroke:#2FA4E7;stroke-width:1.0416666666666667;"/><line style="stroke:#2FA4E7;stroke-width:3.125;" x1="44.7917" x2="467.7083" y1="217.4561" y2="217.4561"/><text fill="#343A40" font-family="Gotham Black" font-size="16.6667" lengthAdjust="spacing" textLength="117.7083" x="54.1667" y="209.2916">puts message</text><polygon fill="#2FA4E7" points="1131.25,252.0284,1141.6667,256.1951,1131.25,260.3617,1135.4167,256.1951" style="stroke:#2FA4E7;stroke-width:1.0416666666666667;"/><line style="stroke:#2FA4E7;stroke-width:3.125;" x1="473.9583" x2="1137.5" y1="256.1951" y2="256.1951"/><text fill="#343A40" font-family="Gotham Black" font-size="16.6667" lengthAdjust="spacing" textLength="208.3333" x="483.3333" y="248.0306">sends to message queue</text><polygon fill="#2FA4E7" points="613.8076,321.4294,603.6458,326.1841,614.2834,329.7491,609.8856,325.8272" style="stroke:#2FA4E7;stroke-width:1.0416666666666667;"/><line style="stroke:#2FA4E7;stroke-width:3.125;stroke-dasharray:2.0,2.0;" x1="1147.9167" x2="602.6042" y1="294.9341" y2="326.1841"/><text fill="#343A40" font-family="Gotham Black" font-size="16.6667" lengthAdjust="spacing" textLength="114.5833" x="622.3958" y="286.7696">new message</text><polygon fill="#2FA4E7" points="1270.8333,392.0064,1281.25,396.1731,1270.8333,400.3398,1275,396.1731" style="stroke:#2FA4E7;stroke-width:1.0416666666666667;"/><line style="stroke:#2FA4E7;stroke-width:3.125;" x1="602.6042" x2="1277.0833" y1="396.1731" y2="396.1731"/><text fill="#343A40" font-family="Gotham Black" font-size="16.6667" lengthAdjust="spacing" textLength="301.0417" x="611.9792" y="388.0086">add operation according to priority</text><polygon fill="#2FA4E7" points="937.5,430.7454,947.9167,434.9121,937.5,439.0788,941.6667,434.9121" style="stroke:#2FA4E7;stroke-width:1.0416666666666667;"/><line style="stroke:#2FA4E7;stroke-width:3.125;" x1="602.6042" x2="943.75" y1="434.9121" y2="434.9121"/><text fill="#343A40" font-family="Gotham Black" font-size="16.6667" lengthAdjust="spacing" textLength="114.5833" x="611.9792" y="426.7476">new message</text><polygon fill="#2FA4E7" points="1131.25,469.4845,1141.6667,473.6511,1131.25,477.8178,1135.4167,473.6511" style="stroke:#2FA4E7;stroke-width:1.0416666666666667;"/><line style="stroke:#2FA4E7;stroke-width:3.125;" x1="602.6042" x2="1137.5" y1="473.6511" y2="473.6511"/><text fill="#343A40" font-family="Gotham Black" font-size="16.6667" lengthAdjust="spacing" textLength="144.7917" x="611.9792" y="465.4867">wait for message</text><polygon fill="#2FA4E7" points="781.383,522.9861,771.3542,528.0151,782.0847,531.2898,777.582,527.4888" style="stroke:#2FA4E7;stroke-width:1.0416666666666667;"/><line style="stroke:#2FA4E7;stroke-width:3.125;stroke-dasharray:2.0,2.0;" x1="954.1667" x2="770.3125" y1="512.3901" y2="528.0151"/><text fill="#343A40" font-family="Gotham Black" font-size="16.6667" lengthAdjust="spacing" textLength="121.875" x="790.1042" y="504.2257">new operation</text><polygon fill="#2FA4E7" points="1270.8333,578.2125,1281.25,582.3792,1270.8333,586.5458,1275,582.3792" style="stroke:#2FA4E7;stroke-width:1.0416666666666667;"/><line style="stroke:#2FA4E7;stroke-width:3.125;" x1="770.3125" x2="1277.0833" y1="582.3792" y2="582.3792"/><text fill="#343A40" font-family="Gotham Black" font-size="16.6667" lengthAdjust="spacing" textLength="116.6667" x="779.6875" y="574.2147">get operation</text><polygon fill="#2FA4E7" points="781.7708,592.7958,771.3542,596.9625,781.7708,601.1292,777.6042,596.9625" style="stroke:#2FA4E7;stroke-width:1.0416666666666667;"/><line style="stroke:#2FA4E7;stroke-width:3.125;stroke-dasharray:2.0,2.0;" x1="775.5208" x2="1287.5" y1="596.9625" y2="596.9625"/><polygon fill="#2FA4E7" points="340.625,631.5348,330.2083,635.7015,340.625,639.8682,336.4583,635.7015" style="stroke:#2FA4E7;stroke-width:1.0416666666666667;"/><line style="stroke:#2FA4E7;stroke-width:3.125;" x1="334.375" x2="769.2708" y1="635.7015" y2="635.7015"/><text fill="#343A40" font-family="Gotham Black" font-size="16.6667" lengthAdjust="spacing" textLength="101.0417" x="348.9583" y="627.537">wait for phy</text><polygon fill="#2FA4E7" points="170.8333,670.2738,160.4167,674.4405,170.8333,678.6072,166.6667,674.4405" style="stroke:#2FA4E7;stroke-width:1.0416666666666667;"/><line style="stroke:#2FA4E7;stroke-width:3.125;" x1="164.5833" x2="769.2708" y1="674.4405" y2="674.4405"/><text fill="#343A40" font-family="Gotham Black" font-size="16.6667" lengthAdjust="spacing" textLength="163.5417" x="179.1667" y="666.276">schedule operation</text><text fill="#FFFFFF" font-family="Gotham Black" font-size="16.6667" lengthAdjust="spacing" textLength="155.2083" x="589.0625" y="715.4317">operation execute</text><polygon fill="#2FA4E7" points="306.25,762.3352,316.6667,766.5019,306.25,770.6685,310.4167,766.5019" style="stroke:#2FA4E7;stroke-width:1.0416666666666667;"/><line style="stroke:#2FA4E7;stroke-width:3.125;stroke-dasharray:2.0,2.0;" x1="154.1667" x2="312.5" y1="766.5019" y2="766.5019"/><text fill="#343A40" font-family="Gotham Black" font-size="16.6667" lengthAdjust="spacing" textLength="130.2083" x="163.5417" y="758.3374">operation done</text><polygon fill="#2FA4E7" points="757.9646,816.3373,768.2292,820.8659,757.6731,824.6656,761.983,820.6472" style="stroke:#2FA4E7;stroke-width:1.0416666666666667;"/><line style="stroke:#2FA4E7;stroke-width:3.125;stroke-dasharray:2.0,2.0;" x1="323.9583" x2="768.2292" y1="805.2409" y2="820.8659"/><text fill="#343A40" font-family="Gotham Black" font-size="16.6667" lengthAdjust="spacing" textLength="130.2083" x="333.3333" y="797.0764">operation done</text><polygon fill="#2FA4E7" points="937.5,855.4382,947.9167,859.6049,937.5,863.7716,941.6667,859.6049" style="stroke:#2FA4E7;stroke-width:1.0416666666666667;"/><line style="stroke:#2FA4E7;stroke-width:3.125;" x1="770.3125" x2="943.75" y1="859.6049" y2="859.6049"/><text fill="#343A40" font-family="Gotham Black" font-size="16.6667" lengthAdjust="spacing" textLength="152.0833" x="779.6875" y="851.4404">wait for operation</text><!--SRC=[fLCzJyCm4DtpAuwD3WqWn9A16IIGa821ARBiIsAfiLFReVJVOpk9Fzg0X9Widz-zU_VETs4wx14egd67HDIzPBpXoA1HieVooZyN1Q56AdZNg81e6ErP34GPJlb0X86NXu-w8uBjflUXEvuzls9FXaugd06rnZu3FGg3gY7K0_XooI33QEgtJY5XdiJUZBzb8Fn2EXekHG9riJNiZckJA_CH9sq_ueY-nZDgJLgifyXSkDVjViOysPGbjIYYAjZU1sW51y8DDDR4Vg9pbl9FOZ3I9IfTxY8boPK3Ak9wYzb1i1kAImlMLOvPXteXdklIA9W68nSS-AQA1G3RxVtbxVKcSRi2WOT0o_2yaTm3fn0g88n5_K0ebOfnqRhIW-9ISNFCkrgXcUn8o__3xeNGjtXpjqb_oLGasfrq6GnV6LS5BPeapRTkwRCFUC9roZFlHjA2MwSeVrwTyomxIzeXitkyzaySILcMSGBJdg2D5VRDgmob8uf9aS_OhVO4M_VjrzIVVFl3DtTwlm40]--></g></svg>