<?xml version="1.0" encoding="us-ascii" standalone="no"?><svg xmlns="http://www.w3.org/2000/svg" xmlns:xlink="http://www.w3.org/1999/xlink" contentStyleType="text/css" height="548.9583px" preserveAspectRatio="none" style="width:914px;height:548px;" version="1.1" viewBox="0 0 914 548" width="914.5833px" zoomAndPan="magnify"><defs><linearGradient id="g1age94jdi0i180" x1="50%" x2="50%" y1="0%" y2="100%"><stop offset="0%" stop-color="#59B6EC"/><stop offset="100%" stop-color="#2FA4E7"/></linearGradient><linearGradient id="g1age94jdi0i181" x1="50%" x2="50%" y1="0%" y2="100%"><stop offset="0%" stop-color="#FFFFFF"/><stop offset="100%" stop-color="#EDF0F2"/></linearGradient></defs><g><ellipse cx="478.5156" cy="20.8333" fill="#033C73" rx="10.4167" ry="10.4167" style="stroke:#2683B9;stroke-width:1.0416666666666667;"/><rect fill="url(#g1age94jdi0i180)" height="36.6557" rx="4.1667" ry="4.1667" style="stroke:#2FA4E7;stroke-width:1.0416666666666667;" width="103.125" x="426.9531" y="52.0833"/><text fill="#FFFFFF" font-family="Gotham Black" font-size="16.6667" lengthAdjust="spacing" textLength="86.4583" x="435.2865" y="76.4079">Save time</text><polygon fill="url(#g1age94jdi0i181)" points="448.3073,111.1633,508.724,111.1633,521.224,123.6633,508.724,136.1633,448.3073,136.1633,435.8073,123.6633,448.3073,111.1633" style="stroke:#BABDBF;stroke-width:1.0416666666666667;"/><text fill="#343A40" font-family="Gotham Black" font-size="16.6667" lengthAdjust="spacing" textLength="56.25" x="450.3906" y="129.66">Error ?</text><text fill="#343A40" font-family="Gotham Black" font-size="16.6667" lengthAdjust="spacing" textLength="20.8333" x="412.8906" y="117.5822">no</text><text fill="#343A40" font-family="Gotham Black" font-size="16.6667" lengthAdjust="spacing" textLength="29.1667" x="523.3073" y="117.5822">yes</text><polygon fill="url(#g1age94jdi0i181)" points="163.8021,146.58,330.4688,146.58,342.9688,159.08,330.4688,171.58,163.8021,171.58,151.3021,159.08,163.8021,146.58" style="stroke:#BABDBF;stroke-width:1.0416666666666667;"/><text fill="#343A40" font-family="Gotham Black" font-size="16.6667" lengthAdjust="spacing" textLength="162.5" x="165.8854" y="165.0767">current operation ?</text><text fill="#343A40" font-family="Gotham Black" font-size="16.6667" lengthAdjust="spacing" textLength="109.375" x="39.8438" y="152.9989">tx from tx_rx</text><text fill="#343A40" font-family="Gotham Black" font-size="16.6667" lengthAdjust="spacing" textLength="45.8333" x="345.0521" y="152.9989">other</text><rect fill="url(#g1age94jdi0i180)" height="36.6557" rx="4.1667" ry="4.1667" style="stroke:#2FA4E7;stroke-width:1.0416666666666667;" width="195.8333" x="32.8125" y="181.9967"/><text fill="#FFFFFF" font-family="Gotham Black" font-size="16.6667" lengthAdjust="spacing" textLength="179.1667" x="41.1458" y="206.3212">Switch from TX to RX</text><rect fill="url(#g1age94jdi0i180)" height="56.6447" rx="4.1667" ry="4.1667" style="stroke:#2FA4E7;stroke-width:1.0416666666666667;" width="193.75" x="33.8542" y="310.9385"/><text fill="#FFFFFF" font-family="Gotham Black" font-size="16.6667" lengthAdjust="spacing" textLength="101.0417" x="42.1875" y="335.2631">Start HARQ</text><text fill="#FFFFFF" font-family="Gotham Black" font-size="16.6667" lengthAdjust="spacing" textLength="177.0833" x="42.1875" y="355.2521">retransmission timer</text><polygon fill="url(#g1age94jdi0i181)" points="33.3333,255.1107,228.125,255.1107,240.625,267.6107,228.125,280.1107,33.3333,280.1107,20.8333,267.6107,33.3333,255.1107" style="stroke:#BABDBF;stroke-width:1.0416666666666667;"/><text fill="#343A40" font-family="Gotham Black" font-size="16.6667" lengthAdjust="spacing" textLength="29.1667" x="136.9792" y="298.1852">yes</text><text fill="#343A40" font-family="Gotham Black" font-size="16.6667" lengthAdjust="spacing" textLength="190.625" x="35.4167" y="273.6074">has requested HARQ ?</text><text fill="#343A40" font-family="Gotham Black" font-size="16.6667" lengthAdjust="spacing" textLength="20.8333" x="242.7083" y="261.5295">no</text><polygon fill="url(#g1age94jdi0i181)" points="130.7292,398.2137,143.2292,410.7137,130.7292,423.2137,118.2292,410.7137,130.7292,398.2137" style="stroke:#BABDBF;stroke-width:1.0416666666666667;"/><rect fill="url(#g1age94jdi0i180)" height="76.6337" rx="4.1667" ry="4.1667" style="stroke:#2FA4E7;stroke-width:1.0416666666666667;" width="123.9583" x="301.5625" y="237.8245"/><text fill="#FFFFFF" font-family="Gotham Black" font-size="16.6667" lengthAdjust="spacing" textLength="107.2917" x="309.8958" y="262.149">notify queue</text><text fill="#FFFFFF" font-family="Gotham Black" font-size="16.6667" lengthAdjust="spacing" textLength="104.1667" x="309.8958" y="282.1381">of operation</text><text fill="#FFFFFF" font-family="Gotham Black" font-size="16.6667" lengthAdjust="spacing" textLength="96.875" x="309.8958" y="302.1271">completion</text><polygon fill="url(#g1age94jdi0i181)" points="286.4583,181.9967,440.625,181.9967,453.125,194.4967,440.625,206.9967,286.4583,206.9967,273.9583,194.4967,286.4583,181.9967" style="stroke:#BABDBF;stroke-width:1.0416666666666667;"/><text fill="#343A40" font-family="Gotham Black" font-size="16.6667" lengthAdjust="spacing" textLength="97.9167" x="369.7917" y="225.0712">from queue</text><text fill="#343A40" font-family="Gotham Black" font-size="16.6667" lengthAdjust="spacing" textLength="150" x="288.5417" y="200.4934">operation origin ?</text><text fill="#343A40" font-family="Gotham Black" font-size="16.6667" lengthAdjust="spacing" textLength="45.8333" x="455.2083" y="188.4155">other</text><polygon fill="url(#g1age94jdi0i181)" points="363.5417,349.4527,376.0417,361.9527,363.5417,374.4527,351.0417,361.9527,363.5417,349.4527" style="stroke:#BABDBF;stroke-width:1.0416666666666667;"/><polygon fill="url(#g1age94jdi0i181)" points="247.1354,433.6304,259.6354,446.1304,247.1354,458.6304,234.6354,446.1304,247.1354,433.6304" style="stroke:#BABDBF;stroke-width:1.0416666666666667;"/><polygon fill="url(#g1age94jdi0i181)" points="520.8333,172.6217,625,172.6217,637.5,185.1217,625,197.6217,520.8333,197.6217,508.3333,185.1217,520.8333,172.6217" style="stroke:#BABDBF;stroke-width:1.0416666666666667;"/><text fill="#343A40" font-family="Gotham Black" font-size="16.6667" lengthAdjust="spacing" textLength="58.3333" x="579.1667" y="215.6962">Invalid</text><text fill="#343A40" font-family="Gotham Black" font-size="16.6667" lengthAdjust="spacing" textLength="84.375" x="579.1667" y="235.6852">start time</text><text fill="#343A40" font-family="Gotham Black" font-size="16.6667" lengthAdjust="spacing" textLength="100" x="522.9167" y="191.1184">Error type ?</text><rect fill="url(#g1age94jdi0i180)" height="36.6557" rx="4.1667" ry="4.1667" style="stroke:#2FA4E7;stroke-width:1.0416666666666667;" width="152.0833" x="496.875" y="262.5997"/><text fill="#FFFFFF" font-family="Gotham Black" font-size="16.6667" lengthAdjust="spacing" textLength="135.4167" x="505.2083" y="286.9242">Retry operation</text><polygon fill="url(#g1age94jdi0i181)" points="694.7917,172.6217,798.9583,172.6217,811.4583,185.1217,798.9583,197.6217,694.7917,197.6217,682.2917,185.1217,694.7917,172.6217" style="stroke:#BABDBF;stroke-width:1.0416666666666667;"/><text fill="#343A40" font-family="Gotham Black" font-size="16.6667" lengthAdjust="spacing" textLength="119.7917" x="753.125" y="215.6962">!Combined op</text><text fill="#343A40" font-family="Gotham Black" font-size="16.6667" lengthAdjust="spacing" textLength="48.9583" x="753.125" y="235.6852">failed</text><text fill="#343A40" font-family="Gotham Black" font-size="16.6667" lengthAdjust="spacing" textLength="100" x="696.875" y="191.1184">Error type ?</text><rect fill="url(#g1age94jdi0i180)" height="36.6557" rx="4.1667" ry="4.1667" style="stroke:#2FA4E7;stroke-width:1.0416666666666667;" width="95.8333" x="698.9583" y="262.5997"/><text fill="#FFFFFF" font-family="Gotham Black" font-size="16.6667" lengthAdjust="spacing" textLength="79.1667" x="707.2917" y="286.9242">Log error</text><polygon fill="url(#g1age94jdi0i181)" points="478.5156,469.047,491.0156,481.547,478.5156,494.047,466.0156,481.547,478.5156,469.047" style="stroke:#BABDBF;stroke-width:1.0416666666666667;"/><ellipse cx="478.5156" cy="526.3387" fill="none" rx="11.4583" ry="11.4583" style="stroke:#2683B9;stroke-width:1.0416666666666667;"/><ellipse cx="478.5156" cy="526.3387" fill="none" rx="6.25" ry="6.25" style="stroke:#2683B9;stroke-width:1.0416666666666667;"/><line style="stroke:#2FA4E7;stroke-width:3.125;" x1="478.5156" x2="478.5156" y1="31.25" y2="52.0833"/><polygon fill="#2FA4E7" points="474.349,41.6667,478.5156,52.0833,482.6823,41.6667,478.5156,45.8333" style="stroke:#2FA4E7;stroke-width:1.0416666666666667;"/><line style="stroke:#2FA4E7;stroke-width:3.125;" x1="130.7292" x2="130.7292" y1="280.1107" y2="310.9385"/><polygon fill="#2FA4E7" points="126.5625,300.5219,130.7292,310.9385,134.8958,300.5219,130.7292,304.6885" style="stroke:#2FA4E7;stroke-width:1.0416666666666667;"/><line style="stroke:#2FA4E7;stroke-width:1.5625;stroke-dasharray:7.0,7.0;" x1="240.625" x2="253.125" y1="267.6107" y2="267.6107"/><polygon fill="#2FA4E7" points="248.9583,330.9275,253.125,341.3442,257.2917,330.9275,253.125,335.0942" style="stroke:#2FA4E7;stroke-width:1.5625;stroke-dasharray:7.0,7.0;"/><line style="stroke:#2FA4E7;stroke-width:1.5625;stroke-dasharray:7.0,7.0;" x1="253.125" x2="253.125" y1="267.6107" y2="410.7137"/><line style="stroke:#2FA4E7;stroke-width:1.5625;stroke-dasharray:7.0,7.0;" x1="253.125" x2="143.2292" y1="410.7137" y2="410.7137"/><polygon fill="#2FA4E7" points="153.6458,406.547,143.2292,410.7137,153.6458,414.8804,149.4792,410.7137" style="stroke:#2FA4E7;stroke-width:1.0416666666666667;"/><line style="stroke:#2FA4E7;stroke-width:3.125;" x1="130.7292" x2="130.7292" y1="367.5832" y2="398.2137"/><polygon fill="#2FA4E7" points="126.5625,387.797,130.7292,398.2137,134.8958,387.797,130.7292,391.9637" style="stroke:#2FA4E7;stroke-width:1.0416666666666667;"/><line style="stroke:#2FA4E7;stroke-width:3.125;" x1="130.7292" x2="130.7292" y1="218.6523" y2="255.1107"/><polygon fill="#2FA4E7" points="126.5625,244.694,130.7292,255.1107,134.8958,244.694,130.7292,248.8607" style="stroke:#2FA4E7;stroke-width:1.0416666666666667;"/><line style="stroke:#2FA4E7;stroke-width:3.125;" x1="363.5417" x2="363.5417" y1="206.9967" y2="237.8245"/><polygon fill="#2FA4E7" points="359.375,227.4078,363.5417,237.8245,367.7083,227.4078,363.5417,231.5745" style="stroke:#2FA4E7;stroke-width:1.0416666666666667;"/><line style="stroke:#2FA4E7;stroke-width:1.5625;stroke-dasharray:7.0,7.0;" x1="453.125" x2="465.625" y1="194.4967" y2="194.4967"/><polygon fill="#2FA4E7" points="461.4583,267.808,465.625,278.2247,469.7917,267.808,465.625,271.9747" style="stroke:#2FA4E7;stroke-width:1.5625;stroke-dasharray:7.0,7.0;"/><line style="stroke:#2FA4E7;stroke-width:1.5625;stroke-dasharray:7.0,7.0;" x1="465.625" x2="465.625" y1="194.4967" y2="361.9527"/><line style="stroke:#2FA4E7;stroke-width:1.5625;stroke-dasharray:7.0,7.0;" x1="465.625" x2="376.0417" y1="361.9527" y2="361.9527"/><polygon fill="#2FA4E7" points="386.4583,357.7861,376.0417,361.9527,386.4583,366.1194,382.2917,361.9527" style="stroke:#2FA4E7;stroke-width:1.0416666666666667;"/><line style="stroke:#2FA4E7;stroke-width:3.125;" x1="363.5417" x2="363.5417" y1="314.4582" y2="349.4527"/><polygon fill="#2FA4E7" points="359.375,339.0361,363.5417,349.4527,367.7083,339.0361,363.5417,343.2027" style="stroke:#2FA4E7;stroke-width:1.0416666666666667;"/><line style="stroke:#2FA4E7;stroke-width:3.125;" x1="151.3021" x2="130.7292" y1="159.08" y2="159.08"/><line style="stroke:#2FA4E7;stroke-width:3.125;" x1="130.7292" x2="130.7292" y1="159.08" y2="181.9967"/><polygon fill="#2FA4E7" points="126.5625,171.58,130.7292,181.9967,134.8958,171.58,130.7292,175.7467" style="stroke:#2FA4E7;stroke-width:1.0416666666666667;"/><line style="stroke:#2FA4E7;stroke-width:3.125;" x1="342.9688" x2="363.5417" y1="159.08" y2="159.08"/><line style="stroke:#2FA4E7;stroke-width:3.125;" x1="363.5417" x2="363.5417" y1="159.08" y2="181.9967"/><polygon fill="#2FA4E7" points="359.375,171.58,363.5417,181.9967,367.7083,171.58,363.5417,175.7467" style="stroke:#2FA4E7;stroke-width:1.0416666666666667;"/><line style="stroke:#2FA4E7;stroke-width:3.125;" x1="130.7292" x2="130.7292" y1="423.2137" y2="446.1304"/><line style="stroke:#2FA4E7;stroke-width:3.125;" x1="130.7292" x2="234.6354" y1="446.1304" y2="446.1304"/><polygon fill="#2FA4E7" points="224.2188,441.9637,234.6354,446.1304,224.2188,450.297,228.3854,446.1304" style="stroke:#2FA4E7;stroke-width:1.0416666666666667;"/><line style="stroke:#2FA4E7;stroke-width:3.125;" x1="363.5417" x2="363.5417" y1="374.4527" y2="446.1304"/><line style="stroke:#2FA4E7;stroke-width:3.125;" x1="363.5417" x2="259.6354" y1="446.1304" y2="446.1304"/><polygon fill="#2FA4E7" points="270.0521,441.9637,259.6354,446.1304,270.0521,450.297,265.8854,446.1304" style="stroke:#2FA4E7;stroke-width:1.0416666666666667;"/><line style="stroke:#2FA4E7;stroke-width:3.125;" x1="572.9167" x2="572.9167" y1="197.6217" y2="262.5997"/><polygon fill="#2FA4E7" points="568.75,252.183,572.9167,262.5997,577.0833,252.183,572.9167,256.3497" style="stroke:#2FA4E7;stroke-width:1.0416666666666667;"/><line style="stroke:#2FA4E7;stroke-width:3.125;" x1="572.9167" x2="572.9167" y1="299.2554" y2="377.3804"/><polygon fill="#2FA4E7" points="568.75,366.9637,572.9167,377.3804,577.0833,366.9637,572.9167,371.1304" style="stroke:#2FA4E7;stroke-width:1.0416666666666667;"/><line style="stroke:#2FA4E7;stroke-width:3.125;" x1="746.875" x2="746.875" y1="197.6217" y2="262.5997"/><polygon fill="#2FA4E7" points="742.7083,252.183,746.875,262.5997,751.0417,252.183,746.875,256.3497" style="stroke:#2FA4E7;stroke-width:1.0416666666666667;"/><line style="stroke:#2FA4E7;stroke-width:3.125;" x1="746.875" x2="746.875" y1="299.2554" y2="377.3804"/><polygon fill="#2FA4E7" points="742.7083,366.9637,746.875,377.3804,751.0417,366.9637,746.875,371.1304" style="stroke:#2FA4E7;stroke-width:1.0416666666666667;"/><line style="stroke:#2FA4E7;stroke-width:3.125;" x1="637.5" x2="682.2917" y1="185.1217" y2="185.1217"/><polygon fill="#2FA4E7" points="671.875,180.955,682.2917,185.1217,671.875,189.2883,676.0417,185.1217" style="stroke:#2FA4E7;stroke-width:1.0416666666666667;"/><line style="stroke:#2FA4E7;stroke-width:3.125;" x1="521.224" x2="572.9167" y1="123.6633" y2="123.6633"/><line style="stroke:#2FA4E7;stroke-width:3.125;" x1="572.9167" x2="572.9167" y1="123.6633" y2="172.6217"/><polygon fill="#2FA4E7" points="568.75,162.205,572.9167,172.6217,577.0833,162.205,572.9167,166.3717" style="stroke:#2FA4E7;stroke-width:1.0416666666666667;"/><line style="stroke:#2FA4E7;stroke-width:1.5625;stroke-dasharray:7.0,7.0;" x1="811.4583" x2="887.5" y1="185.1217" y2="185.1217"/><line style="stroke:#2FA4E7;stroke-width:1.5625;stroke-dasharray:7.0,7.0;" x1="887.5" x2="887.5" y1="185.1217" y2="261.9802"/><line style="stroke:#2FA4E7;stroke-width:1.5625;stroke-dasharray:7.0,7.0;" x1="887.5" x2="887.5" y1="261.9802" y2="377.3804"/><polygon fill="#2FA4E7" points="883.3333,366.9637,887.5,377.3804,891.6667,366.9637,887.5,371.1304" style="stroke:#2FA4E7;stroke-width:1.0416666666666667;"/><line style="stroke:#2FA4E7;stroke-width:3.125;" x1="572.9167" x2="887.5" y1="377.3804" y2="377.3804"/><line style="stroke:#2FA4E7;stroke-width:3.125;" x1="435.8073" x2="247.1354" y1="123.6633" y2="123.6633"/><line style="stroke:#2FA4E7;stroke-width:3.125;" x1="247.1354" x2="247.1354" y1="123.6633" y2="146.58"/><polygon fill="#2FA4E7" points="242.9688,136.1633,247.1354,146.58,251.3021,136.1633,247.1354,140.33" style="stroke:#2FA4E7;stroke-width:1.0416666666666667;"/><line style="stroke:#2FA4E7;stroke-width:3.125;" x1="247.1354" x2="247.1354" y1="458.6304" y2="481.547"/><line style="stroke:#2FA4E7;stroke-width:3.125;" x1="247.1354" x2="466.0156" y1="481.547" y2="481.547"/><polygon fill="#2FA4E7" points="455.599,477.3804,466.0156,481.547,455.599,485.7137,459.7656,481.547" style="stroke:#2FA4E7;stroke-width:1.0416666666666667;"/><line style="stroke:#2FA4E7;stroke-width:3.125;" x1="709.8958" x2="709.8958" y1="377.3804" y2="481.547"/><line style="stroke:#2FA4E7;stroke-width:3.125;" x1="709.8958" x2="491.0156" y1="481.547" y2="481.547"/><polygon fill="#2FA4E7" points="501.4323,477.3804,491.0156,481.547,501.4323,485.7137,497.2656,481.547" style="stroke:#2FA4E7;stroke-width:1.0416666666666667;"/><line style="stroke:#2FA4E7;stroke-width:3.125;" x1="478.5156" x2="478.5156" y1="88.739" y2="111.1633"/><polygon fill="#2FA4E7" points="474.349,100.7467,478.5156,111.1633,482.6823,100.7467,478.5156,104.9133" style="stroke:#2FA4E7;stroke-width:1.0416666666666667;"/><line style="stroke:#2FA4E7;stroke-width:3.125;" x1="478.5156" x2="478.5156" y1="494.047" y2="514.8804"/><polygon fill="#2FA4E7" points="474.349,504.4637,478.5156,514.8804,482.6823,504.4637,478.5156,508.6304" style="stroke:#2FA4E7;stroke-width:1.0416666666666667;"/><!--SRC=[XLB1QiCm3BtxAzHRU-XsRs5ZZC46kwpTeR2EuYLoOuYjJ5Qwvkzd9wDkIc4wXE0dFR_tv8bKw10AvBP6xNUEIciibc2O7DpSzh1IGJIBMgpr0K6imwMo1gPFpCHmFuFOvM7gQQOWLeAAbXcz03N8MYpvt2R7WLoEEpuE4waMwnyhHJLWxniGWjLcUO8JQQK3C7wt62GgV7vOlMNM3aFc6lYIvhvhTCueh7rmDeGaAxdXV0tM0REJLFEFKeSAoy_vNUxoCIML-obguDb8QpPERFVsp7zlC9feyKAm9x6c6o0OGMHoa2EW8DVKc8ulBLn8-iT5_pSCdeBC6vQkmQp_nHzqRSkjxnz57-3P5bSntYwhNPvIikOgs-IHt9VrSP_KRBtHjiRoZEwLze1fB1EfQtx-7FJV-5gfKUeN]--></g></svg>