<?xml version="1.0" encoding="us-ascii" standalone="no"?><svg xmlns="http://www.w3.org/2000/svg" xmlns:xlink="http://www.w3.org/1999/xlink" contentStyleType="text/css" height="664.5833px" preserveAspectRatio="none" style="width:564px;height:664px;" version="1.1" viewBox="0 0 564 664" width="564.5833px" zoomAndPan="magnify"><defs><linearGradient id="gv5og8x3baasc0" x1="50%" x2="50%" y1="0%" y2="100%"><stop offset="0%" stop-color="#59B6EC"/><stop offset="100%" stop-color="#2FA4E7"/></linearGradient><linearGradient id="gv5og8x3baasc1" x1="50%" x2="50%" y1="0%" y2="100%"><stop offset="0%" stop-color="#FFFFFF"/><stop offset="100%" stop-color="#EDF0F2"/></linearGradient></defs><g><ellipse cx="362.7604" cy="20.8333" fill="#033C73" rx="10.4167" ry="10.4167" style="stroke:#2683B9;stroke-width:1.0416666666666667;"/><rect fill="url(#gv5og8x3baasc0)" height="36.6557" rx="4.1667" ry="4.1667" style="stroke:#2FA4E7;stroke-width:1.0416666666666667;" width="100" x="312.7604" y="52.0833"/><text fill="#FFFFFF" font-family="Gotham Black" font-size="16.6667" lengthAdjust="spacing" textLength="83.3333" x="321.0938" y="76.4079">save time</text><rect fill="url(#gv5og8x3baasc0)" height="36.6557" rx="4.1667" ry="4.1667" style="stroke:#2FA4E7;stroke-width:1.0416666666666667;" width="139.5833" x="292.9688" y="109.5723"/><text fill="#FFFFFF" font-family="Gotham Black" font-size="16.6667" lengthAdjust="spacing" textLength="122.9167" x="301.3021" y="133.8969">optimize node</text><polygon fill="url(#gv5og8x3baasc1)" points="283.0729,168.6523,442.4479,168.6523,454.9479,181.1523,442.4479,193.6523,283.0729,193.6523,270.5729,181.1523,283.0729,168.6523" style="stroke:#BABDBF;stroke-width:1.0416666666666667;"/><text fill="#343A40" font-family="Gotham Black" font-size="16.6667" lengthAdjust="spacing" textLength="155.2083" x="285.1563" y="187.149">PHY header type ?</text><text fill="#343A40" font-family="Gotham Black" font-size="16.6667" lengthAdjust="spacing" textLength="54.1667" x="214.3229" y="175.0712">type 2</text><text fill="#343A40" font-family="Gotham Black" font-size="16.6667" lengthAdjust="spacing" textLength="51.0417" x="457.0313" y="175.0712">type 1</text><rect fill="url(#gv5og8x3baasc0)" height="36.6557" rx="4.1667" ry="4.1667" style="stroke:#2FA4E7;stroke-width:1.0416666666666667;" width="110.4167" x="156.7708" y="204.069"/><text fill="#FFFFFF" font-family="Gotham Black" font-size="16.6667" lengthAdjust="spacing" textLength="93.75" x="165.1042" y="228.3936">get header</text><polygon fill="url(#gv5og8x3baasc1)" points="132.2917,374.8047,291.6667,374.8047,304.1667,387.3047,291.6667,399.8047,132.2917,399.8047,119.7917,387.3047,132.2917,374.8047" style="stroke:#BABDBF;stroke-width:1.0416666666666667;"/><text fill="#343A40" font-family="Gotham Black" font-size="16.6667" lengthAdjust="spacing" textLength="155.2083" x="134.375" y="393.3014">feedback format ?</text><text fill="#343A40" font-family="Gotham Black" font-size="16.6667" lengthAdjust="spacing" textLength="107.2917" x="10.4167" y="381.2236">format 1 or 6</text><text fill="#343A40" font-family="Gotham Black" font-size="16.6667" lengthAdjust="spacing" textLength="45.8333" x="306.25" y="381.2236">other</text><rect fill="url(#gv5og8x3baasc0)" height="36.6557" rx="4.1667" ry="4.1667" style="stroke:#2FA4E7;stroke-width:1.0416666666666667;" width="155.2083" x="31.7708" y="410.2214"/><text fill="#FFFFFF" font-family="Gotham Black" font-size="16.6667" font-weight="bold" lengthAdjust="spacing" textLength="138.5417" x="40.1042" y="434.5459">HARQ response</text><rect fill="url(#gv5og8x3baasc0)" height="36.6557" rx="4.1667" ry="4.1667" style="stroke:#2FA4E7;stroke-width:1.0416666666666667;" width="164.5833" x="232.2917" y="410.2214"/><text fill="#FFFFFF" font-family="Gotham Black" font-size="16.6667" lengthAdjust="spacing" textLength="147.9167" x="240.625" y="434.5459">not implemented</text><polygon fill="url(#gv5og8x3baasc1)" points="211.9792,457.2937,224.4792,469.7937,211.9792,482.2937,199.4792,469.7937,211.9792,457.2937" style="stroke:#BABDBF;stroke-width:1.0416666666666667;"/><polygon fill="url(#gv5og8x3baasc1)" points="155.2083,318.9768,268.75,318.9768,281.25,331.4768,268.75,343.9768,155.2083,343.9768,142.7083,331.4768,155.2083,318.9768" style="stroke:#BABDBF;stroke-width:1.0416666666666667;"/><text fill="#343A40" font-family="Gotham Black" font-size="16.6667" lengthAdjust="spacing" textLength="27.0833" x="218.2292" y="362.0514">me</text><text fill="#343A40" font-family="Gotham Black" font-size="16.6667" lengthAdjust="spacing" textLength="109.375" x="157.2917" y="337.4736">destination ?</text><text fill="#343A40" font-family="Gotham Black" font-size="16.6667" lengthAdjust="spacing" textLength="45.8333" x="283.3333" y="325.3957">other</text><polygon fill="url(#gv5og8x3baasc1)" points="211.9792,503.127,224.4792,515.627,211.9792,528.127,199.4792,515.627,211.9792,503.127" style="stroke:#BABDBF;stroke-width:1.0416666666666667;"/><polygon fill="url(#gv5og8x3baasc1)" points="141.1458,263.149,282.8125,263.149,295.3125,275.649,282.8125,288.149,141.1458,288.149,128.6458,275.649,141.1458,263.149" style="stroke:#BABDBF;stroke-width:1.0416666666666667;"/><text fill="#343A40" font-family="Gotham Black" font-size="16.6667" lengthAdjust="spacing" textLength="100" x="218.2292" y="306.2236">format 000</text><text fill="#343A40" font-family="Gotham Black" font-size="16.6667" lengthAdjust="spacing" textLength="137.5" x="143.2292" y="281.6457">Header format ?</text><text fill="#343A40" font-family="Gotham Black" font-size="16.6667" lengthAdjust="spacing" textLength="94.7917" x="297.3958" y="269.5679">format 001</text><polygon fill="url(#gv5og8x3baasc1)" points="211.9792,548.9604,224.4792,561.4604,211.9792,573.9604,199.4792,561.4604,211.9792,548.9604" style="stroke:#BABDBF;stroke-width:1.0416666666666667;"/><rect fill="url(#gv5og8x3baasc0)" height="36.6557" rx="4.1667" ry="4.1667" style="stroke:#2FA4E7;stroke-width:1.0416666666666667;" width="79.1667" x="473.9583" y="204.069"/><text fill="#FFFFFF" font-family="Gotham Black" font-size="16.6667" lengthAdjust="spacing" textLength="62.5" x="482.2917" y="228.3936">beacon</text><polygon fill="url(#gv5og8x3baasc1)" points="362.7604,584.377,375.2604,596.877,362.7604,609.377,350.2604,596.877,362.7604,584.377" style="stroke:#BABDBF;stroke-width:1.0416666666666667;"/><ellipse cx="362.7604" cy="641.6687" fill="none" rx="11.4583" ry="11.4583" style="stroke:#2683B9;stroke-width:1.0416666666666667;"/><ellipse cx="362.7604" cy="641.6687" fill="none" rx="6.25" ry="6.25" style="stroke:#2683B9;stroke-width:1.0416666666666667;"/><line style="stroke:#2FA4E7;stroke-width:3.125;" x1="362.7604" x2="362.7604" y1="31.25" y2="52.0833"/><polygon fill="#2FA4E7" points="358.5938,41.6667,362.7604,52.0833,366.9271,41.6667,362.7604,45.8333" style="stroke:#2FA4E7;stroke-width:1.0416666666666667;"/><line style="stroke:#2FA4E7;stroke-width:3.125;" x1="362.7604" x2="362.7604" y1="88.739" y2="109.5723"/><polygon fill="#2FA4E7" points="358.5938,99.1557,362.7604,109.5723,366.9271,99.1557,362.7604,103.3223" style="stroke:#2FA4E7;stroke-width:1.0416666666666667;"/><line style="stroke:#2FA4E7;stroke-width:3.125;" x1="119.7917" x2="109.375" y1="387.3047" y2="387.3047"/><line style="stroke:#2FA4E7;stroke-width:3.125;" x1="109.375" x2="109.375" y1="387.3047" y2="410.2214"/><polygon fill="#2FA4E7" points="105.2083,399.8047,109.375,410.2214,113.5417,399.8047,109.375,403.9714" style="stroke:#2FA4E7;stroke-width:1.0416666666666667;"/><line style="stroke:#2FA4E7;stroke-width:3.125;" x1="304.1667" x2="314.5833" y1="387.3047" y2="387.3047"/><line style="stroke:#2FA4E7;stroke-width:3.125;" x1="314.5833" x2="314.5833" y1="387.3047" y2="410.2214"/><polygon fill="#2FA4E7" points="310.4167,399.8047,314.5833,410.2214,318.75,399.8047,314.5833,403.9714" style="stroke:#2FA4E7;stroke-width:1.0416666666666667;"/><line style="stroke:#2FA4E7;stroke-width:3.125;" x1="109.375" x2="109.375" y1="446.877" y2="469.7937"/><line style="stroke:#2FA4E7;stroke-width:3.125;" x1="109.375" x2="199.4792" y1="469.7937" y2="469.7937"/><polygon fill="#2FA4E7" points="189.0625,465.627,199.4792,469.7937,189.0625,473.9604,193.2292,469.7937" style="stroke:#2FA4E7;stroke-width:1.0416666666666667;"/><line style="stroke:#2FA4E7;stroke-width:3.125;" x1="314.5833" x2="314.5833" y1="446.877" y2="469.7937"/><line style="stroke:#2FA4E7;stroke-width:3.125;" x1="314.5833" x2="224.4792" y1="469.7937" y2="469.7937"/><polygon fill="#2FA4E7" points="234.8958,465.627,224.4792,469.7937,234.8958,473.9604,230.7292,469.7937" style="stroke:#2FA4E7;stroke-width:1.0416666666666667;"/><line style="stroke:#2FA4E7;stroke-width:3.125;" x1="211.9792" x2="211.9792" y1="343.9768" y2="374.8047"/><polygon fill="#2FA4E7" points="207.8125,364.388,211.9792,374.8047,216.1458,364.388,211.9792,368.5547" style="stroke:#2FA4E7;stroke-width:1.0416666666666667;"/><line style="stroke:#2FA4E7;stroke-width:1.5625;stroke-dasharray:7.0,7.0;" x1="281.25" x2="417.7083" y1="331.4768" y2="331.4768"/><polygon fill="#2FA4E7" points="413.5417,420.2159,417.7083,430.6325,421.875,420.2159,417.7083,424.3825" style="stroke:#2FA4E7;stroke-width:1.5625;stroke-dasharray:7.0,7.0;"/><line style="stroke:#2FA4E7;stroke-width:1.5625;stroke-dasharray:7.0,7.0;" x1="417.7083" x2="417.7083" y1="331.4768" y2="515.627"/><line style="stroke:#2FA4E7;stroke-width:1.5625;stroke-dasharray:7.0,7.0;" x1="417.7083" x2="224.4792" y1="515.627" y2="515.627"/><polygon fill="#2FA4E7" points="234.8958,511.4604,224.4792,515.627,234.8958,519.7937,230.7292,515.627" style="stroke:#2FA4E7;stroke-width:1.0416666666666667;"/><line style="stroke:#2FA4E7;stroke-width:3.125;" x1="211.9792" x2="211.9792" y1="482.2937" y2="503.127"/><polygon fill="#2FA4E7" points="207.8125,492.7104,211.9792,503.127,216.1458,492.7104,211.9792,496.877" style="stroke:#2FA4E7;stroke-width:1.0416666666666667;"/><line style="stroke:#2FA4E7;stroke-width:3.125;" x1="211.9792" x2="211.9792" y1="288.149" y2="318.9768"/><polygon fill="#2FA4E7" points="207.8125,308.5602,211.9792,318.9768,216.1458,308.5602,211.9792,312.7268" style="stroke:#2FA4E7;stroke-width:1.0416666666666667;"/><line style="stroke:#2FA4E7;stroke-width:1.5625;stroke-dasharray:7.0,7.0;" x1="295.3125" x2="440.625" y1="275.649" y2="275.649"/><polygon fill="#2FA4E7" points="436.4583,422.2992,440.625,432.7159,444.7917,422.2992,440.625,426.4659" style="stroke:#2FA4E7;stroke-width:1.5625;stroke-dasharray:7.0,7.0;"/><line style="stroke:#2FA4E7;stroke-width:1.5625;stroke-dasharray:7.0,7.0;" x1="440.625" x2="440.625" y1="275.649" y2="561.4604"/><line style="stroke:#2FA4E7;stroke-width:1.5625;stroke-dasharray:7.0,7.0;" x1="440.625" x2="224.4792" y1="561.4604" y2="561.4604"/><polygon fill="#2FA4E7" points="234.8958,557.2937,224.4792,561.4604,234.8958,565.627,230.7292,561.4604" style="stroke:#2FA4E7;stroke-width:1.0416666666666667;"/><line style="stroke:#2FA4E7;stroke-width:3.125;" x1="211.9792" x2="211.9792" y1="528.127" y2="548.9604"/><polygon fill="#2FA4E7" points="207.8125,538.5437,211.9792,548.9604,216.1458,538.5437,211.9792,542.7104" style="stroke:#2FA4E7;stroke-width:1.0416666666666667;"/><line style="stroke:#2FA4E7;stroke-width:3.125;" x1="211.9792" x2="211.9792" y1="240.7247" y2="263.149"/><polygon fill="#2FA4E7" points="207.8125,252.7323,211.9792,263.149,216.1458,252.7323,211.9792,256.899" style="stroke:#2FA4E7;stroke-width:1.0416666666666667;"/><line style="stroke:#2FA4E7;stroke-width:3.125;" x1="270.5729" x2="211.9792" y1="181.1523" y2="181.1523"/><line style="stroke:#2FA4E7;stroke-width:3.125;" x1="211.9792" x2="211.9792" y1="181.1523" y2="204.069"/><polygon fill="#2FA4E7" points="207.8125,193.6523,211.9792,204.069,216.1458,193.6523,211.9792,197.819" style="stroke:#2FA4E7;stroke-width:1.0416666666666667;"/><line style="stroke:#2FA4E7;stroke-width:3.125;" x1="454.9479" x2="513.5417" y1="181.1523" y2="181.1523"/><line style="stroke:#2FA4E7;stroke-width:3.125;" x1="513.5417" x2="513.5417" y1="181.1523" y2="204.069"/><polygon fill="#2FA4E7" points="509.375,193.6523,513.5417,204.069,517.7083,193.6523,513.5417,197.819" style="stroke:#2FA4E7;stroke-width:1.0416666666666667;"/><line style="stroke:#2FA4E7;stroke-width:3.125;" x1="211.9792" x2="211.9792" y1="573.9604" y2="596.877"/><line style="stroke:#2FA4E7;stroke-width:3.125;" x1="211.9792" x2="350.2604" y1="596.877" y2="596.877"/><polygon fill="#2FA4E7" points="339.8438,592.7104,350.2604,596.877,339.8438,601.0437,344.0104,596.877" style="stroke:#2FA4E7;stroke-width:1.0416666666666667;"/><line style="stroke:#2FA4E7;stroke-width:3.125;" x1="513.5417" x2="513.5417" y1="240.7247" y2="596.877"/><line style="stroke:#2FA4E7;stroke-width:3.125;" x1="513.5417" x2="375.2604" y1="596.877" y2="596.877"/><polygon fill="#2FA4E7" points="385.6771,592.7104,375.2604,596.877,385.6771,601.0437,381.5104,596.877" style="stroke:#2FA4E7;stroke-width:1.0416666666666667;"/><line style="stroke:#2FA4E7;stroke-width:3.125;" x1="362.7604" x2="362.7604" y1="146.228" y2="168.6523"/><polygon fill="#2FA4E7" points="358.5938,158.2357,362.7604,168.6523,366.9271,158.2357,362.7604,162.4023" style="stroke:#2FA4E7;stroke-width:1.0416666666666667;"/><line style="stroke:#2FA4E7;stroke-width:3.125;" x1="362.7604" x2="362.7604" y1="609.377" y2="630.2104"/><polygon fill="#2FA4E7" points="358.5938,619.7937,362.7604,630.2104,366.9271,619.7937,362.7604,623.9604" style="stroke:#2FA4E7;stroke-width:1.0416666666666667;"/><!--SRC=[VP11IyGm48Nl-HNZhLjOxNhmq8BYhKVr9YAIRLwtmIPJab7GNszikvQkQ4wPvFiUmpkJ3WxK8BprqFx5iR6jXQ4siAFpY_5RgIWwY2gZVWU9TQXKoKEws4-GPvDcsr9sLpzI1sqGI3u6qCs6akyf6wVBZQ9qoWDafghnuTki9wlbuBGitZmNHJ6vHzmWYlLQBFi5TbYW8zW2Pg-Rrx-ITyI1hjRUk6IUrxSFznGG1_OHULwj6FGHb77A2ckvz2natT2dshp0d6W-jQl-3Ta-6HqxcEVjjVgjJSfFBRl9EtKcNatmsFqCbdleXdsbPY8A3qfz0G00]--></g></svg>