<?xml version="1.0" encoding="us-ascii" standalone="no"?><svg xmlns="http://www.w3.org/2000/svg" xmlns:xlink="http://www.w3.org/1999/xlink" contentStyleType="text/css" height="459.375px" preserveAspectRatio="none" style="width:304px;height:459px;" version="1.1" viewBox="0 0 304 459" width="304.1667px" zoomAndPan="magnify"><defs><linearGradient id="g130f4a7fx6a1w0" x1="50%" x2="50%" y1="0%" y2="100%"><stop offset="0%" stop-color="#59B6EC"/><stop offset="100%" stop-color="#2FA4E7"/></linearGradient><linearGradient id="g130f4a7fx6a1w1" x1="50%" x2="50%" y1="0%" y2="100%"><stop offset="0%" stop-color="#FFFFFF"/><stop offset="100%" stop-color="#EDF0F2"/></linearGradient></defs><g><ellipse cx="143.2292" cy="20.8333" fill="#033C73" rx="10.4167" ry="10.4167" style="stroke:#2683B9;stroke-width:1.0416666666666667;"/><rect fill="url(#g130f4a7fx6a1w0)" height="76.6337" rx="4.1667" ry="4.1667" style="stroke:#2FA4E7;stroke-width:1.0416666666666667;" width="263.5417" x="11.4583" y="52.0833"/><text fill="#FFFFFF" font-family="Gotham Black" font-size="16.6667" lengthAdjust="spacing" textLength="159.375" x="63.5417" y="76.4079">create the PHY API</text><text fill="#FFFFFF" font-family="Gotham Black" font-size="16.6667" lengthAdjust="spacing" textLength="246.875" x="19.7917" y="96.3969">parameters from the handler</text><text fill="#FFFFFF" font-family="Gotham Black" font-size="16.6667" lengthAdjust="spacing" textLength="173.9583" x="56.25" y="116.3859">function parameters</text><rect fill="url(#g130f4a7fx6a1w0)" height="36.6557" rx="4.1667" ry="4.1667" style="stroke:#2FA4E7;stroke-width:1.0416666666666667;" width="217.7083" x="34.375" y="149.5504"/><text fill="#FFFFFF" font-family="Gotham Black" font-size="16.6667" lengthAdjust="spacing" textLength="201.0417" x="42.7083" y="173.8749">indicating current state</text><rect fill="url(#g130f4a7fx6a1w0)" height="36.6557" rx="4.1667" ry="4.1667" style="stroke:#2FA4E7;stroke-width:1.0416666666666667;" width="151.0417" x="67.7083" y="207.0394"/><text fill="#FFFFFF" font-family="Gotham Black" font-size="16.6667" lengthAdjust="spacing" textLength="134.375" x="76.0417" y="231.3639">send to PHY API</text><rect fill="url(#g130f4a7fx6a1w0)" height="36.6557" rx="4.1667" ry="4.1667" style="stroke:#2FA4E7;stroke-width:1.0416666666666667;" width="129.1667" x="78.6458" y="321.9472"/><text fill="#FFFFFF" font-family="Gotham Black" font-size="16.6667" lengthAdjust="spacing" textLength="112.5" x="86.9792" y="346.2718">logging error</text><polygon fill="url(#g130f4a7fx6a1w1)" points="73.4375,266.1194,213.0208,266.1194,225.5208,278.6194,213.0208,291.1194,73.4375,291.1194,60.9375,278.6194,73.4375,266.1194" style="stroke:#BABDBF;stroke-width:1.0416666666666667;"/><text fill="#343A40" font-family="Gotham Black" font-size="16.6667" lengthAdjust="spacing" textLength="42.7083" x="149.4792" y="309.1939">error</text><text fill="#343A40" font-family="Gotham Black" font-size="16.6667" lengthAdjust="spacing" textLength="135.4167" x="75.5208" y="284.6161">function result ?</text><text fill="#343A40" font-family="Gotham Black" font-size="16.6667" lengthAdjust="spacing" textLength="64.5833" x="227.6042" y="272.5382">success</text><polygon fill="url(#g130f4a7fx6a1w1)" points="143.2292,379.4362,155.7292,391.9362,143.2292,404.4362,130.7292,391.9362,143.2292,379.4362" style="stroke:#BABDBF;stroke-width:1.0416666666666667;"/><ellipse cx="143.2292" cy="436.7279" fill="none" rx="11.4583" ry="11.4583" style="stroke:#2683B9;stroke-width:1.0416666666666667;"/><ellipse cx="143.2292" cy="436.7279" fill="none" rx="6.25" ry="6.25" style="stroke:#2683B9;stroke-width:1.0416666666666667;"/><line style="stroke:#2FA4E7;stroke-width:3.125;" x1="143.2292" x2="143.2292" y1="31.25" y2="52.0833"/><polygon fill="#2FA4E7" points="139.0625,41.6667,143.2292,52.0833,147.3958,41.6667,143.2292,45.8333" style="stroke:#2FA4E7;stroke-width:1.0416666666666667;"/><line style="stroke:#2FA4E7;stroke-width:3.125;" x1="143.2292" x2="143.2292" y1="128.717" y2="149.5504"/><polygon fill="#2FA4E7" points="139.0625,139.1337,143.2292,149.5504,147.3958,139.1337,143.2292,143.3004" style="stroke:#2FA4E7;stroke-width:1.0416666666666667;"/><line style="stroke:#2FA4E7;stroke-width:3.125;" x1="143.2292" x2="143.2292" y1="186.2061" y2="207.0394"/><polygon fill="#2FA4E7" points="139.0625,196.6227,143.2292,207.0394,147.3958,196.6227,143.2292,200.7894" style="stroke:#2FA4E7;stroke-width:1.0416666666666667;"/><line style="stroke:#2FA4E7;stroke-width:3.125;" x1="143.2292" x2="143.2292" y1="291.1194" y2="321.9472"/><polygon fill="#2FA4E7" points="139.0625,311.5306,143.2292,321.9472,147.3958,311.5306,143.2292,315.6972" style="stroke:#2FA4E7;stroke-width:1.0416666666666667;"/><line style="stroke:#2FA4E7;stroke-width:1.5625;stroke-dasharray:7.0,7.0;" x1="225.5208" x2="238.0208" y1="278.6194" y2="278.6194"/><polygon fill="#2FA4E7" points="233.8542,331.9417,238.0208,342.3584,242.1875,331.9417,238.0208,336.1084" style="stroke:#2FA4E7;stroke-width:1.5625;stroke-dasharray:7.0,7.0;"/><line style="stroke:#2FA4E7;stroke-width:1.5625;stroke-dasharray:7.0,7.0;" x1="238.0208" x2="238.0208" y1="278.6194" y2="391.9362"/><line style="stroke:#2FA4E7;stroke-width:1.5625;stroke-dasharray:7.0,7.0;" x1="238.0208" x2="155.7292" y1="391.9362" y2="391.9362"/><polygon fill="#2FA4E7" points="166.1458,387.7696,155.7292,391.9362,166.1458,396.1029,161.9792,391.9362" style="stroke:#2FA4E7;stroke-width:1.0416666666666667;"/><line style="stroke:#2FA4E7;stroke-width:3.125;" x1="143.2292" x2="143.2292" y1="358.6029" y2="379.4362"/><polygon fill="#2FA4E7" points="139.0625,369.0196,143.2292,379.4362,147.3958,369.0196,143.2292,373.1862" style="stroke:#2FA4E7;stroke-width:1.0416666666666667;"/><line style="stroke:#2FA4E7;stroke-width:3.125;" x1="143.2292" x2="143.2292" y1="243.6951" y2="266.1194"/><polygon fill="#2FA4E7" points="139.0625,255.7027,143.2292,266.1194,147.3958,255.7027,143.2292,259.8694" style="stroke:#2FA4E7;stroke-width:1.0416666666666667;"/><line style="stroke:#2FA4E7;stroke-width:3.125;" x1="143.2292" x2="143.2292" y1="404.4362" y2="425.2696"/><polygon fill="#2FA4E7" points="139.0625,414.8529,143.2292,425.2696,147.3958,414.8529,143.2292,419.0196" style="stroke:#2FA4E7;stroke-width:1.0416666666666667;"/><!--SRC=[HOyzJyGm38Pt_mgpzOQ3lPL0jy5s0ylfX52KEAr5wfmSH-Bdu_O4UFJxyTWFjj1A64bxeI2VQqsScH9chIi-FkqoGFjYkGKDAoRAeHTxfsyx5Pvb9J6FYv6wpO8QZ54f6A5dyVnwmTFv3VOmkQdTcpTj2PAAntANQ5m5_qqJZ2o9Op2M6MDNtJ1UR-HI8qbezRTy0iuu_BKeDJyGNmuRH71eFKPgxG3eSxocq1PA7yTdeD881rAjUXV7KkTv0-wx2Hp3sP-gD_W1]--></g></svg>